<svg width="1164" height="981" viewBox="0 0 1164 981" fill="none" xmlns="http://www.w3.org/2000/svg">
<circle cx="79" cy="287" r="73.5" fill="black" stroke="black" stroke-width="3"/>
<circle cx="75" cy="283" r="73.5" fill="#A3F4EF" stroke="black" stroke-width="3"/>
<path fill-rule="evenodd" clip-rule="evenodd" d="M59.6249 262.5C59.6249 258.422 61.2448 254.512 64.1282 251.628C67.0115 248.745 70.9222 247.125 74.9999 247.125C79.0776 247.125 82.9883 248.745 85.8717 251.628C88.7551 254.512 90.3749 258.422 90.3749 262.5C90.3749 266.578 88.7551 270.488 85.8717 273.372C82.9883 276.255 79.0776 277.875 74.9999 277.875C70.9222 277.875 67.0115 276.255 64.1282 273.372C61.2448 270.488 59.6249 266.578 59.6249 262.5ZM46.8158 310.692C46.931 303.293 49.9511 296.236 55.2241 291.045C60.4971 285.853 67.6001 282.943 74.9999 282.943C82.3997 282.943 89.5027 285.853 94.7757 291.045C100.049 296.236 103.069 303.293 103.184 310.692C103.193 311.19 103.056 311.68 102.791 312.102C102.526 312.524 102.144 312.859 101.691 313.067C93.3172 316.906 84.2118 318.887 74.9999 318.875C65.4811 318.875 56.4372 316.798 48.3089 313.067C47.8562 312.859 47.4738 312.524 47.2086 312.102C46.9434 311.68 46.807 311.19 46.8158 310.692Z" fill="black"/>
<circle cx="1051" cy="532" r="73.5" fill="black" stroke="black" stroke-width="3"/>
<circle cx="1047" cy="528" r="73.5" fill="#A3F4EF" stroke="black" stroke-width="3"/>
<path fill-rule="evenodd" clip-rule="evenodd" d="M1031.62 507.5C1031.62 503.422 1033.24 499.512 1036.13 496.628C1039.01 493.745 1042.92 492.125 1047 492.125C1051.08 492.125 1054.99 493.745 1057.87 496.628C1060.76 499.512 1062.37 503.422 1062.37 507.5C1062.37 511.578 1060.76 515.488 1057.87 518.372C1054.99 521.255 1051.08 522.875 1047 522.875C1042.92 522.875 1039.01 521.255 1036.13 518.372C1033.24 515.488 1031.62 511.578 1031.62 507.5ZM1018.82 555.692C1018.93 548.293 1021.95 541.236 1027.22 536.045C1032.5 530.853 1039.6 527.943 1047 527.943C1054.4 527.943 1061.5 530.853 1066.78 536.045C1072.05 541.236 1075.07 548.293 1075.18 555.692C1075.19 556.19 1075.06 556.68 1074.79 557.102C1074.53 557.524 1074.14 557.859 1073.69 558.067C1065.32 561.906 1056.21 563.887 1047 563.875C1037.48 563.875 1028.44 561.798 1020.31 558.067C1019.86 557.859 1019.47 557.524 1019.21 557.102C1018.94 556.68 1018.81 556.19 1018.82 555.692Z" fill="black"/>
<circle cx="819" cy="663" r="73.5" fill="black" stroke="black" stroke-width="3"/>
<circle cx="815" cy="659" r="73.5" fill="#A3F4EF" stroke="black" stroke-width="3"/>
<path fill-rule="evenodd" clip-rule="evenodd" d="M799.625 638.5C799.625 634.422 801.245 630.512 804.128 627.628C807.012 624.745 810.922 623.125 815 623.125C819.078 623.125 822.988 624.745 825.872 627.628C828.755 630.512 830.375 634.422 830.375 638.5C830.375 642.578 828.755 646.488 825.872 649.372C822.988 652.255 819.078 653.875 815 653.875C810.922 653.875 807.012 652.255 804.128 649.372C801.245 646.488 799.625 642.578 799.625 638.5ZM786.816 686.692C786.931 679.293 789.951 672.236 795.224 667.045C800.497 661.853 807.6 658.943 815 658.943C822.4 658.943 829.503 661.853 834.776 667.045C840.049 672.236 843.069 679.293 843.184 686.692C843.193 687.19 843.056 687.68 842.791 688.102C842.526 688.524 842.144 688.859 841.691 689.067C833.317 692.906 824.212 694.887 815 694.875C805.481 694.875 796.437 692.798 788.309 689.067C787.856 688.859 787.474 688.524 787.209 688.102C786.943 687.68 786.807 687.19 786.816 686.692Z" fill="black"/>
<circle cx="515" cy="756" r="73.5" fill="black" stroke="black" stroke-width="3"/>
<circle cx="511" cy="752" r="73.5" fill="#A3F4EF" stroke="black" stroke-width="3"/>
<path fill-rule="evenodd" clip-rule="evenodd" d="M495.625 731.5C495.625 727.422 497.245 723.512 500.128 720.628C503.012 717.745 506.922 716.125 511 716.125C515.078 716.125 518.988 717.745 521.872 720.628C524.755 723.512 526.375 727.422 526.375 731.5C526.375 735.578 524.755 739.488 521.872 742.372C518.988 745.255 515.078 746.875 511 746.875C506.922 746.875 503.012 745.255 500.128 742.372C497.245 739.488 495.625 735.578 495.625 731.5ZM482.816 779.692C482.931 772.293 485.951 765.236 491.224 760.045C496.497 754.853 503.6 751.943 511 751.943C518.4 751.943 525.503 754.853 530.776 760.045C536.049 765.236 539.069 772.293 539.184 779.692C539.193 780.19 539.056 780.68 538.791 781.102C538.526 781.524 538.144 781.859 537.691 782.067C529.317 785.906 520.212 787.887 511 787.875C501.481 787.875 492.437 785.798 484.309 782.067C483.856 781.859 483.474 781.524 483.209 781.102C482.943 780.68 482.807 780.19 482.816 779.692Z" fill="black"/>
<circle cx="273" cy="867" r="73.5" fill="black" stroke="black" stroke-width="3"/>
<circle cx="269" cy="863" r="73.5" fill="#A3F4EF" stroke="black" stroke-width="3"/>
<path fill-rule="evenodd" clip-rule="evenodd" d="M253.625 842.5C253.625 838.422 255.245 834.512 258.128 831.628C261.012 828.745 264.922 827.125 269 827.125C273.078 827.125 276.988 828.745 279.872 831.628C282.755 834.512 284.375 838.422 284.375 842.5C284.375 846.578 282.755 850.488 279.872 853.372C276.988 856.255 273.078 857.875 269 857.875C264.922 857.875 261.012 856.255 258.128 853.372C255.245 850.488 253.625 846.578 253.625 842.5ZM240.816 890.692C240.931 883.293 243.951 876.236 249.224 871.045C254.497 865.853 261.6 862.943 269 862.943C276.4 862.943 283.503 865.853 288.776 871.045C294.049 876.236 297.069 883.293 297.184 890.692C297.193 891.19 297.056 891.68 296.791 892.102C296.526 892.524 296.144 892.859 295.691 893.067C287.317 896.906 278.212 898.887 269 898.875C259.481 898.875 250.437 896.798 242.309 893.067C241.856 892.859 241.474 892.524 241.209 892.102C240.943 891.68 240.807 891.19 240.816 890.692Z" fill="black"/>
<circle cx="390" cy="290" r="73.5" fill="black" stroke="black" stroke-width="3"/>
<circle cx="386" cy="286" r="73.5" fill="#A3F4EF" stroke="black" stroke-width="3"/>
<path fill-rule="evenodd" clip-rule="evenodd" d="M370.625 265.5C370.625 261.422 372.245 257.512 375.128 254.628C378.012 251.745 381.922 250.125 386 250.125C390.078 250.125 393.988 251.745 396.872 254.628C399.755 257.512 401.375 261.422 401.375 265.5C401.375 269.578 399.755 273.488 396.872 276.372C393.988 279.255 390.078 280.875 386 280.875C381.922 280.875 378.012 279.255 375.128 276.372C372.245 273.488 370.625 269.578 370.625 265.5ZM357.816 313.692C357.931 306.293 360.951 299.236 366.224 294.045C371.497 288.853 378.6 285.943 386 285.943C393.4 285.943 400.503 288.853 405.776 294.045C411.049 299.236 414.069 306.293 414.184 313.692C414.193 314.19 414.056 314.68 413.791 315.102C413.526 315.524 413.144 315.859 412.691 316.067C404.317 319.906 395.212 321.887 386 321.875C376.481 321.875 367.437 319.798 359.309 316.067C358.856 315.859 358.474 315.524 358.209 315.102C357.943 314.68 357.807 314.19 357.816 313.692Z" fill="black"/>
<circle cx="572" cy="136" r="73.5" fill="black" stroke="black" stroke-width="3"/>
<circle cx="568" cy="132" r="73.5" fill="#A3F4EF" stroke="black" stroke-width="3"/>
<path fill-rule="evenodd" clip-rule="evenodd" d="M552.625 111.5C552.625 107.422 554.245 103.512 557.128 100.628C560.012 97.7449 563.922 96.125 568 96.125C572.078 96.125 575.988 97.7449 578.872 100.628C581.755 103.512 583.375 107.422 583.375 111.5C583.375 115.578 581.755 119.488 578.872 122.372C575.988 125.255 572.078 126.875 568 126.875C563.922 126.875 560.012 125.255 557.128 122.372C554.245 119.488 552.625 115.578 552.625 111.5ZM539.816 159.692C539.931 152.293 542.951 145.236 548.224 140.045C553.497 134.853 560.6 131.943 568 131.943C575.4 131.943 582.503 134.853 587.776 140.045C593.049 145.236 596.069 152.293 596.184 159.692C596.193 160.19 596.056 160.68 595.791 161.102C595.526 161.524 595.144 161.859 594.691 162.067C586.317 165.906 577.212 167.887 568 167.875C558.481 167.875 549.437 165.798 541.309 162.067C540.856 161.859 540.474 161.524 540.209 161.102C539.943 160.68 539.807 160.19 539.816 159.692Z" fill="black"/>
<circle cx="123" cy="625" r="73.5" fill="black" stroke="black" stroke-width="3"/>
<circle cx="119" cy="621" r="73.5" fill="#A4FFA7" stroke="black" stroke-width="3"/>
<path d="M117.95 588.818C118.281 588.673 118.638 588.598 119 588.598C119.361 588.598 119.719 588.673 120.05 588.818C132.993 594.475 145.339 601.41 156.905 609.52C157.312 609.806 157.63 610.202 157.821 610.661C158.013 611.121 158.069 611.626 157.984 612.116C157.9 612.607 157.677 613.063 157.343 613.432C157.008 613.801 156.576 614.067 156.096 614.2C144.089 617.516 132.471 622.106 121.439 627.892L121.429 627.899L120.239 628.529C119.858 628.732 119.433 628.838 119.002 628.838C118.57 628.838 118.145 628.732 117.764 628.529C113.035 626.001 108.191 623.692 103.25 621.609V620.825C103.25 620.367 103.484 619.957 103.852 619.737C109.135 616.535 114.569 613.592 120.137 610.917C120.765 610.615 121.247 610.076 121.477 609.419C121.708 608.762 121.667 608.041 121.366 607.413C121.064 606.786 120.525 606.304 119.868 606.073C119.211 605.843 118.49 605.883 117.862 606.185C112.143 608.933 106.559 611.957 101.132 615.246C100.36 615.714 99.6941 616.338 99.1765 617.078C98.6589 617.818 98.301 618.658 98.1258 619.544C92.81 617.499 87.3972 615.715 81.9068 614.2C81.4269 614.067 80.9946 613.801 80.6603 613.432C80.3261 613.063 80.1035 612.607 80.0188 612.116C79.934 611.626 79.9905 611.121 80.1817 610.661C80.3728 610.202 80.6907 609.806 81.0983 609.52C92.6628 601.41 105.008 594.475 117.95 588.818Z" fill="black"/>
<path d="M122.71 633.156C131.307 628.563 140.283 624.719 149.541 621.669C150.01 626.618 150.311 631.619 150.433 636.666C150.446 637.194 150.299 637.714 150.012 638.157C149.725 638.601 149.31 638.947 148.823 639.151C138.902 643.295 129.402 648.384 120.456 654.348C120.024 654.635 119.518 654.789 119 654.789C118.481 654.789 117.975 654.635 117.544 654.348C108.598 648.384 99.1 643.295 89.1797 639.151C88.6918 638.947 88.2767 638.601 87.9888 638.158C87.7009 637.715 87.5536 637.195 87.5662 636.666C87.6887 631.619 87.9897 626.621 88.4587 621.665C91.6729 622.724 94.8547 623.88 97.9997 625.13V629.575C97.2434 630.011 96.6078 630.628 96.1501 631.371C95.6925 632.114 95.4274 632.96 95.3788 633.831C95.3301 634.703 95.4995 635.573 95.8716 636.362C96.2436 637.152 96.8066 637.836 97.5097 638.353C97.1947 639.683 96.7327 640.989 96.1202 642.238C97.7022 642.984 99.2737 643.757 100.831 644.552C101.709 642.765 102.357 640.874 102.76 638.924C103.645 638.53 104.404 637.899 104.953 637.101C105.501 636.303 105.819 635.369 105.87 634.401C105.92 633.434 105.702 632.471 105.24 631.62C104.778 630.769 104.089 630.062 103.25 629.579V627.321C107.338 629.108 111.355 631.056 115.29 633.159C116.431 633.769 117.705 634.088 119 634.088C120.294 634.088 121.568 633.769 122.71 633.159V633.156Z" fill="black"/>
<path d="M92.6171 647.117C94.0871 645.651 95.2526 644.002 96.1171 642.238C97.7026 642.984 99.2741 643.757 100.832 644.552C99.6864 646.878 98.1657 648.999 96.3306 650.831C96.0903 651.088 95.8005 651.295 95.4785 651.439C95.1565 651.582 94.8089 651.659 94.4565 651.666C94.104 651.672 93.7539 651.607 93.427 651.475C93.1002 651.343 92.8033 651.146 92.554 650.897C92.3047 650.648 92.1082 650.351 91.9762 650.024C91.8442 649.697 91.7793 649.347 91.7856 648.995C91.7918 648.642 91.8689 648.295 92.0124 647.973C92.1559 647.651 92.3627 647.361 92.6206 647.121L92.6171 647.117Z" fill="black"/>
<circle cx="1089" cy="187" r="73.5" fill="black" stroke="black" stroke-width="3"/>
<circle cx="1085" cy="183" r="73.5" fill="#A4FFA7" stroke="black" stroke-width="3"/>
<path d="M1083.95 150.818C1084.28 150.673 1084.64 150.598 1085 150.598C1085.36 150.598 1085.72 150.673 1086.05 150.818C1098.99 156.475 1111.34 163.41 1122.9 171.52C1123.31 171.806 1123.63 172.202 1123.82 172.661C1124.01 173.121 1124.07 173.626 1123.98 174.116C1123.9 174.607 1123.68 175.063 1123.34 175.432C1123.01 175.801 1122.58 176.067 1122.1 176.2C1110.09 179.516 1098.47 184.106 1087.44 189.892L1087.43 189.899L1086.24 190.529C1085.86 190.732 1085.43 190.838 1085 190.838C1084.57 190.838 1084.14 190.732 1083.76 190.529C1079.03 188.001 1074.19 185.692 1069.25 183.609V182.825C1069.25 182.367 1069.48 181.957 1069.85 181.737C1075.13 178.535 1080.57 175.592 1086.14 172.917C1086.76 172.615 1087.25 172.076 1087.48 171.419C1087.71 170.762 1087.67 170.041 1087.37 169.413C1087.06 168.786 1086.53 168.304 1085.87 168.073C1085.21 167.843 1084.49 167.883 1083.86 168.185C1078.14 170.933 1072.56 173.957 1067.13 177.246C1066.36 177.714 1065.69 178.338 1065.18 179.078C1064.66 179.818 1064.3 180.658 1064.13 181.544C1058.81 179.499 1053.4 177.715 1047.91 176.2C1047.43 176.067 1046.99 175.801 1046.66 175.432C1046.33 175.063 1046.1 174.607 1046.02 174.116C1045.93 173.626 1045.99 173.121 1046.18 172.661C1046.37 172.202 1046.69 171.806 1047.1 171.52C1058.66 163.41 1071.01 156.475 1083.95 150.818Z" fill="black"/>
<path d="M1088.71 195.156C1097.31 190.563 1106.28 186.719 1115.54 183.669C1116.01 188.618 1116.31 193.619 1116.43 198.666C1116.45 199.194 1116.3 199.714 1116.01 200.157C1115.72 200.601 1115.31 200.947 1114.82 201.151C1104.9 205.295 1095.4 210.384 1086.46 216.348C1086.02 216.635 1085.52 216.789 1085 216.789C1084.48 216.789 1083.97 216.635 1083.54 216.348C1074.6 210.384 1065.1 205.295 1055.18 201.151C1054.69 200.947 1054.28 200.601 1053.99 200.158C1053.7 199.715 1053.55 199.195 1053.57 198.666C1053.69 193.619 1053.99 188.621 1054.46 183.665C1057.67 184.724 1060.85 185.88 1064 187.13V191.575C1063.24 192.011 1062.61 192.628 1062.15 193.371C1061.69 194.114 1061.43 194.96 1061.38 195.831C1061.33 196.703 1061.5 197.573 1061.87 198.362C1062.24 199.152 1062.81 199.836 1063.51 200.353C1063.19 201.683 1062.73 202.989 1062.12 204.238C1063.7 204.984 1065.27 205.757 1066.83 206.552C1067.71 204.765 1068.36 202.874 1068.76 200.924C1069.64 200.53 1070.4 199.899 1070.95 199.101C1071.5 198.303 1071.82 197.369 1071.87 196.401C1071.92 195.434 1071.7 194.471 1071.24 193.62C1070.78 192.769 1070.09 192.062 1069.25 191.579V189.321C1073.34 191.108 1077.35 193.056 1081.29 195.159C1082.43 195.769 1083.71 196.088 1085 196.088C1086.29 196.088 1087.57 195.769 1088.71 195.159V195.156Z" fill="black"/>
<path d="M1058.62 209.117C1060.09 207.651 1061.25 206.002 1062.12 204.238C1063.7 204.984 1065.27 205.757 1066.83 206.552C1065.69 208.878 1064.17 210.999 1062.33 212.831C1062.09 213.088 1061.8 213.295 1061.48 213.439C1061.16 213.582 1060.81 213.659 1060.46 213.666C1060.1 213.672 1059.75 213.607 1059.43 213.475C1059.1 213.343 1058.8 213.146 1058.55 212.897C1058.3 212.648 1058.11 212.351 1057.98 212.024C1057.84 211.697 1057.78 211.347 1057.79 210.995C1057.79 210.642 1057.87 210.295 1058.01 209.973C1058.16 209.651 1058.36 209.361 1058.62 209.121L1058.62 209.117Z" fill="black"/>
<circle cx="1014" cy="792" r="73.5" fill="black" stroke="black" stroke-width="3"/>
<circle cx="1010" cy="788" r="73.5" fill="#A4FFA7" stroke="black" stroke-width="3"/>
<path d="M1008.95 755.818C1009.28 755.673 1009.64 755.598 1010 755.598C1010.36 755.598 1010.72 755.673 1011.05 755.818C1023.99 761.475 1036.34 768.41 1047.9 776.52C1048.31 776.806 1048.63 777.202 1048.82 777.661C1049.01 778.121 1049.07 778.626 1048.98 779.116C1048.9 779.607 1048.68 780.063 1048.34 780.432C1048.01 780.801 1047.58 781.067 1047.1 781.2C1035.09 784.516 1023.47 789.106 1012.44 794.892L1012.43 794.899L1011.24 795.529C1010.86 795.732 1010.43 795.838 1010 795.838C1009.57 795.838 1009.14 795.732 1008.76 795.529C1004.03 793.001 999.191 790.692 994.25 788.609V787.825C994.25 787.367 994.484 786.957 994.852 786.737C1000.13 783.535 1005.57 780.592 1011.14 777.917C1011.76 777.615 1012.25 777.076 1012.48 776.419C1012.71 775.762 1012.67 775.041 1012.37 774.413C1012.06 773.786 1011.53 773.304 1010.87 773.073C1010.21 772.843 1009.49 772.883 1008.86 773.185C1003.14 775.933 997.559 778.957 992.132 782.246C991.36 782.714 990.694 783.338 990.176 784.078C989.659 784.818 989.301 785.658 989.126 786.544C983.81 784.499 978.397 782.715 972.907 781.2C972.427 781.067 971.995 780.801 971.66 780.432C971.326 780.063 971.104 779.607 971.019 779.116C970.934 778.626 970.991 778.121 971.182 777.661C971.373 777.202 971.691 776.806 972.098 776.52C983.663 768.41 996.008 761.475 1008.95 755.818Z" fill="black"/>
<path d="M1013.71 800.156C1022.31 795.563 1031.28 791.719 1040.54 788.669C1041.01 793.618 1041.31 798.619 1041.43 803.666C1041.45 804.194 1041.3 804.714 1041.01 805.157C1040.72 805.601 1040.31 805.947 1039.82 806.151C1029.9 810.295 1020.4 815.384 1011.46 821.348C1011.02 821.635 1010.52 821.789 1010 821.789C1009.48 821.789 1008.97 821.635 1008.54 821.348C999.598 815.384 990.1 810.295 980.18 806.151C979.692 805.947 979.277 805.601 978.989 805.158C978.701 804.715 978.554 804.195 978.566 803.666C978.689 798.619 978.99 793.621 979.459 788.665C982.673 789.724 985.855 790.88 989 792.13V796.575C988.243 797.011 987.608 797.628 987.15 798.371C986.693 799.114 986.427 799.96 986.379 800.831C986.33 801.703 986.499 802.573 986.872 803.362C987.244 804.152 987.807 804.836 988.51 805.353C988.195 806.683 987.733 807.989 987.12 809.238C988.702 809.984 990.274 810.757 991.831 811.552C992.709 809.765 993.357 807.874 993.76 805.924C994.645 805.53 995.404 804.899 995.953 804.101C996.501 803.303 996.819 802.369 996.87 801.401C996.92 800.434 996.702 799.471 996.24 798.62C995.778 797.769 995.089 797.062 994.25 796.579V794.321C998.338 796.108 1002.35 798.056 1006.29 800.159C1007.43 800.769 1008.71 801.088 1010 801.088C1011.29 801.088 1012.57 800.769 1013.71 800.159V800.156Z" fill="black"/>
<path d="M983.617 814.117C985.087 812.651 986.253 811.002 987.117 809.238C988.703 809.984 990.274 810.757 991.832 811.552C990.686 813.878 989.166 815.999 987.331 817.831C987.09 818.088 986.801 818.295 986.479 818.439C986.157 818.582 985.809 818.659 985.456 818.666C985.104 818.672 984.754 818.607 984.427 818.475C984.1 818.343 983.803 818.146 983.554 817.897C983.305 817.648 983.108 817.351 982.976 817.024C982.844 816.697 982.779 816.347 982.786 815.995C982.792 815.642 982.869 815.295 983.012 814.973C983.156 814.651 983.363 814.361 983.621 814.121L983.617 814.117Z" fill="black"/>
<circle cx="722" cy="906" r="73.5" fill="black" stroke="black" stroke-width="3"/>
<circle cx="718" cy="902" r="73.5" fill="#A4FFA7" stroke="black" stroke-width="3"/>
<path d="M716.95 869.818C717.281 869.673 717.638 869.598 718 869.598C718.361 869.598 718.719 869.673 719.05 869.818C731.993 875.475 744.339 882.41 755.905 890.52C756.312 890.806 756.63 891.202 756.821 891.661C757.013 892.121 757.069 892.626 756.984 893.116C756.9 893.607 756.677 894.063 756.343 894.432C756.008 894.801 755.576 895.067 755.096 895.2C743.089 898.516 731.471 903.106 720.439 908.892L720.429 908.899L719.239 909.529C718.858 909.732 718.433 909.838 718.002 909.838C717.57 909.838 717.145 909.732 716.764 909.529C712.035 907.001 707.191 904.692 702.25 902.609V901.825C702.25 901.367 702.484 900.957 702.852 900.737C708.135 897.535 713.569 894.592 719.137 891.917C719.765 891.615 720.247 891.076 720.477 890.419C720.708 889.762 720.667 889.041 720.366 888.413C720.064 887.786 719.525 887.304 718.868 887.073C718.211 886.843 717.49 886.883 716.862 887.185C711.143 889.933 705.559 892.957 700.132 896.246C699.36 896.714 698.694 897.338 698.176 898.078C697.659 898.818 697.301 899.658 697.126 900.544C691.81 898.499 686.397 896.715 680.907 895.2C680.427 895.067 679.995 894.801 679.66 894.432C679.326 894.063 679.104 893.607 679.019 893.116C678.934 892.626 678.991 892.121 679.182 891.661C679.373 891.202 679.691 890.806 680.098 890.52C691.663 882.41 704.008 875.475 716.95 869.818Z" fill="black"/>
<path d="M721.71 914.156C730.307 909.563 739.283 905.719 748.541 902.669C749.01 907.618 749.311 912.619 749.433 917.666C749.446 918.194 749.299 918.714 749.012 919.157C748.725 919.601 748.31 919.947 747.823 920.151C737.902 924.295 728.402 929.384 719.456 935.348C719.024 935.635 718.518 935.789 718 935.789C717.481 935.789 716.975 935.635 716.544 935.348C707.598 929.384 698.1 924.295 688.18 920.151C687.692 919.947 687.277 919.601 686.989 919.158C686.701 918.715 686.554 918.195 686.566 917.666C686.689 912.619 686.99 907.621 687.459 902.665C690.673 903.724 693.855 904.88 697 906.13V910.575C696.243 911.011 695.608 911.628 695.15 912.371C694.693 913.114 694.427 913.96 694.379 914.831C694.33 915.703 694.499 916.573 694.872 917.362C695.244 918.152 695.807 918.836 696.51 919.353C696.195 920.683 695.733 921.989 695.12 923.238C696.702 923.984 698.274 924.757 699.831 925.552C700.709 923.765 701.357 921.874 701.76 919.924C702.645 919.53 703.404 918.899 703.953 918.101C704.501 917.303 704.819 916.369 704.87 915.401C704.92 914.434 704.702 913.471 704.24 912.62C703.778 911.769 703.089 911.062 702.25 910.579V908.321C706.338 910.108 710.355 912.056 714.29 914.159C715.431 914.769 716.705 915.088 718 915.088C719.294 915.088 720.568 914.769 721.71 914.159V914.156Z" fill="black"/>
<path d="M691.617 928.117C693.087 926.651 694.253 925.002 695.117 923.238C696.703 923.984 698.274 924.757 699.832 925.552C698.686 927.878 697.166 929.999 695.331 931.831C695.09 932.088 694.801 932.295 694.479 932.439C694.157 932.582 693.809 932.659 693.456 932.666C693.104 932.672 692.754 932.607 692.427 932.475C692.1 932.343 691.803 932.146 691.554 931.897C691.305 931.648 691.108 931.351 690.976 931.024C690.844 930.697 690.779 930.347 690.786 929.995C690.792 929.642 690.869 929.295 691.012 928.973C691.156 928.651 691.363 928.361 691.621 928.121L691.617 928.117Z" fill="black"/>
<circle cx="684" cy="408" r="73.5" fill="black" stroke="black" stroke-width="3"/>
<circle cx="680" cy="404" r="73.5" fill="#A4FFA7" stroke="black" stroke-width="3"/>
<path d="M678.95 371.818C679.281 371.673 679.638 371.598 680 371.598C680.361 371.598 680.719 371.673 681.05 371.818C693.993 377.475 706.339 384.41 717.905 392.52C718.312 392.806 718.63 393.202 718.821 393.661C719.013 394.121 719.069 394.626 718.984 395.116C718.9 395.607 718.677 396.063 718.343 396.432C718.008 396.801 717.576 397.067 717.096 397.2C705.089 400.516 693.471 405.106 682.439 410.892L682.429 410.899L681.239 411.529C680.858 411.732 680.433 411.838 680.002 411.838C679.57 411.838 679.145 411.732 678.764 411.529C674.035 409.001 669.191 406.692 664.25 404.609V403.825C664.25 403.367 664.484 402.957 664.852 402.737C670.135 399.535 675.569 396.592 681.137 393.917C681.765 393.615 682.247 393.076 682.477 392.419C682.708 391.762 682.667 391.041 682.366 390.413C682.064 389.786 681.525 389.304 680.868 389.073C680.211 388.843 679.49 388.883 678.862 389.185C673.143 391.933 667.559 394.957 662.132 398.246C661.36 398.714 660.694 399.338 660.176 400.078C659.659 400.818 659.301 401.658 659.126 402.544C653.81 400.499 648.397 398.715 642.907 397.2C642.427 397.067 641.995 396.801 641.66 396.432C641.326 396.063 641.104 395.607 641.019 395.116C640.934 394.626 640.991 394.121 641.182 393.661C641.373 393.202 641.691 392.806 642.098 392.52C653.663 384.41 666.008 377.475 678.95 371.818Z" fill="black"/>
<path d="M683.71 416.156C692.307 411.563 701.283 407.719 710.541 404.669C711.01 409.618 711.311 414.619 711.433 419.666C711.446 420.194 711.299 420.714 711.012 421.157C710.725 421.601 710.31 421.947 709.823 422.151C699.902 426.295 690.402 431.384 681.456 437.348C681.024 437.635 680.518 437.789 680 437.789C679.481 437.789 678.975 437.635 678.544 437.348C669.598 431.384 660.1 426.295 650.18 422.151C649.692 421.947 649.277 421.601 648.989 421.158C648.701 420.715 648.554 420.195 648.566 419.666C648.689 414.619 648.99 409.621 649.459 404.665C652.673 405.724 655.855 406.88 659 408.13V412.575C658.243 413.011 657.608 413.628 657.15 414.371C656.693 415.114 656.427 415.96 656.379 416.831C656.33 417.703 656.499 418.573 656.872 419.362C657.244 420.152 657.807 420.836 658.51 421.353C658.195 422.683 657.733 423.989 657.12 425.238C658.702 425.984 660.274 426.757 661.831 427.552C662.709 425.765 663.357 423.874 663.76 421.924C664.645 421.53 665.404 420.899 665.953 420.101C666.501 419.303 666.819 418.369 666.87 417.401C666.92 416.434 666.702 415.471 666.24 414.62C665.778 413.769 665.089 413.062 664.25 412.579V410.321C668.338 412.108 672.355 414.056 676.29 416.159C677.431 416.769 678.705 417.088 680 417.088C681.294 417.088 682.568 416.769 683.71 416.159V416.156Z" fill="black"/>
<path d="M653.617 430.117C655.087 428.651 656.253 427.002 657.117 425.238C658.703 425.984 660.274 426.757 661.832 427.552C660.686 429.878 659.166 431.999 657.331 433.831C657.09 434.088 656.801 434.295 656.479 434.439C656.157 434.582 655.809 434.659 655.456 434.666C655.104 434.672 654.754 434.607 654.427 434.475C654.1 434.343 653.803 434.146 653.554 433.897C653.305 433.648 653.108 433.351 652.976 433.024C652.844 432.697 652.779 432.347 652.786 431.995C652.792 431.642 652.869 431.295 653.012 430.973C653.156 430.651 653.363 430.361 653.621 430.121L653.617 430.117Z" fill="black"/>
<circle cx="409" cy="544" r="73.5" fill="black" stroke="black" stroke-width="3"/>
<circle cx="405" cy="540" r="73.5" fill="#A4FFA7" stroke="black" stroke-width="3"/>
<path d="M403.95 507.818C404.281 507.673 404.638 507.598 405 507.598C405.361 507.598 405.719 507.673 406.05 507.818C418.993 513.475 431.339 520.41 442.905 528.52C443.312 528.806 443.63 529.202 443.821 529.661C444.013 530.121 444.069 530.626 443.984 531.116C443.9 531.607 443.677 532.063 443.343 532.432C443.008 532.801 442.576 533.067 442.096 533.2C430.089 536.516 418.471 541.106 407.439 546.892L407.429 546.899L406.239 547.529C405.858 547.732 405.433 547.838 405.002 547.838C404.57 547.838 404.145 547.732 403.764 547.529C399.035 545.001 394.191 542.692 389.25 540.609V539.825C389.25 539.367 389.484 538.957 389.852 538.737C395.135 535.535 400.569 532.592 406.137 529.917C406.765 529.615 407.247 529.076 407.477 528.419C407.708 527.762 407.667 527.041 407.366 526.413C407.064 525.786 406.525 525.304 405.868 525.073C405.211 524.843 404.49 524.883 403.862 525.185C398.143 527.933 392.559 530.957 387.132 534.246C386.36 534.714 385.694 535.338 385.176 536.078C384.659 536.818 384.301 537.658 384.126 538.544C378.81 536.499 373.397 534.715 367.907 533.2C367.427 533.067 366.995 532.801 366.66 532.432C366.326 532.063 366.104 531.607 366.019 531.116C365.934 530.626 365.991 530.121 366.182 529.661C366.373 529.202 366.691 528.806 367.098 528.52C378.663 520.41 391.008 513.475 403.95 507.818Z" fill="black"/>
<path d="M408.71 552.156C417.307 547.563 426.283 543.719 435.541 540.669C436.01 545.618 436.311 550.619 436.433 555.666C436.446 556.194 436.299 556.714 436.012 557.157C435.725 557.601 435.31 557.947 434.823 558.151C424.902 562.295 415.402 567.384 406.456 573.348C406.024 573.635 405.518 573.789 405 573.789C404.481 573.789 403.975 573.635 403.544 573.348C394.598 567.384 385.1 562.295 375.18 558.151C374.692 557.947 374.277 557.601 373.989 557.158C373.701 556.715 373.554 556.195 373.566 555.666C373.689 550.619 373.99 545.621 374.459 540.665C377.673 541.724 380.855 542.88 384 544.13V548.575C383.243 549.011 382.608 549.628 382.15 550.371C381.693 551.114 381.427 551.96 381.379 552.831C381.33 553.703 381.499 554.573 381.872 555.362C382.244 556.152 382.807 556.836 383.51 557.353C383.195 558.683 382.733 559.989 382.12 561.238C383.702 561.984 385.274 562.757 386.831 563.552C387.709 561.765 388.357 559.874 388.76 557.924C389.645 557.53 390.404 556.899 390.953 556.101C391.501 555.303 391.819 554.369 391.87 553.401C391.92 552.434 391.702 551.471 391.24 550.62C390.778 549.769 390.089 549.062 389.25 548.579V546.321C393.338 548.108 397.355 550.056 401.29 552.159C402.431 552.769 403.705 553.088 405 553.088C406.294 553.088 407.568 552.769 408.71 552.159V552.156Z" fill="black"/>
<path d="M378.617 566.117C380.087 564.651 381.253 563.002 382.117 561.238C383.703 561.984 385.274 562.757 386.832 563.552C385.686 565.878 384.166 567.999 382.331 569.831C382.09 570.088 381.801 570.295 381.479 570.439C381.157 570.582 380.809 570.659 380.456 570.666C380.104 570.672 379.754 570.607 379.427 570.475C379.1 570.343 378.803 570.146 378.554 569.897C378.305 569.648 378.108 569.351 377.976 569.024C377.844 568.697 377.779 568.347 377.786 567.995C377.792 567.642 377.869 567.295 378.012 566.973C378.156 566.651 378.363 566.361 378.621 566.121L378.617 566.117Z" fill="black"/>
<circle cx="251" cy="79" r="73.5" fill="black" stroke="black" stroke-width="3"/>
<circle cx="247" cy="75" r="73.5" fill="#A4FFA7" stroke="black" stroke-width="3"/>
<path d="M245.95 42.8175C246.281 42.673 246.638 42.5984 247 42.5984C247.361 42.5984 247.719 42.673 248.05 42.8175C260.993 48.4749 273.339 55.4102 284.905 63.52C285.312 63.8059 285.63 64.2017 285.821 64.6614C286.013 65.121 286.069 65.6256 285.984 66.1161C285.9 66.6067 285.677 67.063 285.343 67.4319C285.008 67.8008 284.576 68.067 284.096 68.1995C272.089 71.5158 260.471 76.1059 249.439 81.8915L249.429 81.8985L248.239 82.5285C247.858 82.732 247.433 82.8384 247.002 82.8384C246.57 82.8384 246.145 82.732 245.764 82.5285C241.035 80.0009 236.191 77.692 231.25 75.609V74.825C231.25 74.3665 231.484 73.957 231.852 73.7365C237.135 70.5351 242.569 67.5917 248.137 64.9165C248.765 64.6149 249.247 64.0763 249.477 63.4192C249.708 62.7622 249.667 62.0405 249.366 61.413C249.064 60.7855 248.525 60.3036 247.868 60.0732C247.211 59.8428 246.49 59.8829 245.862 60.1845C240.143 62.9331 234.559 65.9571 229.132 69.246C228.36 69.7144 227.694 70.3385 227.176 71.0785C226.659 71.8185 226.301 72.6581 226.126 73.544C220.81 71.4986 215.397 69.715 209.907 68.1995C209.427 68.067 208.995 67.8008 208.66 67.4319C208.326 67.063 208.104 66.6067 208.019 66.1161C207.934 65.6256 207.991 65.121 208.182 64.6614C208.373 64.2017 208.691 63.8059 209.098 63.52C220.663 55.4104 233.008 48.4752 245.95 42.8175Z" fill="black"/>
<path d="M250.71 87.1555C259.307 82.5626 268.283 78.7193 277.541 75.6685C278.01 80.6175 278.311 85.619 278.433 90.666C278.446 91.1942 278.299 91.7139 278.012 92.1572C277.725 92.6006 277.31 92.9469 276.823 93.151C266.902 97.2949 257.402 102.384 248.456 108.348C248.024 108.635 247.518 108.789 247 108.789C246.481 108.789 245.975 108.635 245.544 108.348C236.598 102.384 227.1 97.2951 217.18 93.151C216.692 92.9475 216.277 92.6013 215.989 92.1579C215.701 91.7145 215.554 91.1946 215.566 90.666C215.689 85.619 215.99 80.621 216.459 75.665C219.673 76.7245 222.855 77.88 226 79.13V83.575C225.243 84.0107 224.608 84.6281 224.15 85.3713C223.693 86.1145 223.427 86.96 223.379 87.8314C223.33 88.7028 223.499 89.5726 223.872 90.3621C224.244 91.1516 224.807 91.8359 225.51 92.353C225.195 93.683 224.733 94.9885 224.12 96.238C225.702 96.9835 227.274 97.757 228.831 98.5515C229.709 96.7646 230.357 94.8735 230.76 92.9235C231.645 92.53 232.404 91.8993 232.953 91.1011C233.501 90.303 233.819 89.3686 233.87 88.4013C233.92 87.4339 233.702 86.4715 233.24 85.6203C232.778 84.7691 232.089 84.0625 231.25 83.5785V81.321C235.338 83.1082 239.355 85.0557 243.29 87.159C244.431 87.7687 245.705 88.0877 247 88.0877C248.294 88.0877 249.568 87.7687 250.71 87.159V87.1555Z" fill="black"/>
<path d="M220.617 101.117C222.087 99.6505 223.253 98.002 224.117 96.238C225.703 96.9835 227.274 97.757 228.832 98.5515C227.686 100.878 226.166 102.999 224.331 104.831C224.09 105.088 223.801 105.295 223.479 105.439C223.157 105.582 222.809 105.659 222.456 105.666C222.104 105.672 221.754 105.607 221.427 105.475C221.1 105.343 220.803 105.146 220.554 104.897C220.305 104.648 220.108 104.351 219.976 104.024C219.844 103.697 219.779 103.347 219.786 102.995C219.792 102.642 219.869 102.295 220.012 101.973C220.156 101.651 220.363 101.361 220.621 101.121L220.617 101.117Z" fill="black"/>
<path d="M972.929 188.177C973.58 187.664 973.691 186.721 973.178 186.071L964.814 175.473C964.301 174.823 963.358 174.712 962.708 175.225C962.057 175.738 961.946 176.681 962.459 177.332L969.893 186.752L960.473 194.186C959.823 194.699 959.712 195.642 960.225 196.292C960.738 196.943 961.681 197.054 962.332 196.541L972.929 188.177ZM657.824 151.49L971.824 188.49L972.176 185.51L658.176 148.51L657.824 151.49Z" fill="black"/>
<path d="M751.601 131.392C750.043 131.215 748.81 130.78 747.902 130.085C746.998 129.363 746.385 128.434 746.062 127.298C745.743 126.135 745.669 124.802 745.839 123.3L747.089 112.282L743.833 111.913C743.555 111.882 743.328 111.771 743.152 111.582C743.007 111.369 742.951 111.123 742.982 110.845L743.143 109.426C743.175 109.147 743.283 108.934 743.469 108.786C743.686 108.614 743.934 108.543 744.212 108.575L747.467 108.944L748.257 101.974C748.289 101.696 748.397 101.483 748.583 101.335C748.8 101.162 749.048 101.092 749.326 101.123L751.287 101.346C751.565 101.377 751.777 101.5 751.922 101.713C752.098 101.902 752.17 102.136 752.138 102.414L751.348 109.384L756.523 109.97C756.801 110.002 757.013 110.124 757.158 110.338C757.333 110.527 757.406 110.761 757.374 111.039L757.213 112.458C757.182 112.736 757.057 112.962 756.841 113.134C756.655 113.282 756.423 113.34 756.144 113.309L750.97 112.722L749.754 123.448C749.606 124.755 749.711 125.81 750.071 126.611C750.431 127.413 751.182 127.879 752.322 128.008L754.868 128.296C755.146 128.328 755.358 128.451 755.503 128.664C755.679 128.853 755.751 129.087 755.719 129.365L755.549 130.868C755.517 131.146 755.393 131.371 755.176 131.544C754.99 131.692 754.758 131.75 754.48 131.719L751.601 131.392ZM768.022 133.676C765.156 133.352 762.974 132.217 761.476 130.271C759.981 128.298 759.323 125.772 759.503 122.693C759.516 122.328 759.554 121.867 759.617 121.311C759.684 120.727 759.751 120.255 759.82 119.897C760.155 117.934 760.81 116.261 761.784 114.878C762.761 113.467 763.991 112.437 765.473 111.788C766.984 111.142 768.685 110.926 770.577 111.141C772.691 111.381 774.408 112.026 775.725 113.077C777.071 114.131 778.027 115.522 778.592 117.249C779.157 118.975 779.315 120.937 779.066 123.135L778.985 123.845C778.951 124.151 778.826 124.376 778.613 124.521C778.427 124.669 778.195 124.727 777.917 124.696L763.477 123.059C763.474 123.087 763.468 123.142 763.458 123.226C763.449 123.309 763.441 123.379 763.435 123.435C763.361 124.582 763.49 125.681 763.821 126.733C764.156 127.757 764.706 128.623 765.471 129.329C766.237 130.036 767.204 130.456 768.372 130.588C769.374 130.702 770.226 130.643 770.928 130.413C771.631 130.183 772.211 129.91 772.669 129.596C773.131 129.254 773.442 128.993 773.603 128.814C773.895 128.481 774.113 128.294 774.258 128.254C774.407 128.187 774.634 128.17 774.94 128.205L776.944 128.432C777.222 128.464 777.435 128.572 777.583 128.758C777.762 128.919 777.822 129.137 777.762 129.413C777.687 129.827 777.406 130.316 776.92 130.881C776.436 131.418 775.772 131.934 774.926 132.43C774.081 132.926 773.08 133.306 771.923 133.569C770.769 133.805 769.469 133.84 768.022 133.676ZM763.804 120.179L775.238 121.476L775.253 121.351C775.394 120.099 775.284 118.959 774.922 117.931C774.587 116.907 774.02 116.068 773.22 115.414C772.424 114.732 771.428 114.323 770.231 114.187C769.035 114.052 767.973 114.227 767.044 114.714C766.146 115.175 765.42 115.868 764.864 116.791C764.308 117.715 763.96 118.802 763.818 120.054L763.804 120.179ZM788.787 136.031C787.396 135.873 786.162 135.451 785.084 134.765C784.006 134.08 783.173 133.224 782.585 132.2C781.997 131.175 781.77 130.064 781.906 128.868C782.124 126.948 783.076 125.506 784.763 124.542C786.451 123.578 788.567 123.057 791.112 122.979L797.429 122.808L797.567 121.598C797.718 120.262 797.447 119.175 796.753 118.335C796.087 117.499 794.891 116.983 793.166 116.787C791.915 116.645 790.871 116.781 790.035 117.193C789.227 117.609 788.626 118.189 788.231 118.933C788.017 119.332 787.701 119.507 787.284 119.46L785.406 119.247C785.1 119.212 784.873 119.102 784.725 118.916C784.608 118.706 784.564 118.475 784.592 118.225C784.639 117.807 784.851 117.31 785.226 116.733C785.629 116.158 786.198 115.617 786.932 115.108C787.666 114.6 788.57 114.209 789.643 113.936C790.748 113.639 792.051 113.575 793.554 113.746C795.223 113.935 796.603 114.317 797.693 114.891C798.786 115.438 799.612 116.109 800.17 116.905C800.756 117.704 801.135 118.578 801.31 119.528C801.512 120.481 801.559 121.43 801.452 122.376L799.919 135.898C799.887 136.176 799.763 136.401 799.546 136.574C799.36 136.722 799.128 136.78 798.85 136.749L796.93 136.531C796.624 136.496 796.397 136.386 796.249 136.2C796.104 135.987 796.048 135.741 796.079 135.462L796.283 133.668C795.864 134.128 795.321 134.573 794.652 135.005C793.986 135.408 793.175 135.725 792.219 135.955C791.267 136.157 790.122 136.182 788.787 136.031ZM790.018 133C791.159 133.129 792.229 133.011 793.229 132.645C794.231 132.252 795.055 131.57 795.701 130.601C796.374 129.634 796.799 128.372 796.975 126.814L797.108 125.646L792.186 125.806C790.179 125.861 788.637 126.165 787.56 126.719C786.486 127.245 785.892 128.009 785.779 129.011C785.69 129.79 785.839 130.469 786.224 131.048C786.64 131.603 787.182 132.044 787.849 132.374C788.544 132.706 789.267 132.915 790.018 133ZM814.526 138.949C812.551 138.725 810.882 138.155 809.521 137.24C808.19 136.3 807.216 135.076 806.597 133.569C805.982 132.034 805.761 130.262 805.932 128.252C805.952 127.832 806.001 127.274 806.08 126.578C806.158 125.883 806.235 125.328 806.311 124.914C806.593 122.917 807.205 121.253 808.144 119.923C809.088 118.564 810.311 117.59 811.815 116.999C813.35 116.384 815.105 116.189 817.081 116.413C818.694 116.596 820.046 116.974 821.137 117.549C822.255 118.127 823.15 118.806 823.822 119.586C824.494 120.367 824.966 121.181 825.236 122.029C825.534 122.88 825.656 123.669 825.602 124.396C825.598 124.677 825.489 124.89 825.276 125.035C825.062 125.18 824.816 125.236 824.538 125.205L822.535 124.978C822.256 124.946 822.054 124.867 821.928 124.74C821.804 124.585 821.69 124.347 821.586 124.025C821.24 122.605 820.667 121.568 819.867 120.913C819.068 120.259 818.029 119.86 816.749 119.714C815.079 119.525 813.658 119.885 812.484 120.795C811.338 121.708 810.594 123.3 810.252 125.572C810.11 126.57 810 127.544 809.92 128.493C809.742 130.812 810.109 132.544 811.022 133.69C811.966 134.812 813.272 135.467 814.941 135.656C816.221 135.801 817.324 135.645 818.249 135.186C819.175 134.727 819.965 133.845 820.621 132.538C820.795 132.248 820.957 132.055 821.109 131.96C821.264 131.836 821.481 131.79 821.759 131.822L823.762 132.049C824.04 132.081 824.267 132.191 824.443 132.38C824.619 132.569 824.677 132.801 824.618 133.076C824.524 133.657 824.331 134.241 824.039 134.828C823.747 135.415 823.314 136 822.741 136.583C822.198 137.141 821.537 137.63 820.757 138.049C819.98 138.44 819.059 138.73 817.995 138.919C816.962 139.084 815.806 139.094 814.526 138.949ZM829.837 140.262C829.559 140.23 829.332 140.12 829.156 139.931C829.011 139.717 828.955 139.471 828.986 139.193L832.128 111.482C832.159 111.204 832.268 110.991 832.454 110.843C832.671 110.67 832.918 110.6 833.196 110.631L835.283 110.868C835.589 110.903 835.815 111.027 835.959 111.241C836.107 111.426 836.166 111.658 836.134 111.937L835.032 121.66C835.89 120.8 836.895 120.139 838.046 119.677C839.198 119.216 840.608 119.08 842.277 119.269C844.086 119.474 845.57 120.051 846.731 121C847.922 121.924 848.757 123.132 849.236 124.623C849.746 126.09 849.896 127.756 849.684 129.62L848.35 141.388C848.319 141.666 848.208 141.893 848.019 142.069C847.834 142.217 847.588 142.274 847.282 142.239L845.195 142.003C844.917 141.971 844.69 141.861 844.514 141.672C844.369 141.458 844.312 141.212 844.344 140.934L845.654 129.374C845.875 127.427 845.574 125.857 844.751 124.664C843.931 123.444 842.603 122.73 840.767 122.522C839.042 122.326 837.588 122.725 836.405 123.718C835.224 124.683 834.524 126.14 834.303 128.087L832.993 139.647C832.961 139.925 832.851 140.152 832.662 140.328C832.476 140.476 832.23 140.533 831.924 140.498L829.837 140.262ZM862.858 144.428C859.992 144.103 857.81 142.968 856.312 141.023C854.817 139.05 854.159 136.524 854.339 133.444C854.352 133.079 854.39 132.619 854.453 132.062C854.52 131.478 854.587 131.007 854.656 130.648C854.991 128.685 855.646 127.013 856.62 125.629C857.597 124.219 858.827 123.189 860.309 122.539C861.82 121.893 863.521 121.678 865.413 121.892C867.527 122.132 869.243 122.777 870.561 123.828C871.907 124.883 872.863 126.273 873.428 128C873.993 129.727 874.151 131.689 873.902 133.887L873.821 134.596C873.786 134.902 873.662 135.128 873.449 135.273C873.263 135.421 873.031 135.479 872.753 135.447L858.313 133.81C858.31 133.838 858.304 133.894 858.294 133.977C858.285 134.061 858.277 134.13 858.27 134.186C858.197 135.333 858.326 136.432 858.657 137.484C858.992 138.509 859.542 139.374 860.307 140.081C861.073 140.788 862.039 141.207 863.208 141.34C864.21 141.453 865.062 141.395 865.764 141.164C866.466 140.934 867.047 140.662 867.505 140.347C867.967 140.005 868.278 139.745 868.439 139.566C868.731 139.232 868.949 139.046 869.094 139.006C869.243 138.938 869.47 138.922 869.776 138.956L871.779 139.183C872.058 139.215 872.271 139.324 872.419 139.509C872.598 139.671 872.658 139.889 872.598 140.164C872.523 140.578 872.242 141.067 871.755 141.632C871.272 142.169 870.607 142.686 869.762 143.182C868.917 143.678 867.916 144.057 866.759 144.321C865.605 144.556 864.305 144.592 862.858 144.428ZM858.639 130.931L870.074 132.227L870.088 132.102C870.23 130.85 870.12 129.71 869.757 128.683C869.423 127.659 868.856 126.819 868.056 126.165C867.26 125.483 866.264 125.074 865.067 124.939C863.871 124.803 862.808 124.978 861.88 125.465C860.982 125.927 860.255 126.619 859.7 127.543C859.144 128.466 858.796 129.554 858.654 130.805L858.639 130.931ZM885.083 146.947C883.525 146.771 882.212 146.425 881.143 145.909C880.075 145.393 879.224 144.818 878.592 144.183C877.959 143.547 877.494 142.931 877.195 142.333C876.924 141.739 876.794 141.274 876.804 140.937C876.811 140.627 876.935 140.402 877.176 140.26C877.418 140.118 877.65 140.06 877.873 140.085L879.709 140.294C879.876 140.313 879.998 140.355 880.075 140.42C880.183 140.46 880.31 140.587 880.454 140.801C880.772 141.231 881.131 141.667 881.532 142.107C881.933 142.547 882.439 142.928 883.051 143.251C883.69 143.577 884.497 143.795 885.471 143.906C886.889 144.067 888.088 143.935 889.066 143.51C890.047 143.058 890.598 142.303 890.718 141.246C890.796 140.55 890.665 139.972 890.323 139.51C890.008 139.052 889.383 138.601 888.447 138.156C887.539 137.715 886.271 137.219 884.643 136.668C883.017 136.09 881.75 135.467 880.839 134.8C879.931 134.105 879.313 133.345 878.984 132.519C878.658 131.664 878.552 130.737 878.666 129.735C878.782 128.706 879.2 127.753 879.92 126.876C880.642 125.972 881.622 125.28 882.86 124.8C884.126 124.324 885.649 124.186 887.43 124.388C888.876 124.552 890.094 124.873 891.082 125.352C892.071 125.83 892.867 126.385 893.472 127.018C894.08 127.622 894.521 128.207 894.794 128.774C895.068 129.34 895.199 129.806 895.186 130.171C895.182 130.452 895.072 130.679 894.855 130.852C894.641 130.997 894.409 131.055 894.159 131.026L892.406 130.828C892.211 130.806 892.049 130.745 891.919 130.646C891.817 130.55 891.717 130.44 891.619 130.316C891.381 129.923 891.088 129.523 890.74 129.117C890.419 128.714 889.966 128.367 889.379 128.075C888.823 127.759 888.058 127.545 887.084 127.435C885.693 127.277 884.617 127.451 883.855 127.956C883.093 128.462 882.662 129.159 882.561 130.05C882.501 130.578 882.6 131.069 882.859 131.521C883.118 131.973 883.659 132.415 884.484 132.846C885.309 133.278 886.548 133.785 888.201 134.366C889.996 134.936 891.387 135.587 892.375 136.319C893.363 137.051 894.034 137.846 894.387 138.703C894.741 139.56 894.858 140.518 894.738 141.575C894.606 142.743 894.136 143.775 893.331 144.67C892.552 145.568 891.463 146.233 890.061 146.666C888.69 147.075 887.031 147.168 885.083 146.947Z" fill="black"/>
<path d="M551.898 577.976C550.435 577.411 549.352 576.677 548.65 575.776C547.958 574.848 547.6 573.794 547.575 572.614C547.561 571.408 547.826 570.099 548.371 568.689L552.366 558.346L549.31 557.165C549.049 557.065 548.857 556.9 548.735 556.673C548.649 556.43 548.656 556.177 548.757 555.916L549.272 554.584C549.372 554.323 549.531 554.144 549.749 554.048C550.002 553.936 550.26 553.93 550.521 554.031L553.577 555.212L556.104 548.669C556.205 548.407 556.364 548.229 556.581 548.133C556.835 548.02 557.092 548.015 557.353 548.116L559.195 548.827C559.456 548.928 559.629 549.1 559.715 549.343C559.838 549.571 559.848 549.815 559.748 550.076L557.22 556.619L562.078 558.495C562.34 558.596 562.513 558.768 562.599 559.012C562.722 559.239 562.732 559.483 562.632 559.745L562.117 561.077C562.016 561.338 561.839 561.525 561.585 561.637C561.368 561.733 561.129 561.731 560.868 561.63L556.01 559.753L552.12 569.822C551.646 571.05 551.482 572.097 551.627 572.964C551.773 573.83 552.381 574.47 553.452 574.884L555.842 575.807C556.103 575.908 556.277 576.08 556.363 576.323C556.485 576.551 556.496 576.795 556.395 577.056L555.85 578.467C555.749 578.728 555.572 578.915 555.319 579.027C555.101 579.123 554.862 579.121 554.601 579.02L551.898 577.976ZM567.207 584.339C564.517 583.3 562.693 581.65 561.735 579.389C560.788 577.102 560.79 574.492 561.743 571.558C561.849 571.209 562.002 570.773 562.204 570.25C562.416 569.702 562.6 569.263 562.757 568.933C563.578 567.119 564.635 565.666 565.927 564.574C567.229 563.457 568.68 562.771 570.278 562.518C571.903 562.275 573.603 562.497 575.379 563.183C577.364 563.95 578.861 565.008 579.871 566.358C580.906 567.719 581.479 569.306 581.589 571.119C581.699 572.933 581.355 574.871 580.558 576.935L580.301 577.601C580.19 577.888 580.013 578.075 579.769 578.161C579.552 578.257 579.313 578.255 579.052 578.154L565.496 572.917C565.486 572.944 565.465 572.996 565.435 573.074C565.405 573.153 565.38 573.218 565.36 573.27C564.998 574.361 564.845 575.458 564.899 576.559C564.964 577.635 565.277 578.611 565.839 579.489C566.401 580.366 567.23 581.016 568.327 581.44C569.267 581.803 570.106 581.962 570.844 581.917C571.582 581.872 572.212 581.755 572.735 581.567C573.268 581.353 573.636 581.179 573.837 581.047C574.203 580.798 574.462 580.673 574.612 580.671C574.773 580.643 574.997 580.685 575.285 580.796L577.165 581.522C577.426 581.623 577.605 581.782 577.701 581.999C577.834 582.201 577.836 582.427 577.709 582.678C577.532 583.06 577.136 583.462 576.522 583.885C575.919 584.283 575.145 584.614 574.202 584.88C573.259 585.146 572.194 585.26 571.008 585.222C569.832 585.158 568.565 584.864 567.207 584.339ZM566.54 570.214L577.275 574.361L577.32 574.243C577.774 573.068 577.956 571.937 577.865 570.852C577.8 569.776 577.464 568.821 576.856 567.985C576.258 567.124 575.398 566.477 574.274 566.043C573.151 565.609 572.079 565.51 571.057 565.746C570.072 565.965 569.194 566.452 568.423 567.204C567.652 567.957 567.039 568.921 566.585 570.097L566.54 570.214ZM586.701 591.869C585.395 591.365 584.308 590.645 583.439 589.709C582.57 588.773 581.98 587.734 581.67 586.594C581.36 585.454 581.422 584.322 581.856 583.199C582.552 581.397 583.838 580.243 585.715 579.737C587.591 579.231 589.77 579.262 592.252 579.831L598.407 581.263L598.846 580.127C599.331 578.873 599.343 577.752 598.884 576.764C598.451 575.787 597.425 574.985 595.806 574.36C594.631 573.906 593.586 573.773 592.674 573.96C591.787 574.158 591.058 574.567 590.489 575.187C590.181 575.519 589.831 575.609 589.439 575.457L587.676 574.776C587.388 574.665 587.197 574.501 587.101 574.284C587.041 574.051 587.056 573.816 587.147 573.581C587.298 573.19 587.628 572.762 588.138 572.298C588.673 571.845 589.36 571.465 590.199 571.158C591.038 570.852 592.011 570.703 593.118 570.71C594.262 570.702 595.539 570.97 596.95 571.515C598.517 572.12 599.755 572.839 600.665 573.67C601.584 574.476 602.213 575.334 602.552 576.245C602.916 577.166 603.063 578.108 602.991 579.071C602.945 580.044 602.751 580.975 602.408 581.863L597.505 594.556C597.404 594.818 597.227 595.004 596.973 595.117C596.756 595.213 596.517 595.21 596.256 595.11L594.453 594.413C594.166 594.302 593.974 594.138 593.878 593.921C593.792 593.678 593.799 593.425 593.9 593.164L594.551 591.48C594.03 591.819 593.391 592.112 592.635 592.36C591.889 592.582 591.024 592.684 590.041 592.664C589.068 592.619 587.955 592.354 586.701 591.869ZM588.659 589.249C589.73 589.662 590.795 589.819 591.855 589.718C592.924 589.591 593.894 589.14 594.764 588.365C595.659 587.6 596.39 586.487 596.955 585.024L597.378 583.927L592.576 582.837C590.621 582.382 589.052 582.287 587.87 582.55C586.697 582.788 585.93 583.377 585.566 584.317C585.284 585.048 585.256 585.743 585.482 586.401C585.744 587.042 586.157 587.607 586.719 588.094C587.307 588.591 587.954 588.976 588.659 589.249ZM610.865 601.203C609.011 600.487 607.541 599.514 606.455 598.284C605.405 597.038 604.772 595.608 604.555 593.993C604.349 592.352 604.582 590.582 605.256 588.681C605.382 588.279 605.57 587.752 605.823 587.099C606.075 586.446 606.29 585.928 606.467 585.547C607.246 583.686 608.258 582.231 609.504 581.182C610.76 580.106 612.19 579.473 613.795 579.282C615.435 579.075 617.183 579.33 619.037 580.046C620.552 580.632 621.764 581.34 622.674 582.171C623.609 583.013 624.304 583.897 624.757 584.822C625.21 585.747 625.46 586.654 625.507 587.543C625.58 588.442 625.498 589.236 625.262 589.925C625.187 590.196 625.028 590.375 624.785 590.461C624.541 590.547 624.289 590.54 624.028 590.439L622.147 589.712C621.886 589.611 621.71 589.483 621.62 589.329C621.54 589.148 621.49 588.888 621.471 588.55C621.495 587.089 621.203 585.941 620.595 585.105C619.987 584.27 619.082 583.621 617.881 583.157C616.314 582.551 614.847 582.54 613.481 583.123C612.142 583.716 611.019 585.069 610.113 587.18C609.724 588.11 609.371 589.025 609.054 589.923C608.295 592.121 608.212 593.89 608.805 595.229C609.435 596.553 610.533 597.518 612.1 598.123C613.301 598.587 614.408 598.714 615.419 598.505C616.431 598.295 617.419 597.641 618.383 596.543C618.625 596.306 618.831 596.161 619.002 596.107C619.183 596.026 619.404 596.037 619.665 596.138L621.546 596.864C621.807 596.965 621.999 597.129 622.121 597.356C622.244 597.584 622.241 597.823 622.114 598.074C621.876 598.612 621.542 599.129 621.111 599.623C620.68 600.116 620.113 600.573 619.411 600.992C618.745 601.395 617.982 601.701 617.121 601.909C616.271 602.09 615.307 602.138 614.229 602.052C613.188 601.95 612.067 601.667 610.865 601.203ZM625.347 606.346C625.085 606.245 624.894 606.081 624.771 605.854C624.685 605.611 624.693 605.358 624.793 605.097L634.842 579.082C634.943 578.821 635.102 578.643 635.319 578.546C635.573 578.434 635.83 578.428 636.091 578.529L638.05 579.286C638.337 579.397 638.524 579.574 638.61 579.818C638.706 580.035 638.704 580.274 638.603 580.535L635.077 589.664C636.125 589.048 637.265 588.663 638.495 588.508C639.726 588.353 641.125 588.578 642.692 589.183C644.39 589.839 645.68 590.773 646.563 591.984C647.482 593.18 647.984 594.559 648.07 596.123C648.193 597.672 647.916 599.321 647.24 601.071L642.972 612.119C642.872 612.38 642.707 612.572 642.48 612.694C642.263 612.79 642.011 612.783 641.723 612.672L639.764 611.915C639.503 611.815 639.311 611.65 639.189 611.423C639.103 611.18 639.11 610.927 639.211 610.666L643.403 599.814C644.109 597.985 644.215 596.39 643.721 595.029C643.236 593.641 642.132 592.614 640.408 591.948C638.789 591.323 637.281 591.341 635.885 592.002C634.499 592.637 633.453 593.869 632.747 595.697L628.555 606.55C628.454 606.811 628.29 607.003 628.062 607.125C627.845 607.221 627.593 607.214 627.305 607.103L625.347 606.346ZM656.24 618.729C653.549 617.69 651.725 616.04 650.768 613.779C649.82 611.492 649.823 608.882 650.776 605.948C650.881 605.599 651.034 605.163 651.236 604.64C651.448 604.092 651.632 603.653 651.79 603.323C652.611 601.509 653.667 600.056 654.959 598.964C656.261 597.847 657.712 597.161 659.31 596.908C660.935 596.665 662.635 596.887 664.412 597.573C666.397 598.34 667.894 599.398 668.903 600.749C669.938 602.109 670.511 603.696 670.621 605.509C670.731 607.323 670.387 609.261 669.59 611.325L669.333 611.991C669.222 612.278 669.045 612.465 668.802 612.551C668.584 612.647 668.345 612.645 668.084 612.544L654.528 607.308C654.518 607.334 654.498 607.386 654.468 607.464C654.437 607.543 654.412 607.608 654.392 607.66C654.03 608.751 653.877 609.848 653.932 610.949C653.997 612.025 654.31 613.001 654.871 613.879C655.433 614.756 656.262 615.406 657.359 615.83C658.3 616.193 659.139 616.352 659.877 616.307C660.614 616.262 661.245 616.145 661.768 615.957C662.301 615.743 662.668 615.569 662.869 615.437C663.235 615.188 663.494 615.063 663.645 615.061C663.805 615.033 664.03 615.075 664.317 615.186L666.197 615.912C666.459 616.013 666.637 616.172 666.734 616.389C666.866 616.591 666.869 616.817 666.742 617.068C666.564 617.45 666.169 617.852 665.555 618.275C664.951 618.673 664.178 619.004 663.235 619.27C662.291 619.536 661.227 619.65 660.041 619.612C658.865 619.548 657.598 619.254 656.24 618.729ZM655.572 604.604L666.307 608.751L666.353 608.633C666.807 607.458 666.988 606.327 666.897 605.242C666.833 604.166 666.496 603.211 665.888 602.376C665.29 601.514 664.43 600.867 663.307 600.433C662.184 599.999 661.111 599.9 660.09 600.136C659.104 600.356 658.226 600.842 657.455 601.595C656.684 602.347 656.072 603.311 655.618 604.487L655.572 604.604ZM677.105 626.789C675.642 626.224 674.459 625.557 673.556 624.788C672.652 624.019 671.975 623.247 671.524 622.472C671.072 621.697 670.778 620.983 670.64 620.33C670.528 619.686 670.52 619.203 670.615 618.879C670.7 618.582 670.877 618.395 671.147 618.319C671.416 618.243 671.655 618.246 671.864 618.326L673.588 618.992C673.745 619.053 673.852 619.124 673.91 619.207C674.005 619.273 674.095 619.428 674.181 619.671C674.379 620.168 674.617 620.68 674.894 621.207C675.17 621.734 675.564 622.232 676.074 622.699C676.61 623.176 677.335 623.591 678.249 623.944C679.581 624.459 680.774 624.634 681.827 624.471C682.891 624.281 683.615 623.69 683.998 622.698C684.25 622.045 684.269 621.452 684.055 620.919C683.867 620.396 683.376 619.801 682.583 619.135C681.816 618.478 680.714 617.678 679.278 616.733C677.853 615.762 676.783 614.838 676.071 613.963C675.369 613.061 674.963 612.169 674.854 611.287C674.754 610.378 674.886 609.453 675.25 608.513C675.623 607.546 676.268 606.73 677.186 606.064C678.114 605.372 679.237 604.95 680.556 604.799C681.901 604.659 683.409 604.911 685.081 605.557C686.439 606.081 687.536 606.7 688.371 607.413C689.207 608.126 689.837 608.865 690.262 609.629C690.697 610.367 690.975 611.045 691.097 611.663C691.219 612.28 691.227 612.763 691.122 613.113C691.047 613.384 690.883 613.576 690.63 613.688C690.387 613.774 690.147 613.772 689.912 613.681L688.267 613.046C688.084 612.975 687.942 612.875 687.842 612.747C687.768 612.628 687.699 612.496 687.634 612.351C687.504 611.911 687.322 611.45 687.088 610.969C686.879 610.499 686.528 610.048 686.034 609.617C685.576 609.17 684.891 608.77 683.976 608.417C682.67 607.912 681.585 607.808 680.72 608.105C679.855 608.401 679.261 608.967 678.939 609.803C678.747 610.299 678.719 610.799 678.855 611.301C678.991 611.804 679.403 612.369 680.092 612.995C680.781 613.621 681.851 614.425 683.303 615.406C684.896 616.411 686.077 617.393 686.848 618.351C687.618 619.309 688.066 620.247 688.192 621.166C688.317 622.085 688.188 623.041 687.805 624.033C687.381 625.13 686.666 626.01 685.66 626.672C684.68 627.344 683.457 627.712 681.992 627.776C680.562 627.824 678.933 627.495 677.105 626.789Z" fill="black"/>
<path d="M1026.46 275.638C1026.26 274.834 1025.44 274.344 1024.64 274.544L1011.54 277.799C1010.73 277.999 1010.24 278.813 1010.44 279.617C1010.64 280.421 1011.46 280.91 1012.26 280.711L1023.91 277.817L1026.8 289.463C1027 290.267 1027.81 290.757 1028.62 290.557C1029.42 290.358 1029.91 289.544 1029.71 288.74L1026.46 275.638ZM846.285 575.774L1026.29 276.774L1023.71 275.226L843.715 574.226L846.285 575.774Z" fill="black"/>
<path d="M839.989 532.891C839.799 533.201 839.582 533.397 839.336 533.476C839.067 533.541 838.752 533.546 838.393 533.491L818.652 528.425C818.503 528.4 818.369 528.351 818.25 528.278C818.035 528.147 817.899 527.966 817.843 527.735C817.802 527.48 817.84 527.257 817.957 527.066L818.92 525.489C819.08 525.226 819.276 525.066 819.507 525.011C819.738 524.955 819.927 524.939 820.076 524.965L836.02 529.237L825.253 516.807C825.115 516.657 825.006 516.46 824.927 516.214C824.861 515.945 824.924 515.655 825.113 515.344L825.858 514.125C826.047 513.815 826.277 513.627 826.546 513.562C826.816 513.496 827.041 513.503 827.223 513.581L843.198 517.479L832.114 505.249C832.009 505.152 831.928 504.988 831.873 504.757C831.817 504.526 831.869 504.279 832.03 504.017L832.993 502.439C833.124 502.224 833.305 502.089 833.536 502.033C833.767 501.977 833.99 502.015 834.205 502.146C834.324 502.219 834.429 502.316 834.52 502.437L848.045 517.682C848.288 517.929 848.434 518.199 848.485 518.492C848.526 518.747 848.445 519.042 848.24 519.377L847.387 520.775C847.197 521.085 846.965 521.304 846.69 521.432C846.406 521.521 846.099 521.514 845.768 521.41L830.396 517.733L840.691 529.727C840.919 529.997 841.059 530.279 841.109 530.573C841.136 530.851 841.047 531.158 840.843 531.493L839.989 532.891ZM857.728 504.643C856.998 505.838 856.096 506.78 855.019 507.468C853.943 508.156 852.816 508.55 851.639 508.652C850.462 508.753 849.359 508.49 848.332 507.863C846.683 506.856 845.777 505.384 845.614 503.448C845.452 501.511 845.871 499.373 846.874 497.032L849.382 491.231L848.343 490.597C847.196 489.896 846.095 489.684 845.041 489.959C844.002 490.21 843.03 491.077 842.126 492.558C841.469 493.634 841.152 494.637 841.173 495.569C841.209 496.477 841.482 497.267 841.99 497.938C842.261 498.3 842.287 498.661 842.069 499.019L841.084 500.632C840.923 500.895 840.727 501.054 840.497 501.11C840.256 501.128 840.029 501.071 839.814 500.939C839.455 500.721 839.093 500.319 838.728 499.735C838.377 499.127 838.126 498.384 837.974 497.504C837.823 496.624 837.85 495.639 838.055 494.551C838.251 493.424 838.743 492.215 839.531 490.925C840.406 489.491 841.334 488.401 842.315 487.654C843.272 486.894 844.228 486.428 845.185 486.258C846.157 486.063 847.11 486.088 848.044 486.33C848.994 486.549 849.874 486.906 850.687 487.402L862.301 494.494C862.54 494.639 862.692 494.847 862.757 495.117C862.813 495.347 862.768 495.582 862.622 495.821L861.615 497.47C861.455 497.733 861.259 497.893 861.028 497.948C860.774 497.99 860.527 497.937 860.288 497.791L858.746 496.85C858.987 497.424 859.162 498.104 859.271 498.893C859.356 499.667 859.301 500.535 859.106 501.499C858.888 502.448 858.428 503.496 857.728 504.643ZM855.499 502.249C856.097 501.269 856.441 500.249 856.531 499.189C856.597 498.113 856.327 497.079 855.72 496.085C855.127 495.067 854.162 494.15 852.824 493.333L851.82 492.72L849.89 497.25C849.093 499.093 848.719 500.619 848.767 501.83C848.792 503.026 849.234 503.886 850.094 504.412C850.764 504.82 851.442 504.972 852.129 504.867C852.808 504.723 853.437 504.418 854.016 503.952C854.611 503.462 855.105 502.894 855.499 502.249ZM866.775 489.019C866.63 489.258 866.434 489.418 866.188 489.497C865.933 489.539 865.687 489.486 865.448 489.34L848.456 478.966C848.217 478.82 848.07 478.632 848.014 478.401C847.949 478.131 847.989 477.877 848.135 477.638L849.164 475.953C849.31 475.714 849.51 475.574 849.765 475.533C850.01 475.453 850.253 475.486 850.492 475.632L852.069 476.595C851.636 475.478 851.453 474.3 851.52 473.062C851.578 471.785 852.059 470.405 852.964 468.924C853.912 467.37 855.061 466.268 856.411 465.615C857.751 464.925 859.199 464.676 860.753 464.871C862.283 465.051 863.849 465.63 865.45 466.607L875.559 472.779C875.798 472.925 875.957 473.121 876.037 473.366C876.093 473.597 876.048 473.832 875.902 474.071L874.808 475.863C874.662 476.102 874.466 476.262 874.221 476.342C873.966 476.383 873.719 476.33 873.48 476.185L863.55 470.122C861.878 469.101 860.327 468.712 858.899 468.955C857.447 469.184 856.239 470.087 855.276 471.664C854.372 473.146 854.12 474.633 854.522 476.124C854.914 477.578 855.946 478.815 857.619 479.836L867.549 485.899C867.788 486.045 867.94 486.253 868.005 486.522C868.061 486.753 868.016 486.988 867.87 487.227L866.775 489.019ZM883.838 461.073C883.021 462.411 882.106 463.345 881.094 463.875C880.058 464.391 878.957 464.555 877.791 464.368C876.602 464.167 875.362 463.673 874.071 462.885L864.608 457.107L862.901 459.903C862.755 460.142 862.559 460.301 862.314 460.381C862.059 460.422 861.812 460.37 861.573 460.224L860.354 459.48C860.115 459.334 859.968 459.145 859.912 458.914C859.847 458.645 859.887 458.391 860.033 458.152L861.74 455.356L855.754 451.701C855.515 451.555 855.367 451.366 855.311 451.135C855.246 450.866 855.287 450.612 855.433 450.373L856.461 448.688C856.607 448.449 856.808 448.309 857.062 448.268C857.308 448.188 857.55 448.221 857.789 448.367L863.776 452.022L866.489 447.577C866.635 447.338 866.836 447.198 867.091 447.157C867.336 447.077 867.578 447.11 867.817 447.256L869.036 448C869.275 448.146 869.427 448.354 869.492 448.623C869.548 448.854 869.503 449.089 869.357 449.328L866.643 453.773L875.856 459.398C876.979 460.083 877.98 460.432 878.859 460.444C879.737 460.455 880.476 459.971 881.074 458.991L882.409 456.805C882.555 456.566 882.755 456.426 883.01 456.384C883.256 456.305 883.498 456.338 883.737 456.484L885.027 457.272C885.266 457.417 885.419 457.625 885.484 457.895C885.54 458.126 885.494 458.36 885.349 458.599L883.838 461.073ZM892.243 448.114C891.426 449.452 890.558 450.497 889.64 451.248C888.722 452 887.841 452.529 886.999 452.834C886.156 453.14 885.401 453.302 884.733 453.321C884.08 453.316 883.603 453.238 883.301 453.087C883.024 452.95 882.872 452.742 882.845 452.464C882.819 452.185 882.864 451.95 882.98 451.759L883.943 450.182C884.031 450.038 884.12 449.945 884.212 449.903C884.294 449.822 884.463 449.761 884.718 449.719C885.242 449.613 885.788 449.471 886.356 449.293C886.924 449.115 887.483 448.816 888.034 448.398C888.599 447.956 889.137 447.316 889.648 446.48C890.392 445.261 890.778 444.119 890.805 443.053C890.809 441.973 890.357 441.155 889.449 440.601C888.851 440.236 888.271 440.111 887.708 440.227C887.16 440.319 886.487 440.695 885.69 441.357C884.907 441.994 883.922 442.935 882.736 444.179C881.526 445.409 880.427 446.296 879.438 446.841C878.426 447.371 877.476 447.61 876.588 447.56C875.676 447.496 874.79 447.201 873.929 446.675C873.045 446.136 872.357 445.355 871.866 444.333C871.35 443.296 871.136 442.116 871.223 440.791C871.325 439.443 871.842 438.004 872.776 436.474C873.535 435.231 874.34 434.263 875.19 433.568C876.041 432.874 876.88 432.386 877.708 432.104C878.512 431.808 879.229 431.655 879.858 431.645C880.487 431.636 880.965 431.714 881.29 431.879C881.544 432.001 881.703 432.197 881.768 432.467C881.809 432.721 881.764 432.956 881.633 433.171L880.714 434.677C880.612 434.844 880.488 434.966 880.343 435.042C880.213 435.093 880.071 435.138 879.917 435.175C879.461 435.224 878.975 435.321 878.46 435.466C877.96 435.587 877.454 435.852 876.941 436.261C876.42 436.632 875.904 437.235 875.393 438.072C874.664 439.267 874.367 440.316 874.504 441.22C874.641 442.124 875.092 442.809 875.857 443.276C876.311 443.553 876.798 443.67 877.317 443.626C877.836 443.582 878.465 443.277 879.204 442.711C879.943 442.146 880.925 441.236 882.149 439.982C883.423 438.595 884.6 437.608 885.68 437.02C886.76 436.433 887.764 436.16 888.69 436.201C889.617 436.242 890.534 436.539 891.442 437.094C892.446 437.707 893.183 438.567 893.655 439.675C894.141 440.759 894.285 442.028 894.087 443.482C893.879 444.897 893.264 446.441 892.243 448.114ZM908.439 420.78C907.622 422.119 906.707 423.053 905.695 423.583C904.659 424.098 903.558 424.263 902.392 424.076C901.203 423.875 899.963 423.38 898.672 422.592L889.209 416.814L887.502 419.61C887.356 419.849 887.16 420.008 886.915 420.088C886.66 420.129 886.413 420.077 886.174 419.931L884.955 419.187C884.716 419.041 884.569 418.853 884.513 418.622C884.448 418.352 884.488 418.098 884.634 417.859L886.341 415.063L880.355 411.408C880.116 411.262 879.968 411.074 879.912 410.843C879.847 410.573 879.888 410.319 880.034 410.08L881.062 408.395C881.208 408.157 881.409 408.016 881.663 407.975C881.909 407.895 882.151 407.928 882.39 408.074L888.377 411.729L891.09 407.284C891.236 407.046 891.437 406.905 891.692 406.864C891.937 406.784 892.179 406.817 892.418 406.963L893.637 407.708C893.876 407.853 894.028 408.061 894.093 408.331C894.149 408.561 894.104 408.796 893.958 409.035L891.244 413.48L900.457 419.105C901.58 419.791 902.581 420.14 903.46 420.151C904.338 420.163 905.077 419.679 905.675 418.699L907.01 416.512C907.156 416.273 907.356 416.133 907.611 416.092C907.857 416.012 908.099 416.045 908.338 416.191L909.628 416.979C909.867 417.125 910.02 417.333 910.085 417.602C910.141 417.833 910.095 418.068 909.95 418.307L908.439 420.78ZM917.566 406.638C916.457 408.454 915.184 409.76 913.747 410.556C912.31 411.352 910.785 411.7 909.172 411.601C907.536 411.488 905.907 410.985 904.286 410.094C903.865 409.87 903.344 409.568 902.722 409.189C902.077 408.795 901.571 408.469 901.203 408.212C899.645 407.162 898.454 405.943 897.63 404.554C896.819 403.14 896.44 401.613 896.491 399.971C896.542 398.329 897.115 396.612 898.209 394.82C899.303 393.027 900.569 391.733 902.006 390.938C903.443 390.142 904.968 389.794 906.581 389.892C908.208 389.967 909.845 390.458 911.49 391.364C911.886 391.573 912.408 391.875 913.053 392.269C913.674 392.648 914.181 392.974 914.572 393.246C916.106 394.281 917.297 395.5 918.146 396.904C918.97 398.293 919.357 399.809 919.306 401.451C919.255 403.093 918.675 404.822 917.566 406.638ZM914.806 404.953C915.711 403.471 915.967 402.004 915.575 400.551C915.159 399.083 914.064 397.759 912.292 396.578C911.948 396.335 911.501 396.046 910.952 395.71C910.402 395.375 909.941 395.109 909.568 394.915C907.708 393.877 906.042 393.516 904.57 393.831C903.074 394.132 901.874 395.023 900.969 396.505C900.065 397.986 899.813 399.473 900.214 400.965C900.607 402.418 901.696 403.723 903.483 404.88C903.827 405.123 904.274 405.412 904.823 405.747C905.373 406.083 905.834 406.348 906.208 406.543C908.053 407.604 909.724 407.985 911.219 407.684C912.706 407.345 913.901 406.435 914.806 404.953ZM931.004 383.824C930.858 384.063 930.662 384.222 930.416 384.302C930.162 384.343 929.915 384.291 929.676 384.145L905.874 369.612C905.635 369.466 905.487 369.278 905.431 369.047C905.366 368.778 905.407 368.524 905.553 368.285L906.581 366.6C906.742 366.337 906.949 366.185 907.204 366.144C907.435 366.088 907.67 366.133 907.909 366.279L931.711 380.811C931.95 380.957 932.11 381.153 932.189 381.399C932.245 381.629 932.193 381.876 932.032 382.139L931.004 383.824ZM940.689 368.766C939.186 371.228 937.237 372.728 934.842 373.266C932.422 373.79 929.854 373.321 927.138 371.86C926.813 371.694 926.411 371.465 925.933 371.173C925.431 370.867 925.032 370.607 924.736 370.393C923.098 369.262 921.857 367.963 921.013 366.497C920.146 365.016 919.731 363.466 919.767 361.848C919.818 360.206 920.34 358.573 921.332 356.948C922.441 355.131 923.75 353.847 925.259 353.095C926.782 352.32 928.446 352.04 930.25 352.255C932.054 352.471 933.9 353.155 935.788 354.308L936.397 354.68C936.66 354.84 936.812 355.048 936.853 355.303C936.909 355.534 936.864 355.769 936.718 356.008L929.145 368.411C929.169 368.425 929.217 368.454 929.289 368.498C929.36 368.542 929.42 368.578 929.468 368.608C930.477 369.158 931.528 369.505 932.622 369.648C933.692 369.776 934.709 369.642 935.672 369.246C936.636 368.85 937.424 368.15 938.037 367.147C938.562 366.286 938.868 365.489 938.956 364.755C939.043 364.021 939.041 363.38 938.949 362.832C938.833 362.269 938.728 361.877 938.634 361.655C938.454 361.251 938.377 360.974 938.402 360.825C938.404 360.662 938.485 360.449 938.645 360.186L939.696 358.465C939.842 358.226 940.03 358.079 940.261 358.023C940.483 357.929 940.706 357.967 940.93 358.136C941.274 358.379 941.599 358.84 941.906 359.52C942.189 360.185 942.377 361.005 942.471 361.98C942.564 362.956 942.486 364.024 942.237 365.184C941.964 366.33 941.448 367.524 940.689 368.766ZM926.672 366.9L932.669 357.078L932.561 357.013C931.486 356.356 930.406 355.976 929.322 355.871C928.252 355.743 927.252 355.903 926.321 356.352C925.367 356.787 924.576 357.518 923.949 358.545C923.322 359.573 923.033 360.61 923.082 361.658C923.122 362.666 923.444 363.617 924.047 364.51C924.65 365.403 925.489 366.178 926.564 366.835L926.672 366.9ZM951.579 350.93C950.85 352.125 949.947 353.066 948.871 353.754C947.795 354.442 946.668 354.837 945.491 354.938C944.313 355.04 943.211 354.777 942.183 354.149C940.534 353.143 939.628 351.671 939.466 349.734C939.303 347.798 939.723 345.659 940.725 343.319L943.234 337.518L942.194 336.883C941.047 336.183 939.947 335.971 938.893 336.246C937.854 336.497 936.882 337.363 935.977 338.845C935.321 339.92 935.003 340.924 935.025 341.856C935.061 342.764 935.333 343.553 935.842 344.225C936.113 344.587 936.139 344.947 935.92 345.306L934.935 346.919C934.775 347.182 934.579 347.341 934.348 347.397C934.108 347.414 933.88 347.357 933.665 347.226C933.307 347.007 932.945 346.606 932.579 346.022C932.229 345.414 931.978 344.67 931.826 343.79C931.674 342.91 931.701 341.926 931.906 340.838C932.102 339.711 932.594 338.502 933.382 337.212C934.258 335.778 935.186 334.688 936.166 333.941C937.123 333.18 938.08 332.715 939.037 332.544C940.008 332.35 940.961 332.374 941.896 332.617C942.845 332.836 943.726 333.193 944.538 333.689L956.153 340.78C956.392 340.926 956.544 341.134 956.609 341.403C956.665 341.634 956.62 341.869 956.474 342.108L955.467 343.757C955.306 344.02 955.111 344.179 954.88 344.235C954.625 344.276 954.378 344.224 954.139 344.078L952.598 343.137C952.838 343.71 953.013 344.391 953.122 345.18C953.207 345.953 953.153 346.822 952.958 347.786C952.739 348.735 952.28 349.783 951.579 350.93ZM949.351 348.536C949.949 347.556 950.293 346.536 950.383 345.475C950.449 344.4 950.178 343.366 949.571 342.372C948.979 341.354 948.013 340.436 946.675 339.619L945.671 339.006L943.742 343.537C942.945 345.379 942.571 346.906 942.619 348.116C942.643 349.312 943.086 350.173 943.946 350.698C944.615 351.107 945.293 351.259 945.981 351.153C946.659 351.01 947.288 350.705 947.868 350.239C948.462 349.749 948.957 349.181 949.351 348.536ZM960.627 335.306C960.481 335.545 960.285 335.704 960.04 335.784C959.785 335.825 959.538 335.773 959.299 335.627L942.344 325.275C942.105 325.129 941.945 324.933 941.866 324.688C941.8 324.418 941.841 324.164 941.987 323.925L942.993 322.276C943.139 322.037 943.347 321.885 943.616 321.82C943.886 321.755 944.14 321.795 944.379 321.941L945.956 322.904C945.436 321.93 945.227 320.901 945.332 319.816C945.436 318.732 945.846 317.604 946.561 316.433L947.436 314.999C947.582 314.76 947.783 314.62 948.038 314.579C948.268 314.523 948.503 314.568 948.742 314.714L950.212 315.611C950.451 315.757 950.598 315.946 950.654 316.176C950.71 316.407 950.665 316.642 950.519 316.881L949.206 319.032C948.418 320.323 948.18 321.572 948.493 322.779C948.781 323.973 949.571 324.963 950.861 325.751L961.4 332.186C961.639 332.332 961.791 332.539 961.856 332.809C961.898 333.064 961.845 333.31 961.699 333.549L960.627 335.306ZM968.941 321.688C968.795 321.927 968.6 322.087 968.354 322.166C968.099 322.208 967.852 322.155 967.613 322.009L950.622 311.635C950.383 311.489 950.236 311.301 950.18 311.07C950.115 310.801 950.155 310.546 950.301 310.307L951.33 308.623C951.476 308.384 951.676 308.244 951.931 308.202C952.176 308.123 952.419 308.156 952.658 308.302L954.235 309.265C953.802 308.147 953.619 306.969 953.686 305.731C953.744 304.454 954.225 303.075 955.13 301.593C956.078 300.04 957.227 298.937 958.577 298.284C959.917 297.594 961.364 297.346 962.919 297.54C964.449 297.72 966.015 298.299 967.616 299.276L977.725 305.448C977.964 305.594 978.123 305.79 978.203 306.036C978.259 306.266 978.214 306.501 978.068 306.74L976.974 308.533C976.828 308.772 976.632 308.931 976.386 309.011C976.132 309.052 975.885 309 975.646 308.854L965.716 302.791C964.043 301.77 962.493 301.381 961.065 301.624C959.613 301.853 958.405 302.756 957.442 304.334C956.538 305.815 956.286 307.302 956.687 308.794C957.08 310.247 958.112 311.484 959.785 312.506L969.714 318.568C969.953 318.714 970.105 318.922 970.171 319.191C970.226 319.422 970.181 319.657 970.036 319.896L968.941 321.688Z" fill="black"/>
<path d="M502.393 581.628C501.636 581.963 501.293 582.849 501.628 583.607L507.09 595.953C507.425 596.71 508.311 597.053 509.068 596.718C509.826 596.383 510.168 595.497 509.833 594.739L504.979 583.765L515.953 578.91C516.71 578.575 517.053 577.689 516.718 576.932C516.383 576.174 515.497 575.832 514.739 576.167L502.393 581.628ZM697.541 656.601L503.541 581.601L502.459 584.399L696.459 659.399L697.541 656.601Z" fill="black"/>
<path d="M322.173 492.49C322.996 492.395 323.585 491.65 323.49 490.827L321.935 477.417C321.839 476.594 321.095 476.004 320.272 476.1C319.449 476.195 318.859 476.94 318.955 477.763L320.337 489.683L308.417 491.065C307.594 491.161 307.004 491.905 307.1 492.728C307.195 493.551 307.94 494.141 308.763 494.045L322.173 492.49ZM143.069 351.176L321.069 492.176L322.931 489.824L144.931 348.824L143.069 351.176Z" fill="black"/>
<path d="M168.091 344.609C167.868 344.439 167.73 344.228 167.676 343.975C167.662 343.717 167.739 343.477 167.909 343.255L179.989 327.43C180.159 327.208 180.361 327.08 180.597 327.049C180.871 327.012 181.12 327.079 181.343 327.248L182.945 328.472C183.168 328.642 183.286 328.855 183.301 329.113C183.333 329.349 183.263 329.578 183.093 329.8L171.014 345.625C170.844 345.847 170.633 345.985 170.38 346.039C170.145 346.071 169.916 346.002 169.693 345.832L168.091 344.609ZM183.548 323.806C183.325 323.636 183.187 323.425 183.133 323.173C183.118 322.915 183.196 322.675 183.366 322.452L184.742 320.649C184.912 320.427 185.115 320.3 185.35 320.268C185.625 320.231 185.873 320.298 186.096 320.468L188.199 322.073C188.422 322.243 188.54 322.457 188.555 322.715C188.609 322.967 188.551 323.205 188.381 323.427L187.005 325.23C186.835 325.453 186.613 325.582 186.338 325.619C186.102 325.651 185.873 325.582 185.651 325.412L183.548 323.806ZM181.359 355.265C180.112 354.313 179.163 353.342 178.51 352.351C177.858 351.36 177.423 350.429 177.207 349.559C176.99 348.689 176.907 347.921 176.958 347.255C177.03 346.606 177.157 346.14 177.339 345.856C177.504 345.594 177.726 345.464 178.006 345.467C178.286 345.469 178.515 345.538 178.693 345.674L180.162 346.795C180.296 346.897 180.379 346.996 180.411 347.092C180.484 347.182 180.527 347.356 180.541 347.614C180.593 348.146 180.678 348.704 180.796 349.287C180.914 349.871 181.153 350.458 181.512 351.049C181.893 351.657 182.473 352.258 183.252 352.853C184.387 353.72 185.484 354.222 186.541 354.359C187.615 354.475 188.475 354.11 189.121 353.264C189.545 352.708 189.729 352.144 189.673 351.572C189.638 351.017 189.333 350.309 188.758 349.447C188.205 348.603 187.372 347.526 186.257 346.217C185.16 344.886 184.391 343.701 183.952 342.661C183.53 341.599 183.39 340.629 183.531 339.751C183.69 338.851 184.076 338 184.687 337.199C185.316 336.375 186.164 335.772 187.231 335.389C188.315 334.984 189.512 334.893 190.82 335.117C192.151 335.358 193.529 336.022 194.953 337.109C196.11 337.993 196.99 338.894 197.593 339.812C198.196 340.729 198.594 341.615 198.789 342.468C199 343.298 199.078 344.027 199.022 344.654C198.966 345.281 198.839 345.747 198.641 346.053C198.493 346.293 198.282 346.431 198.007 346.468C197.749 346.483 197.52 346.414 197.32 346.261L195.918 345.19C195.762 345.071 195.654 344.936 195.594 344.784C195.556 344.65 195.526 344.504 195.505 344.347C195.503 343.888 195.457 343.394 195.366 342.867C195.298 342.357 195.087 341.826 194.733 341.274C194.418 340.717 193.872 340.141 193.093 339.547C191.98 338.697 190.967 338.294 190.054 338.336C189.14 338.379 188.412 338.756 187.868 339.469C187.546 339.891 187.379 340.363 187.369 340.884C187.359 341.405 187.597 342.062 188.083 342.856C188.569 343.649 189.372 344.72 190.492 346.068C191.74 347.479 192.6 348.752 193.072 349.887C193.544 351.022 193.712 352.049 193.575 352.966C193.439 353.883 193.048 354.765 192.402 355.61C191.688 356.545 190.756 357.19 189.605 357.544C188.476 357.915 187.199 357.927 185.774 357.579C184.388 357.225 182.917 356.454 181.359 355.265ZM201.607 370.193C201.385 370.023 201.246 369.812 201.192 369.559C201.178 369.302 201.255 369.061 201.425 368.839L218.347 346.671C218.517 346.449 218.719 346.322 218.955 346.29C219.23 346.253 219.478 346.32 219.701 346.49L221.27 347.687C221.515 347.874 221.644 348.097 221.659 348.354C221.691 348.59 221.622 348.819 221.452 349.041L204.53 371.209C204.36 371.432 204.149 371.57 203.897 371.624C203.661 371.655 203.421 371.578 203.176 371.391L201.607 370.193ZM215.58 381.387C213.287 379.637 211.997 377.543 211.71 375.105C211.44 372.644 212.172 370.138 213.908 367.588C214.106 367.282 214.375 366.906 214.715 366.461C215.072 365.994 215.372 365.624 215.615 365.351C216.91 363.839 218.331 362.739 219.877 362.053C221.44 361.343 223.024 361.091 224.629 361.295C226.257 361.516 227.828 362.204 229.341 363.359C231.033 364.65 232.174 366.085 232.766 367.664C233.379 369.26 233.485 370.944 233.084 372.715C232.682 374.487 231.811 376.252 230.469 378.011L230.035 378.578C229.848 378.823 229.626 378.953 229.368 378.967C229.133 378.999 228.904 378.93 228.681 378.76L217.13 369.942C217.113 369.965 217.079 370.009 217.028 370.076C216.977 370.143 216.935 370.198 216.901 370.243C216.249 371.189 215.795 372.199 215.539 373.272C215.301 374.323 215.329 375.348 215.622 376.347C215.916 377.347 216.531 378.203 217.466 378.917C218.267 379.528 219.028 379.916 219.749 380.079C220.47 380.241 221.108 380.306 221.663 380.271C222.234 380.214 222.635 380.151 222.865 380.08C223.287 379.943 223.57 379.895 223.715 379.936C223.877 379.954 224.081 380.056 224.326 380.243L225.928 381.467C226.151 381.636 226.278 381.839 226.309 382.075C226.38 382.305 226.32 382.523 226.128 382.728C225.85 383.045 225.358 383.321 224.65 383.556C223.96 383.768 223.125 383.87 222.145 383.862C221.165 383.854 220.111 383.666 218.982 383.298C217.871 382.907 216.737 382.271 215.58 381.387ZM218.888 367.639L228.036 374.621L228.112 374.521C228.877 373.52 229.367 372.485 229.584 371.417C229.822 370.366 229.766 369.355 229.416 368.383C229.083 367.389 228.438 366.527 227.481 365.796C226.524 365.066 225.522 364.671 224.475 364.612C223.468 364.547 222.489 364.768 221.538 365.276C220.587 365.783 219.729 366.537 218.965 367.539L218.888 367.639ZM232.191 394.067C231.078 393.218 230.236 392.222 229.663 391.081C229.09 389.939 228.814 388.777 228.836 387.596C228.857 386.414 229.233 385.345 229.963 384.388C231.135 382.852 232.693 382.104 234.636 382.143C236.579 382.182 238.662 382.821 240.886 384.061L246.396 387.157L247.135 386.189C247.95 385.12 248.276 384.048 248.111 382.971C247.969 381.912 247.208 380.855 245.828 379.802C244.827 379.037 243.861 378.617 242.932 378.542C242.026 378.484 241.212 378.673 240.492 379.11C240.103 379.342 239.742 379.33 239.408 379.075L237.906 377.928C237.661 377.742 237.523 377.53 237.491 377.295C237.499 377.054 237.579 376.834 237.732 376.633C237.987 376.299 238.424 375.981 239.042 375.678C239.683 375.393 240.449 375.22 241.34 375.16C242.231 375.101 243.207 375.229 244.268 375.546C245.369 375.858 246.52 376.473 247.722 377.39C249.057 378.409 250.045 379.445 250.686 380.498C251.344 381.529 251.708 382.529 251.778 383.498C251.87 384.484 251.748 385.43 251.409 386.334C251.094 387.255 250.647 388.095 250.069 388.851L241.812 399.668C241.642 399.891 241.42 400.02 241.145 400.057C240.91 400.089 240.681 400.02 240.458 399.85L238.923 398.677C238.678 398.491 238.54 398.279 238.508 398.044C238.493 397.786 238.571 397.546 238.741 397.323L239.837 395.888C239.242 396.068 238.546 396.171 237.751 396.198C236.972 396.202 236.114 396.058 235.176 395.764C234.254 395.448 233.259 394.883 232.191 394.067ZM234.804 392.099C235.716 392.795 236.695 393.243 237.741 393.442C238.803 393.619 239.86 393.458 240.912 392.957C241.985 392.473 242.998 391.608 243.949 390.362L244.663 389.427L240.357 387.038C238.607 386.055 237.127 385.524 235.918 385.447C234.726 385.347 233.825 385.698 233.213 386.499C232.737 387.122 232.516 387.781 232.549 388.476C232.622 389.165 232.86 389.822 233.263 390.448C233.689 391.09 234.203 391.64 234.804 392.099ZM246.793 404.686C246.571 404.516 246.433 404.304 246.379 404.052C246.364 403.794 246.442 403.554 246.612 403.332L258.666 387.54C258.836 387.318 259.047 387.18 259.299 387.126C259.574 387.089 259.823 387.155 260.045 387.325L261.581 388.498C261.803 388.667 261.933 388.89 261.97 389.165C262.007 389.439 261.94 389.688 261.771 389.91L260.649 391.379C261.672 390.962 262.717 390.862 263.785 391.078C264.853 391.295 265.932 391.819 267.023 392.652L268.358 393.671C268.581 393.841 268.699 394.055 268.714 394.312C268.745 394.548 268.676 394.777 268.506 394.999L267.462 396.368C267.292 396.591 267.089 396.718 266.853 396.749C266.618 396.781 266.389 396.712 266.166 396.542L264.163 395.013C262.961 394.096 261.744 393.73 260.51 393.915C259.293 394.078 258.226 394.761 257.309 395.963L249.817 405.778C249.647 406.001 249.424 406.13 249.15 406.167C248.892 406.182 248.652 406.104 248.429 405.934L246.793 404.686ZM259.476 414.367C259.253 414.197 259.115 413.985 259.061 413.733C259.047 413.475 259.124 413.235 259.294 413.013L271.374 397.188C271.543 396.965 271.746 396.838 271.982 396.807C272.256 396.77 272.505 396.836 272.728 397.006L274.297 398.204C274.519 398.374 274.638 398.588 274.652 398.846C274.706 399.098 274.648 399.335 274.478 399.558L273.357 401.027C274.513 400.712 275.704 400.652 276.929 400.847C278.193 401.037 279.515 401.659 280.895 402.712C282.341 403.817 283.319 405.074 283.828 406.484C284.376 407.888 284.473 409.354 284.118 410.879C283.781 412.383 283.043 413.88 281.904 415.372L274.718 424.786C274.548 425.009 274.337 425.147 274.084 425.201C273.849 425.232 273.62 425.163 273.397 424.993L271.728 423.719C271.506 423.549 271.367 423.338 271.313 423.086C271.299 422.828 271.376 422.588 271.546 422.365L278.605 413.118C279.795 411.56 280.342 410.058 280.248 408.612C280.171 407.144 279.398 405.85 277.929 404.728C276.549 403.675 275.097 403.271 273.571 403.515C272.085 403.755 270.747 404.653 269.558 406.211L262.499 415.459C262.329 415.682 262.107 415.811 261.832 415.848C261.597 415.88 261.368 415.811 261.145 415.641L259.476 414.367ZM279.722 429.821C279.499 429.651 279.361 429.44 279.307 429.188C279.293 428.93 279.37 428.69 279.54 428.467L291.62 412.643C291.79 412.42 291.992 412.293 292.228 412.262C292.503 412.225 292.751 412.291 292.974 412.461L294.576 413.684C294.799 413.854 294.917 414.068 294.932 414.326C294.964 414.561 294.894 414.79 294.725 415.013L282.645 430.837C282.475 431.06 282.264 431.198 282.012 431.252C281.776 431.284 281.547 431.214 281.324 431.044L279.722 429.821ZM295.179 409.019C294.956 408.849 294.818 408.638 294.764 408.385C294.749 408.128 294.827 407.887 294.997 407.665L296.373 405.862C296.543 405.639 296.746 405.512 296.981 405.481C297.256 405.444 297.504 405.51 297.727 405.68L299.83 407.286C300.053 407.456 300.171 407.67 300.186 407.927C300.24 408.18 300.182 408.417 300.012 408.64L298.636 410.443C298.466 410.665 298.244 410.795 297.969 410.832C297.733 410.863 297.504 410.794 297.282 410.624L295.179 409.019ZM288.133 436.242C287.911 436.072 287.773 435.861 287.719 435.609C287.704 435.351 287.782 435.111 287.952 434.888L300.031 419.064C300.201 418.841 300.404 418.714 300.639 418.682C300.914 418.645 301.163 418.712 301.385 418.882L302.954 420.08C303.177 420.25 303.295 420.463 303.31 420.721C303.364 420.974 303.306 421.211 303.136 421.434L302.015 422.903C303.171 422.588 304.362 422.528 305.586 422.723C306.85 422.913 308.172 423.534 309.552 424.588C310.999 425.692 311.977 426.949 312.486 428.359C313.034 429.764 313.13 431.229 312.776 432.755C312.438 434.259 311.7 435.756 310.562 437.247L303.376 446.662C303.206 446.884 302.995 447.023 302.742 447.076C302.507 447.108 302.278 447.039 302.055 446.869L300.386 445.595C300.163 445.425 300.025 445.214 299.971 444.961C299.956 444.703 300.034 444.463 300.204 444.241L307.263 434.993C308.452 433.435 309 431.933 308.906 430.488C308.829 429.02 308.056 427.725 306.587 426.604C305.207 425.551 303.754 425.146 302.229 425.391C300.743 425.63 299.405 426.529 298.216 428.087L291.157 437.335C290.987 437.557 290.764 437.687 290.49 437.724C290.254 437.755 290.025 437.686 289.803 437.516L288.133 436.242ZM309.116 463.884C307.603 462.728 306.509 461.577 305.836 460.428C305.185 459.297 304.802 458.23 304.687 457.226C304.578 456.262 304.621 455.397 304.818 454.632C305.02 453.906 305.238 453.367 305.47 453.016C305.618 452.777 305.829 452.638 306.104 452.602C306.401 452.582 306.649 452.648 306.85 452.801L308.452 454.024C308.653 454.177 308.786 454.349 308.851 454.54C308.917 454.731 308.884 455.005 308.752 455.363C308.63 455.798 308.55 456.318 308.512 456.923C308.456 457.55 308.596 458.22 308.931 458.934C309.25 459.67 309.91 460.421 310.912 461.185C311.958 461.984 312.947 462.51 313.88 462.765C314.796 463.041 315.704 462.959 316.604 462.519C317.509 462.118 318.429 461.305 319.363 460.081L321.096 457.811C320.035 458.093 318.893 458.137 317.668 457.941C316.46 457.724 315.199 457.114 313.886 456.112C312.64 455.16 311.733 454.133 311.166 453.031C310.615 451.906 310.331 450.756 310.313 449.58C310.334 448.398 310.565 447.218 311.006 446.04C311.47 444.88 312.079 443.759 312.833 442.679C313.286 442.039 313.753 441.427 314.234 440.843C315.077 439.831 315.998 438.948 316.995 438.195C318.015 437.459 319.092 436.925 320.226 436.593C321.382 436.278 322.567 436.249 323.78 436.505C325.01 436.74 326.249 437.333 327.495 438.284C328.83 439.303 329.737 440.4 330.214 441.575C330.73 442.744 330.995 443.897 331.008 445.034L332.104 443.599C332.273 443.376 332.485 443.238 332.737 443.184C333.012 443.147 333.26 443.214 333.483 443.383L335.019 444.556C335.241 444.726 335.371 444.948 335.408 445.223C335.445 445.497 335.378 445.746 335.208 445.969L322.849 462.16C321.71 463.652 320.443 464.78 319.048 465.547C317.675 466.331 316.155 466.615 314.488 466.399C312.843 466.2 311.053 465.362 309.116 463.884ZM316.593 453.951C317.706 454.8 318.791 455.224 319.85 455.221C320.93 455.236 321.924 454.973 322.83 454.432C323.759 453.908 324.54 453.254 325.174 452.469C325.434 452.175 325.734 451.805 326.073 451.36C326.43 450.892 326.716 450.494 326.932 450.166C327.521 449.348 327.946 448.422 328.207 447.388C328.49 446.371 328.482 445.343 328.183 444.305C327.906 443.283 327.211 442.347 326.098 441.498C324.986 440.649 323.9 440.225 322.841 440.227C321.8 440.207 320.82 440.498 319.902 441.101C319.001 441.681 318.172 442.422 317.414 443.323C316.95 443.884 316.5 444.474 316.063 445.092C315.394 446.061 314.89 447.067 314.551 448.112C314.228 449.134 314.206 450.156 314.483 451.177C314.777 452.177 315.48 453.101 316.593 453.951Z" fill="black"/>
<path d="M361.395 640.449C361.091 639.679 360.22 639.301 359.449 639.605L346.892 644.56C346.121 644.864 345.743 645.735 346.047 646.506C346.351 647.276 347.222 647.655 347.993 647.351L359.155 642.946L363.56 654.108C363.864 654.879 364.735 655.257 365.506 654.953C366.276 654.649 366.655 653.778 366.351 653.007L361.395 640.449ZM305.376 770.597L361.376 641.597L358.624 640.403L302.624 769.403L305.376 770.597Z" fill="black"/>
<path d="M348.235 89.7097C347.522 90.1321 347.287 91.0523 347.71 91.7649L354.594 103.378C355.016 104.09 355.937 104.326 356.649 103.903C357.362 103.481 357.597 102.561 357.175 101.848L351.055 91.5254L361.378 85.4061C362.09 84.9836 362.326 84.0635 361.903 83.3508C361.481 82.6382 360.561 82.403 359.848 82.8254L348.235 89.7097ZM482.372 123.547L349.372 89.5467L348.628 92.4533L481.628 126.453L482.372 123.547Z" fill="black"/>
<path d="M744.706 802.759C745.125 803.473 746.044 803.713 746.759 803.294L758.405 796.467C759.12 796.048 759.359 795.129 758.94 794.414C758.522 793.7 757.603 793.46 756.888 793.879L746.535 799.947L740.467 789.595C740.048 788.88 739.129 788.641 738.414 789.06C737.7 789.478 737.46 790.397 737.879 791.112L744.706 802.759ZM762.549 732.621L744.549 801.621L747.451 802.379L765.451 733.379L762.549 732.621Z" fill="black"/>
<path d="M586.54 359.4C587.313 359.101 587.698 358.233 587.4 357.46L582.542 344.864C582.244 344.091 581.376 343.706 580.603 344.005C579.83 344.303 579.445 345.171 579.743 345.944L584.061 357.14L572.864 361.458C572.091 361.756 571.706 362.624 572.005 363.397C572.303 364.17 573.171 364.555 573.944 364.257L586.54 359.4ZM479.392 312.371L585.392 359.371L586.608 356.629L480.608 309.629L479.392 312.371Z" fill="black"/>
<path d="M400.1 439.2C400.763 439.697 401.703 439.563 402.2 438.9L410.3 428.1C410.797 427.437 410.663 426.497 410 426C409.337 425.503 408.397 425.637 407.9 426.3L400.7 435.9L391.1 428.7C390.437 428.203 389.497 428.337 389 429C388.503 429.663 388.637 430.603 389.3 431.1L400.1 439.2ZM391.515 382.212L399.515 438.212L402.485 437.788L394.485 381.788L391.515 382.212Z" fill="black"/>
<path d="M1023.8 696.896C1024.29 697.56 1025.23 697.698 1025.9 697.203L1036.73 689.144C1037.39 688.649 1037.53 687.709 1037.03 687.045C1036.54 686.38 1035.6 686.242 1034.93 686.737L1025.31 693.901L1018.14 684.274C1017.65 683.61 1016.71 683.472 1016.04 683.967C1015.38 684.461 1015.24 685.401 1015.74 686.065L1023.8 696.896ZM1034.52 620.782L1023.52 695.782L1026.48 696.218L1037.48 621.218L1034.52 620.782Z" fill="black"/>
<path d="M355.594 826.476C355.305 827.253 355.7 828.116 356.476 828.406L369.127 833.119C369.903 833.408 370.767 833.013 371.056 832.237C371.345 831.46 370.951 830.597 370.174 830.307L358.929 826.118L363.119 814.873C363.408 814.097 363.013 813.233 362.237 812.944C361.46 812.655 360.597 813.049 360.307 813.826L355.594 826.476ZM428.406 795.524C428.695 794.747 428.3 793.884 427.524 793.594L414.873 788.881C414.097 788.592 413.233 788.987 412.944 789.763C412.655 790.54 413.049 791.403 413.826 791.693L425.071 795.882L420.881 807.127C420.592 807.903 420.987 808.767 421.763 809.056C422.54 809.345 423.403 808.951 423.693 808.174L428.406 795.524ZM357.624 828.364L427.624 796.364L426.376 793.636L356.376 825.636L357.624 828.364Z" fill="black"/>
<path d="M894.507 615.853C894.426 616.678 895.029 617.412 895.853 617.493L909.288 618.814C910.113 618.895 910.847 618.293 910.928 617.468C911.009 616.644 910.406 615.91 909.582 615.829L897.64 614.654L898.814 602.712C898.895 601.887 898.293 601.153 897.468 601.072C896.644 600.991 895.91 601.594 895.829 602.418L894.507 615.853ZM964.493 561.147C964.574 560.322 963.971 559.588 963.147 559.507L949.712 558.186C948.887 558.105 948.153 558.707 948.072 559.532C947.991 560.356 948.594 561.09 949.418 561.171L961.36 562.346L960.186 574.288C960.105 575.113 960.707 575.847 961.532 575.928C962.356 576.009 963.09 575.406 963.171 574.582L964.493 561.147ZM896.952 617.159L963.952 562.159L962.048 559.841L895.048 614.841L896.952 617.159Z" fill="black"/>
<path d="M459.514 231.799C459.403 232.62 459.978 233.376 460.799 233.486L474.178 235.294C474.998 235.405 475.754 234.83 475.865 234.009C475.976 233.188 475.4 232.432 474.579 232.321L462.687 230.714L464.294 218.822C464.405 218.002 463.83 217.246 463.009 217.135C462.188 217.024 461.432 217.6 461.321 218.421L459.514 231.799ZM504.486 200.201C504.597 199.38 504.022 198.624 503.201 198.514L489.822 196.706C489.002 196.595 488.246 197.17 488.135 197.991C488.024 198.812 488.6 199.568 489.421 199.679L501.313 201.286L499.706 213.178C499.595 213.998 500.17 214.754 500.991 214.865C501.812 214.976 502.568 214.4 502.679 213.579L504.486 200.201ZM461.909 233.193L503.909 201.193L502.091 198.807L460.091 230.807L461.909 233.193Z" fill="black"/>
<path d="M101.045 529.157C101.684 529.684 102.63 529.594 103.157 528.955L111.748 518.541C112.275 517.902 112.185 516.957 111.546 516.429C110.907 515.902 109.961 515.993 109.434 516.632L101.798 525.888L92.541 518.252C91.902 517.725 90.9566 517.815 90.4294 518.454C89.9022 519.093 89.9929 520.039 90.6319 520.566L101.045 529.157ZM86.5068 382.143L100.507 528.143L103.493 527.857L89.4932 381.857L86.5068 382.143Z" fill="black"/>
</svg>
