<svg width="1550" height="830" viewBox="0 0 1550 830" fill="none" xmlns="http://www.w3.org/2000/svg">
<rect width="1550" height="830" fill="url(#paint0_linear_42_172)"/>
<path d="M426.953 472C426.607 472 426.312 471.896 426.069 471.688C425.861 471.445 425.757 471.151 425.757 470.804V440.228H415.773C415.427 440.228 415.132 440.124 414.889 439.916C414.681 439.673 414.577 439.379 414.577 439.032V436.848C414.577 436.467 414.681 436.172 414.889 435.964C415.132 435.721 415.427 435.6 415.773 435.6H440.837C441.219 435.6 441.513 435.721 441.721 435.964C441.964 436.172 442.085 436.467 442.085 436.848V439.032C442.085 439.379 441.964 439.673 441.721 439.916C441.513 440.124 441.219 440.228 440.837 440.228H430.905V470.804C430.905 471.151 430.784 471.445 430.541 471.688C430.333 471.896 430.039 472 429.657 472H426.953ZM447.42 472C447.074 472 446.779 471.896 446.536 471.688C446.328 471.445 446.224 471.151 446.224 470.804V436.276C446.224 435.929 446.328 435.652 446.536 435.444C446.779 435.201 447.074 435.08 447.42 435.08H450.02C450.402 435.08 450.696 435.201 450.904 435.444C451.112 435.652 451.216 435.929 451.216 436.276V448.392C452.152 447.213 453.296 446.26 454.648 445.532C456 444.804 457.716 444.44 459.796 444.44C462.05 444.44 463.956 444.943 465.516 445.948C467.111 446.919 468.307 448.288 469.104 450.056C469.936 451.789 470.352 453.817 470.352 456.14V470.804C470.352 471.151 470.248 471.445 470.04 471.688C469.832 471.896 469.538 472 469.156 472H466.556C466.21 472 465.915 471.896 465.672 471.688C465.464 471.445 465.36 471.151 465.36 470.804V456.4C465.36 453.973 464.771 452.084 463.592 450.732C462.414 449.345 460.68 448.652 458.392 448.652C456.243 448.652 454.51 449.345 453.192 450.732C451.875 452.084 451.216 453.973 451.216 456.4V470.804C451.216 471.151 451.112 471.445 450.904 471.688C450.696 471.896 450.402 472 450.02 472H447.42ZM488.624 472.52C485.053 472.52 482.21 471.428 480.096 469.244C477.981 467.025 476.82 464.009 476.612 460.196C476.577 459.745 476.56 459.173 476.56 458.48C476.56 457.752 476.577 457.163 476.612 456.712C476.75 454.251 477.322 452.101 478.328 450.264C479.333 448.392 480.702 446.953 482.436 445.948C484.204 444.943 486.266 444.44 488.624 444.44C491.258 444.44 493.46 444.995 495.228 446.104C497.03 447.213 498.4 448.791 499.336 450.836C500.272 452.881 500.74 455.273 500.74 458.012V458.896C500.74 459.277 500.618 459.572 500.376 459.78C500.168 459.988 499.89 460.092 499.544 460.092H481.552C481.552 460.127 481.552 460.196 481.552 460.3C481.552 460.404 481.552 460.491 481.552 460.56C481.621 461.981 481.933 463.316 482.488 464.564C483.042 465.777 483.84 466.765 484.88 467.528C485.92 468.291 487.168 468.672 488.624 468.672C489.872 468.672 490.912 468.481 491.744 468.1C492.576 467.719 493.252 467.303 493.772 466.852C494.292 466.367 494.638 466.003 494.812 465.76C495.124 465.309 495.366 465.049 495.54 464.98C495.713 464.876 495.99 464.824 496.372 464.824H498.868C499.214 464.824 499.492 464.928 499.7 465.136C499.942 465.309 500.046 465.569 500.012 465.916C499.977 466.436 499.7 467.077 499.18 467.84C498.66 468.568 497.914 469.296 496.944 470.024C495.973 470.752 494.794 471.359 493.408 471.844C492.021 472.295 490.426 472.52 488.624 472.52ZM481.552 456.504H495.8V456.348C495.8 454.788 495.505 453.401 494.916 452.188C494.361 450.975 493.546 450.021 492.472 449.328C491.397 448.6 490.114 448.236 488.624 448.236C487.133 448.236 485.85 448.6 484.776 449.328C483.736 450.021 482.938 450.975 482.384 452.188C481.829 453.401 481.552 454.788 481.552 456.348V456.504ZM530.779 472.52C528.145 472.52 525.943 472.017 524.175 471.012C522.407 470.007 521.055 468.62 520.119 466.852C519.183 465.049 518.663 463.004 518.559 460.716C518.525 460.127 518.507 459.381 518.507 458.48C518.507 457.544 518.525 456.799 518.559 456.244C518.663 453.921 519.183 451.876 520.119 450.108C521.09 448.34 522.459 446.953 524.227 445.948C525.995 444.943 528.179 444.44 530.779 444.44C533.379 444.44 535.563 444.943 537.331 445.948C539.099 446.953 540.451 448.34 541.387 450.108C542.358 451.876 542.895 453.921 542.999 456.244C543.034 456.799 543.051 457.544 543.051 458.48C543.051 459.381 543.034 460.127 542.999 460.716C542.895 463.004 542.375 465.049 541.439 466.852C540.503 468.62 539.151 470.007 537.383 471.012C535.615 472.017 533.414 472.52 530.779 472.52ZM530.779 468.516C532.929 468.516 534.645 467.84 535.927 466.488C537.21 465.101 537.903 463.091 538.007 460.456C538.042 459.936 538.059 459.277 538.059 458.48C538.059 457.683 538.042 457.024 538.007 456.504C537.903 453.869 537.21 451.876 535.927 450.524C534.645 449.137 532.929 448.444 530.779 448.444C528.63 448.444 526.897 449.137 525.579 450.524C524.297 451.876 523.621 453.869 523.551 456.504C523.517 457.024 523.499 457.683 523.499 458.48C523.499 459.277 523.517 459.936 523.551 460.456C523.621 463.091 524.297 465.101 525.579 466.488C526.897 467.84 528.63 468.516 530.779 468.516ZM550.811 481.88C550.464 481.88 550.17 481.759 549.927 481.516C549.719 481.308 549.615 481.031 549.615 480.684V446.156C549.615 445.809 549.719 445.532 549.927 445.324C550.17 445.081 550.464 444.96 550.811 444.96H553.203C553.55 444.96 553.827 445.081 554.035 445.324C554.278 445.532 554.399 445.809 554.399 446.156V448.444C555.231 447.3 556.34 446.347 557.727 445.584C559.114 444.821 560.847 444.44 562.927 444.44C564.868 444.44 566.515 444.769 567.867 445.428C569.254 446.087 570.38 446.988 571.247 448.132C572.148 449.276 572.824 450.576 573.275 452.032C573.726 453.488 573.968 455.048 574.003 456.712C574.038 457.267 574.055 457.856 574.055 458.48C574.055 459.104 574.038 459.693 574.003 460.248C573.968 461.877 573.726 463.437 573.275 464.928C572.824 466.384 572.148 467.684 571.247 468.828C570.38 469.937 569.254 470.839 567.867 471.532C566.515 472.191 564.868 472.52 562.927 472.52C560.916 472.52 559.218 472.156 557.831 471.428C556.479 470.665 555.37 469.729 554.503 468.62V480.684C554.503 481.031 554.399 481.308 554.191 481.516C553.983 481.759 553.688 481.88 553.307 481.88H550.811ZM561.835 468.308C563.638 468.308 565.042 467.927 566.047 467.164C567.087 466.367 567.832 465.344 568.283 464.096C568.734 462.813 568.994 461.444 569.063 459.988C569.098 458.983 569.098 457.977 569.063 456.972C568.994 455.516 568.734 454.164 568.283 452.916C567.832 451.633 567.087 450.611 566.047 449.848C565.042 449.051 563.638 448.652 561.835 448.652C560.136 448.652 558.75 449.051 557.675 449.848C556.635 450.645 555.855 451.668 555.335 452.916C554.85 454.129 554.572 455.377 554.503 456.66C554.468 457.215 554.451 457.873 554.451 458.636C554.451 459.399 554.468 460.075 554.503 460.664C554.538 461.877 554.815 463.073 555.335 464.252C555.89 465.431 556.704 466.401 557.779 467.164C558.854 467.927 560.206 468.308 561.835 468.308ZM591.303 472.52C587.733 472.52 584.89 471.428 582.775 469.244C580.661 467.025 579.499 464.009 579.291 460.196C579.257 459.745 579.239 459.173 579.239 458.48C579.239 457.752 579.257 457.163 579.291 456.712C579.43 454.251 580.002 452.101 581.007 450.264C582.013 448.392 583.382 446.953 585.115 445.948C586.883 444.943 588.946 444.44 591.303 444.44C593.938 444.44 596.139 444.995 597.907 446.104C599.71 447.213 601.079 448.791 602.015 450.836C602.951 452.881 603.419 455.273 603.419 458.012V458.896C603.419 459.277 603.298 459.572 603.055 459.78C602.847 459.988 602.57 460.092 602.223 460.092H584.231C584.231 460.127 584.231 460.196 584.231 460.3C584.231 460.404 584.231 460.491 584.231 460.56C584.301 461.981 584.613 463.316 585.167 464.564C585.722 465.777 586.519 466.765 587.559 467.528C588.599 468.291 589.847 468.672 591.303 468.672C592.551 468.672 593.591 468.481 594.423 468.1C595.255 467.719 595.931 467.303 596.451 466.852C596.971 466.367 597.318 466.003 597.491 465.76C597.803 465.309 598.046 465.049 598.219 464.98C598.393 464.876 598.67 464.824 599.051 464.824H601.547C601.894 464.824 602.171 464.928 602.379 465.136C602.622 465.309 602.726 465.569 602.691 465.916C602.657 466.436 602.379 467.077 601.859 467.84C601.339 468.568 600.594 469.296 599.623 470.024C598.653 470.752 597.474 471.359 596.087 471.844C594.701 472.295 593.106 472.52 591.303 472.52ZM584.231 456.504H598.479V456.348C598.479 454.788 598.185 453.401 597.595 452.188C597.041 450.975 596.226 450.021 595.151 449.328C594.077 448.6 592.794 448.236 591.303 448.236C589.813 448.236 588.53 448.6 587.455 449.328C586.415 450.021 585.618 450.975 585.063 452.188C584.509 453.401 584.231 454.788 584.231 456.348V456.504ZM610.833 472C610.486 472 610.192 471.896 609.949 471.688C609.741 471.445 609.637 471.151 609.637 470.804V446.156C609.637 445.809 609.741 445.532 609.949 445.324C610.192 445.081 610.486 444.96 610.833 444.96H613.277C613.624 444.96 613.901 445.081 614.109 445.324C614.352 445.532 614.473 445.809 614.473 446.156V448.444C615.374 447.265 616.501 446.312 617.853 445.584C619.24 444.821 621.008 444.44 623.157 444.44C625.41 444.44 627.317 444.943 628.877 445.948C630.472 446.919 631.668 448.288 632.465 450.056C633.262 451.789 633.661 453.817 633.661 456.14V470.804C633.661 471.151 633.557 471.445 633.349 471.688C633.141 471.896 632.864 472 632.517 472H629.917C629.57 472 629.276 471.896 629.033 471.688C628.825 471.445 628.721 471.151 628.721 470.804V456.4C628.721 453.973 628.132 452.084 626.953 450.732C625.774 449.345 624.041 448.652 621.753 448.652C619.604 448.652 617.87 449.345 616.553 450.732C615.27 452.084 614.629 453.973 614.629 456.4V470.804C614.629 471.151 614.508 471.445 614.265 471.688C614.057 471.896 613.78 472 613.433 472H610.833ZM655.166 481.88C654.82 481.88 654.525 481.759 654.282 481.516C654.074 481.308 653.97 481.031 653.97 480.684V446.156C653.97 445.809 654.074 445.532 654.282 445.324C654.525 445.081 654.82 444.96 655.166 444.96H657.558C657.905 444.96 658.182 445.081 658.39 445.324C658.633 445.532 658.754 445.809 658.754 446.156V448.444C659.586 447.3 660.696 446.347 662.082 445.584C663.469 444.821 665.202 444.44 667.282 444.44C669.224 444.44 670.87 444.769 672.222 445.428C673.609 446.087 674.736 446.988 675.602 448.132C676.504 449.276 677.18 450.576 677.63 452.032C678.081 453.488 678.324 455.048 678.358 456.712C678.393 457.267 678.41 457.856 678.41 458.48C678.41 459.104 678.393 459.693 678.358 460.248C678.324 461.877 678.081 463.437 677.63 464.928C677.18 466.384 676.504 467.684 675.602 468.828C674.736 469.937 673.609 470.839 672.222 471.532C670.87 472.191 669.224 472.52 667.282 472.52C665.272 472.52 663.573 472.156 662.186 471.428C660.834 470.665 659.725 469.729 658.858 468.62V480.684C658.858 481.031 658.754 481.308 658.546 481.516C658.338 481.759 658.044 481.88 657.662 481.88H655.166ZM666.19 468.308C667.993 468.308 669.397 467.927 670.402 467.164C671.442 466.367 672.188 465.344 672.638 464.096C673.089 462.813 673.349 461.444 673.418 459.988C673.453 458.983 673.453 457.977 673.418 456.972C673.349 455.516 673.089 454.164 672.638 452.916C672.188 451.633 671.442 450.611 670.402 449.848C669.397 449.051 667.993 448.652 666.19 448.652C664.492 448.652 663.105 449.051 662.03 449.848C660.99 450.645 660.21 451.668 659.69 452.916C659.205 454.129 658.928 455.377 658.858 456.66C658.824 457.215 658.806 457.873 658.806 458.636C658.806 459.399 658.824 460.075 658.858 460.664C658.893 461.877 659.17 463.073 659.69 464.252C660.245 465.431 661.06 466.401 662.134 467.164C663.209 467.927 664.561 468.308 666.19 468.308ZM686.091 472C685.744 472 685.45 471.896 685.207 471.688C684.999 471.445 684.895 471.151 684.895 470.804V446.208C684.895 445.861 684.999 445.567 685.207 445.324C685.45 445.081 685.744 444.96 686.091 444.96H688.483C688.83 444.96 689.124 445.081 689.367 445.324C689.61 445.567 689.731 445.861 689.731 446.208V448.496C690.424 447.317 691.378 446.433 692.591 445.844C693.804 445.255 695.26 444.96 696.959 444.96H699.039C699.386 444.96 699.663 445.081 699.871 445.324C700.079 445.532 700.183 445.809 700.183 446.156V448.288C700.183 448.635 700.079 448.912 699.871 449.12C699.663 449.328 699.386 449.432 699.039 449.432H695.919C694.047 449.432 692.574 449.987 691.499 451.096C690.424 452.171 689.887 453.644 689.887 455.516V470.804C689.887 471.151 689.766 471.445 689.523 471.688C689.28 471.896 688.986 472 688.639 472H686.091ZM715.217 472.52C712.582 472.52 710.381 472.017 708.613 471.012C706.845 470.007 705.493 468.62 704.557 466.852C703.621 465.049 703.101 463.004 702.997 460.716C702.962 460.127 702.945 459.381 702.945 458.48C702.945 457.544 702.962 456.799 702.997 456.244C703.101 453.921 703.621 451.876 704.557 450.108C705.528 448.34 706.897 446.953 708.665 445.948C710.433 444.943 712.617 444.44 715.217 444.44C717.817 444.44 720.001 444.943 721.769 445.948C723.537 446.953 724.889 448.34 725.825 450.108C726.796 451.876 727.333 453.921 727.437 456.244C727.472 456.799 727.489 457.544 727.489 458.48C727.489 459.381 727.472 460.127 727.437 460.716C727.333 463.004 726.813 465.049 725.877 466.852C724.941 468.62 723.589 470.007 721.821 471.012C720.053 472.017 717.852 472.52 715.217 472.52ZM715.217 468.516C717.366 468.516 719.082 467.84 720.365 466.488C721.648 465.101 722.341 463.091 722.445 460.456C722.48 459.936 722.497 459.277 722.497 458.48C722.497 457.683 722.48 457.024 722.445 456.504C722.341 453.869 721.648 451.876 720.365 450.524C719.082 449.137 717.366 448.444 715.217 448.444C713.068 448.444 711.334 449.137 710.017 450.524C708.734 451.876 708.058 453.869 707.989 456.504C707.954 457.024 707.937 457.683 707.937 458.48C707.937 459.277 707.954 459.936 707.989 460.456C708.058 463.091 708.734 465.101 710.017 466.488C711.334 467.84 713.068 468.516 715.217 468.516ZM744.302 472C742.361 472 740.784 471.636 739.57 470.908C738.357 470.145 737.473 469.088 736.918 467.736C736.364 466.349 736.086 464.72 736.086 462.848V449.12H732.03C731.684 449.12 731.389 449.016 731.146 448.808C730.938 448.565 730.834 448.271 730.834 447.924V446.156C730.834 445.809 730.938 445.532 731.146 445.324C731.389 445.081 731.684 444.96 732.03 444.96H736.086V436.276C736.086 435.929 736.19 435.652 736.398 435.444C736.641 435.201 736.936 435.08 737.282 435.08H739.726C740.073 435.08 740.35 435.201 740.558 435.444C740.801 435.652 740.922 435.929 740.922 436.276V444.96H747.37C747.717 444.96 747.994 445.081 748.202 445.324C748.445 445.532 748.566 445.809 748.566 446.156V447.924C748.566 448.271 748.445 448.565 748.202 448.808C747.994 449.016 747.717 449.12 747.37 449.12H740.922V462.484C740.922 464.113 741.2 465.396 741.754 466.332C742.309 467.268 743.297 467.736 744.718 467.736H747.89C748.237 467.736 748.514 467.857 748.722 468.1C748.965 468.308 749.086 468.585 749.086 468.932V470.804C749.086 471.151 748.965 471.445 748.722 471.688C748.514 471.896 748.237 472 747.89 472H744.302ZM765.135 472.52C762.5 472.52 760.299 472.017 758.531 471.012C756.763 470.007 755.411 468.62 754.475 466.852C753.539 465.049 753.019 463.004 752.915 460.716C752.88 460.127 752.863 459.381 752.863 458.48C752.863 457.544 752.88 456.799 752.915 456.244C753.019 453.921 753.539 451.876 754.475 450.108C755.446 448.34 756.815 446.953 758.583 445.948C760.351 444.943 762.535 444.44 765.135 444.44C767.735 444.44 769.919 444.943 771.687 445.948C773.455 446.953 774.807 448.34 775.743 450.108C776.714 451.876 777.251 453.921 777.355 456.244C777.39 456.799 777.407 457.544 777.407 458.48C777.407 459.381 777.39 460.127 777.355 460.716C777.251 463.004 776.731 465.049 775.795 466.852C774.859 468.62 773.507 470.007 771.739 471.012C769.971 472.017 767.77 472.52 765.135 472.52ZM765.135 468.516C767.284 468.516 769 467.84 770.283 466.488C771.566 465.101 772.259 463.091 772.363 460.456C772.398 459.936 772.415 459.277 772.415 458.48C772.415 457.683 772.398 457.024 772.363 456.504C772.259 453.869 771.566 451.876 770.283 450.524C769 449.137 767.284 448.444 765.135 448.444C762.986 448.444 761.252 449.137 759.935 450.524C758.652 451.876 757.976 453.869 757.907 456.504C757.872 457.024 757.855 457.683 757.855 458.48C757.855 459.277 757.872 459.936 757.907 460.456C757.976 463.091 758.652 465.101 759.935 466.488C761.252 467.84 762.986 468.516 765.135 468.516ZM794.838 472.52C792.377 472.52 790.245 472.052 788.442 471.116C786.674 470.145 785.305 468.776 784.334 467.008C783.364 465.205 782.844 463.056 782.774 460.56C782.74 460.04 782.722 459.347 782.722 458.48C782.722 457.613 782.74 456.92 782.774 456.4C782.844 453.904 783.364 451.772 784.334 450.004C785.305 448.201 786.674 446.832 788.442 445.896C790.245 444.925 792.377 444.44 794.838 444.44C796.849 444.44 798.565 444.717 799.986 445.272C801.442 445.827 802.638 446.537 803.574 447.404C804.51 448.271 805.204 449.207 805.654 450.212C806.14 451.217 806.4 452.171 806.434 453.072C806.469 453.419 806.365 453.696 806.122 453.904C805.88 454.112 805.585 454.216 805.238 454.216H802.742C802.396 454.216 802.136 454.147 801.962 454.008C801.789 453.835 801.616 453.557 801.442 453.176C800.818 451.477 799.969 450.281 798.894 449.588C797.82 448.895 796.485 448.548 794.89 448.548C792.81 448.548 791.112 449.189 789.794 450.472C788.512 451.755 787.818 453.817 787.714 456.66C787.68 457.908 787.68 459.121 787.714 460.3C787.818 463.177 788.512 465.257 789.794 466.54C791.112 467.788 792.81 468.412 794.89 468.412C796.485 468.412 797.82 468.065 798.894 467.372C799.969 466.679 800.818 465.483 801.442 463.784C801.616 463.403 801.789 463.143 801.962 463.004C802.136 462.831 802.396 462.744 802.742 462.744H805.238C805.585 462.744 805.88 462.848 806.122 463.056C806.365 463.264 806.469 463.541 806.434 463.888C806.4 464.616 806.244 465.361 805.966 466.124C805.689 466.887 805.238 467.667 804.614 468.464C804.025 469.227 803.28 469.92 802.378 470.544C801.477 471.133 800.385 471.619 799.102 472C797.854 472.347 796.433 472.52 794.838 472.52ZM823.686 472.52C821.051 472.52 818.85 472.017 817.082 471.012C815.314 470.007 813.962 468.62 813.026 466.852C812.09 465.049 811.57 463.004 811.466 460.716C811.431 460.127 811.414 459.381 811.414 458.48C811.414 457.544 811.431 456.799 811.466 456.244C811.57 453.921 812.09 451.876 813.026 450.108C813.996 448.34 815.366 446.953 817.134 445.948C818.902 444.943 821.086 444.44 823.686 444.44C826.286 444.44 828.47 444.943 830.238 445.948C832.006 446.953 833.358 448.34 834.294 450.108C835.264 451.876 835.802 453.921 835.906 456.244C835.94 456.799 835.958 457.544 835.958 458.48C835.958 459.381 835.94 460.127 835.906 460.716C835.802 463.004 835.282 465.049 834.346 466.852C833.41 468.62 832.058 470.007 830.29 471.012C828.522 472.017 826.32 472.52 823.686 472.52ZM823.686 468.516C825.835 468.516 827.551 467.84 828.834 466.488C830.116 465.101 830.81 463.091 830.914 460.456C830.948 459.936 830.966 459.277 830.966 458.48C830.966 457.683 830.948 457.024 830.914 456.504C830.81 453.869 830.116 451.876 828.834 450.524C827.551 449.137 825.835 448.444 823.686 448.444C821.536 448.444 819.803 449.137 818.486 450.524C817.203 451.876 816.527 453.869 816.458 456.504C816.423 457.024 816.406 457.683 816.406 458.48C816.406 459.277 816.423 459.936 816.458 460.456C816.527 463.091 817.203 465.101 818.486 466.488C819.803 467.84 821.536 468.516 823.686 468.516ZM843.717 472C843.37 472 843.076 471.896 842.833 471.688C842.625 471.445 842.521 471.151 842.521 470.804V436.276C842.521 435.929 842.625 435.652 842.833 435.444C843.076 435.201 843.37 435.08 843.717 435.08H846.161C846.542 435.08 846.837 435.201 847.045 435.444C847.253 435.652 847.357 435.929 847.357 436.276V470.804C847.357 471.151 847.253 471.445 847.045 471.688C846.837 471.896 846.542 472 846.161 472H843.717ZM870.795 472C870.448 472 870.154 471.896 869.911 471.688C869.703 471.445 869.599 471.151 869.599 470.804V449.12H865.179C864.832 449.12 864.538 449.016 864.295 448.808C864.087 448.565 863.983 448.271 863.983 447.924V446.156C863.983 445.809 864.087 445.532 864.295 445.324C864.538 445.081 864.832 444.96 865.179 444.96H869.599V442.36C869.599 440.592 869.894 439.049 870.483 437.732C871.072 436.38 872.008 435.34 873.291 434.612C874.608 433.884 876.359 433.52 878.543 433.52H881.663C882.01 433.52 882.287 433.641 882.495 433.884C882.703 434.092 882.807 434.369 882.807 434.716V436.484C882.807 436.831 882.703 437.125 882.495 437.368C882.287 437.576 882.01 437.68 881.663 437.68H878.647C877.018 437.68 875.908 438.113 875.319 438.98C874.73 439.812 874.435 441.025 874.435 442.62V444.96H881.143C881.49 444.96 881.767 445.081 881.975 445.324C882.183 445.532 882.287 445.809 882.287 446.156V447.924C882.287 448.271 882.183 448.565 881.975 448.808C881.767 449.016 881.49 449.12 881.143 449.12H874.435V470.804C874.435 471.151 874.314 471.445 874.071 471.688C873.863 471.896 873.586 472 873.239 472H870.795ZM897.471 472.52C894.836 472.52 892.635 472.017 890.867 471.012C889.099 470.007 887.747 468.62 886.811 466.852C885.875 465.049 885.355 463.004 885.251 460.716C885.216 460.127 885.199 459.381 885.199 458.48C885.199 457.544 885.216 456.799 885.251 456.244C885.355 453.921 885.875 451.876 886.811 450.108C887.782 448.34 889.151 446.953 890.919 445.948C892.687 444.943 894.871 444.44 897.471 444.44C900.071 444.44 902.255 444.943 904.023 445.948C905.791 446.953 907.143 448.34 908.079 450.108C909.05 451.876 909.587 453.921 909.691 456.244C909.726 456.799 909.743 457.544 909.743 458.48C909.743 459.381 909.726 460.127 909.691 460.716C909.587 463.004 909.067 465.049 908.131 466.852C907.195 468.62 905.843 470.007 904.075 471.012C902.307 472.017 900.106 472.52 897.471 472.52ZM897.471 468.516C899.62 468.516 901.336 467.84 902.619 466.488C903.902 465.101 904.595 463.091 904.699 460.456C904.734 459.936 904.751 459.277 904.751 458.48C904.751 457.683 904.734 457.024 904.699 456.504C904.595 453.869 903.902 451.876 902.619 450.524C901.336 449.137 899.62 448.444 897.471 448.444C895.322 448.444 893.588 449.137 892.271 450.524C890.988 451.876 890.312 453.869 890.243 456.504C890.208 457.024 890.191 457.683 890.191 458.48C890.191 459.277 890.208 459.936 890.243 460.456C890.312 463.091 890.988 465.101 892.271 466.488C893.588 467.84 895.322 468.516 897.471 468.516ZM917.45 472C917.104 472 916.809 471.896 916.566 471.688C916.358 471.445 916.254 471.151 916.254 470.804V446.208C916.254 445.861 916.358 445.567 916.566 445.324C916.809 445.081 917.104 444.96 917.45 444.96H919.842C920.189 444.96 920.484 445.081 920.726 445.324C920.969 445.567 921.09 445.861 921.09 446.208V448.496C921.784 447.317 922.737 446.433 923.95 445.844C925.164 445.255 926.62 444.96 928.318 444.96H930.398C930.745 444.96 931.022 445.081 931.23 445.324C931.438 445.532 931.542 445.809 931.542 446.156V448.288C931.542 448.635 931.438 448.912 931.23 449.12C931.022 449.328 930.745 449.432 930.398 449.432H927.278C925.406 449.432 923.933 449.987 922.858 451.096C921.784 452.171 921.246 453.644 921.246 455.516V470.804C921.246 471.151 921.125 471.445 920.882 471.688C920.64 471.896 920.345 472 919.998 472H917.45ZM960.9 472.52C958.82 472.52 957.086 472.156 955.7 471.428C954.313 470.665 953.204 469.729 952.372 468.62V470.804C952.372 471.151 952.25 471.445 952.008 471.688C951.8 471.896 951.522 472 951.176 472H948.784C948.437 472 948.142 471.896 947.9 471.688C947.692 471.445 947.588 471.151 947.588 470.804V436.276C947.588 435.929 947.692 435.652 947.9 435.444C948.142 435.201 948.437 435.08 948.784 435.08H951.28C951.661 435.08 951.956 435.201 952.164 435.444C952.372 435.652 952.476 435.929 952.476 436.276V448.236C953.342 447.161 954.452 446.26 955.804 445.532C957.19 444.804 958.889 444.44 960.9 444.44C962.841 444.44 964.488 444.787 965.84 445.48C967.226 446.139 968.353 447.057 969.22 448.236C970.121 449.415 970.797 450.749 971.248 452.24C971.698 453.731 971.941 455.291 971.976 456.92C972.01 457.475 972.028 457.995 972.028 458.48C972.028 458.965 972.01 459.485 971.976 460.04C971.941 461.704 971.698 463.281 971.248 464.772C970.797 466.263 970.121 467.597 969.22 468.776C968.353 469.92 967.226 470.839 965.84 471.532C964.488 472.191 962.841 472.52 960.9 472.52ZM959.808 468.308C961.61 468.308 963.014 467.927 964.02 467.164C965.06 466.367 965.805 465.344 966.256 464.096C966.706 462.813 966.966 461.444 967.036 459.988C967.07 458.983 967.07 457.977 967.036 456.972C966.966 455.516 966.706 454.164 966.256 452.916C965.805 451.633 965.06 450.611 964.02 449.848C963.014 449.051 961.61 448.652 959.808 448.652C958.178 448.652 956.826 449.033 955.752 449.796C954.677 450.559 953.862 451.529 953.308 452.708C952.788 453.887 952.51 455.083 952.476 456.296C952.441 456.851 952.424 457.527 952.424 458.324C952.424 459.087 952.441 459.745 952.476 460.3C952.545 461.583 952.822 462.848 953.308 464.096C953.828 465.309 954.608 466.315 955.648 467.112C956.722 467.909 958.109 468.308 959.808 468.308ZM988.549 472.52C986.331 472.52 984.441 472.035 982.881 471.064C981.356 470.059 980.195 468.672 979.397 466.904C978.6 465.136 978.201 463.108 978.201 460.82V446.156C978.201 445.809 978.305 445.532 978.513 445.324C978.756 445.081 979.051 444.96 979.397 444.96H981.997C982.344 444.96 982.621 445.081 982.829 445.324C983.072 445.532 983.193 445.809 983.193 446.156V460.56C983.193 465.725 985.447 468.308 989.953 468.308C992.103 468.308 993.819 467.632 995.101 466.28C996.419 464.893 997.077 462.987 997.077 460.56V446.156C997.077 445.809 997.181 445.532 997.389 445.324C997.632 445.081 997.927 444.96 998.273 444.96H1000.82C1001.2 444.96 1001.5 445.081 1001.71 445.324C1001.91 445.532 1002.02 445.809 1002.02 446.156V470.804C1002.02 471.151 1001.91 471.445 1001.71 471.688C1001.5 471.896 1001.2 472 1000.82 472H998.429C998.083 472 997.788 471.896 997.545 471.688C997.337 471.445 997.233 471.151 997.233 470.804V468.516C996.297 469.729 995.153 470.7 993.801 471.428C992.484 472.156 990.733 472.52 988.549 472.52ZM1010.94 472C1010.59 472 1010.3 471.896 1010.05 471.688C1009.85 471.445 1009.74 471.151 1009.74 470.804V446.156C1009.74 445.809 1009.85 445.532 1010.05 445.324C1010.3 445.081 1010.59 444.96 1010.94 444.96H1013.43C1013.78 444.96 1014.06 445.081 1014.27 445.324C1014.47 445.532 1014.58 445.809 1014.58 446.156V470.804C1014.58 471.151 1014.47 471.445 1014.27 471.688C1014.06 471.896 1013.78 472 1013.43 472H1010.94ZM1010.52 439.916C1010.18 439.916 1009.88 439.812 1009.64 439.604C1009.43 439.361 1009.33 439.067 1009.33 438.72V435.912C1009.33 435.565 1009.43 435.288 1009.64 435.08C1009.88 434.837 1010.18 434.716 1010.52 434.716H1013.8C1014.15 434.716 1014.42 434.837 1014.63 435.08C1014.87 435.288 1014.99 435.565 1014.99 435.912V438.72C1014.99 439.067 1014.87 439.361 1014.63 439.604C1014.42 439.812 1014.15 439.916 1013.8 439.916H1010.52ZM1023.58 472C1023.24 472 1022.94 471.896 1022.7 471.688C1022.49 471.445 1022.39 471.151 1022.39 470.804V436.276C1022.39 435.929 1022.49 435.652 1022.7 435.444C1022.94 435.201 1023.24 435.08 1023.58 435.08H1026.03C1026.41 435.08 1026.7 435.201 1026.91 435.444C1027.12 435.652 1027.22 435.929 1027.22 436.276V470.804C1027.22 471.151 1027.12 471.445 1026.91 471.688C1026.7 471.896 1026.41 472 1026.03 472H1023.58ZM1044.86 472.52C1042.95 472.52 1041.31 472.191 1039.92 471.532C1038.53 470.839 1037.39 469.92 1036.49 468.776C1035.62 467.597 1034.96 466.263 1034.51 464.772C1034.1 463.281 1033.85 461.704 1033.78 460.04C1033.75 459.485 1033.73 458.965 1033.73 458.48C1033.73 457.995 1033.75 457.475 1033.78 456.92C1033.85 455.291 1034.1 453.731 1034.51 452.24C1034.96 450.749 1035.62 449.415 1036.49 448.236C1037.39 447.057 1038.53 446.139 1039.92 445.48C1041.31 444.787 1042.95 444.44 1044.86 444.44C1046.91 444.44 1048.6 444.804 1049.96 445.532C1051.31 446.26 1052.42 447.161 1053.28 448.236V436.276C1053.28 435.929 1053.39 435.652 1053.6 435.444C1053.84 435.201 1054.13 435.08 1054.48 435.08H1056.98C1057.32 435.08 1057.6 435.201 1057.81 435.444C1058.05 435.652 1058.17 435.929 1058.17 436.276V470.804C1058.17 471.151 1058.05 471.445 1057.81 471.688C1057.6 471.896 1057.32 472 1056.98 472H1054.64C1054.26 472 1053.96 471.896 1053.75 471.688C1053.54 471.445 1053.44 471.151 1053.44 470.804V468.62C1052.57 469.729 1051.45 470.665 1050.06 471.428C1048.67 472.156 1046.94 472.52 1044.86 472.52ZM1045.95 468.308C1047.69 468.308 1049.07 467.909 1050.11 467.112C1051.15 466.315 1051.93 465.309 1052.45 464.096C1052.97 462.848 1053.25 461.583 1053.28 460.3C1053.32 459.745 1053.34 459.087 1053.34 458.324C1053.34 457.527 1053.32 456.851 1053.28 456.296C1053.25 455.083 1052.96 453.887 1052.4 452.708C1051.88 451.529 1051.08 450.559 1050.01 449.796C1048.97 449.033 1047.62 448.652 1045.95 448.652C1044.18 448.652 1042.78 449.051 1041.74 449.848C1040.7 450.611 1039.96 451.633 1039.5 452.916C1039.05 454.164 1038.79 455.516 1038.72 456.972C1038.69 457.977 1038.69 458.983 1038.72 459.988C1038.79 461.444 1039.05 462.813 1039.5 464.096C1039.96 465.344 1040.7 466.367 1041.74 467.164C1042.78 467.927 1044.18 468.308 1045.95 468.308ZM1067.1 472C1066.76 472 1066.46 471.896 1066.22 471.688C1066.01 471.445 1065.91 471.151 1065.91 470.804V446.156C1065.91 445.809 1066.01 445.532 1066.22 445.324C1066.46 445.081 1066.76 444.96 1067.1 444.96H1069.6C1069.95 444.96 1070.22 445.081 1070.43 445.324C1070.64 445.532 1070.74 445.809 1070.74 446.156V470.804C1070.74 471.151 1070.64 471.445 1070.43 471.688C1070.22 471.896 1069.95 472 1069.6 472H1067.1ZM1066.69 439.916C1066.34 439.916 1066.05 439.812 1065.8 439.604C1065.59 439.361 1065.49 439.067 1065.49 438.72V435.912C1065.49 435.565 1065.59 435.288 1065.8 435.08C1066.05 434.837 1066.34 434.716 1066.69 434.716H1069.96C1070.31 434.716 1070.59 434.837 1070.79 435.08C1071.04 435.288 1071.16 435.565 1071.16 435.912V438.72C1071.16 439.067 1071.04 439.361 1070.79 439.604C1070.59 439.812 1070.31 439.916 1069.96 439.916H1066.69ZM1080.2 472C1079.86 472 1079.56 471.896 1079.32 471.688C1079.11 471.445 1079.01 471.151 1079.01 470.804V446.156C1079.01 445.809 1079.11 445.532 1079.32 445.324C1079.56 445.081 1079.86 444.96 1080.2 444.96H1082.65C1082.99 444.96 1083.27 445.081 1083.48 445.324C1083.72 445.532 1083.84 445.809 1083.84 446.156V448.444C1084.75 447.265 1085.87 446.312 1087.22 445.584C1088.61 444.821 1090.38 444.44 1092.53 444.44C1094.78 444.44 1096.69 444.943 1098.25 445.948C1099.84 446.919 1101.04 448.288 1101.84 450.056C1102.63 451.789 1103.03 453.817 1103.03 456.14V470.804C1103.03 471.151 1102.93 471.445 1102.72 471.688C1102.51 471.896 1102.23 472 1101.89 472H1099.29C1098.94 472 1098.65 471.896 1098.4 471.688C1098.2 471.445 1098.09 471.151 1098.09 470.804V456.4C1098.09 453.973 1097.5 452.084 1096.32 450.732C1095.15 449.345 1093.41 448.652 1091.12 448.652C1088.97 448.652 1087.24 449.345 1085.92 450.732C1084.64 452.084 1084 453.973 1084 456.4V470.804C1084 471.151 1083.88 471.445 1083.64 471.688C1083.43 471.896 1083.15 472 1082.8 472H1080.2ZM1121.62 483.44C1119.26 483.44 1117.32 483.128 1115.8 482.504C1114.3 481.88 1113.13 481.117 1112.26 480.216C1111.43 479.349 1110.82 478.465 1110.44 477.564C1110.09 476.697 1109.9 476.004 1109.87 475.484C1109.83 475.137 1109.94 474.843 1110.18 474.6C1110.46 474.357 1110.75 474.236 1111.06 474.236H1113.56C1113.87 474.236 1114.13 474.305 1114.34 474.444C1114.55 474.583 1114.72 474.877 1114.86 475.328C1115.07 475.848 1115.38 476.42 1115.8 477.044C1116.21 477.703 1116.85 478.257 1117.72 478.708C1118.59 479.193 1119.8 479.436 1121.36 479.436C1122.99 479.436 1124.36 479.211 1125.47 478.76C1126.58 478.344 1127.41 477.581 1127.96 476.472C1128.55 475.397 1128.85 473.907 1128.85 472V468.464C1128.02 469.539 1126.92 470.44 1125.57 471.168C1124.22 471.861 1122.52 472.208 1120.48 472.208C1118.53 472.208 1116.87 471.879 1115.48 471.22C1114.1 470.527 1112.95 469.608 1112.05 468.464C1111.18 467.285 1110.53 465.951 1110.08 464.46C1109.66 462.969 1109.42 461.409 1109.35 459.78C1109.31 458.809 1109.31 457.856 1109.35 456.92C1109.42 455.291 1109.66 453.731 1110.08 452.24C1110.53 450.749 1111.18 449.415 1112.05 448.236C1112.95 447.057 1114.1 446.139 1115.48 445.48C1116.87 444.787 1118.53 444.44 1120.48 444.44C1122.56 444.44 1124.27 444.839 1125.62 445.636C1127.01 446.399 1128.14 447.335 1129 448.444V446.208C1129 445.861 1129.11 445.567 1129.32 445.324C1129.56 445.081 1129.85 444.96 1130.2 444.96H1132.59C1132.94 444.96 1133.23 445.081 1133.48 445.324C1133.72 445.567 1133.84 445.861 1133.84 446.208V471.428C1133.84 473.751 1133.44 475.813 1132.64 477.616C1131.88 479.419 1130.6 480.84 1128.8 481.88C1127.03 482.92 1124.64 483.44 1121.62 483.44ZM1121.52 468.048C1123.25 468.048 1124.64 467.649 1125.68 466.852C1126.75 466.055 1127.53 465.049 1128.02 463.836C1128.54 462.623 1128.81 461.392 1128.85 460.144C1128.88 459.659 1128.9 459.069 1128.9 458.376C1128.9 457.648 1128.88 457.041 1128.85 456.556C1128.81 455.308 1128.54 454.077 1128.02 452.864C1127.53 451.651 1126.75 450.645 1125.68 449.848C1124.64 449.051 1123.25 448.652 1121.52 448.652C1119.78 448.652 1118.4 449.051 1117.36 449.848C1116.32 450.611 1115.57 451.633 1115.12 452.916C1114.67 454.164 1114.41 455.516 1114.34 456.972C1114.3 457.873 1114.3 458.792 1114.34 459.728C1114.41 461.184 1114.67 462.553 1115.12 463.836C1115.57 465.084 1116.32 466.107 1117.36 466.904C1118.4 467.667 1119.78 468.048 1121.52 468.048ZM524.551 534.52C520.981 534.52 518.138 533.428 516.023 531.244C513.909 529.025 512.747 526.009 512.539 522.196C512.505 521.745 512.487 521.173 512.487 520.48C512.487 519.752 512.505 519.163 512.539 518.712C512.678 516.251 513.25 514.101 514.255 512.264C515.261 510.392 516.63 508.953 518.363 507.948C520.131 506.943 522.194 506.44 524.551 506.44C527.186 506.44 529.387 506.995 531.155 508.104C532.958 509.213 534.327 510.791 535.263 512.836C536.199 514.881 536.667 517.273 536.667 520.012V520.896C536.667 521.277 536.546 521.572 536.303 521.78C536.095 521.988 535.818 522.092 535.471 522.092H517.479C517.479 522.127 517.479 522.196 517.479 522.3C517.479 522.404 517.479 522.491 517.479 522.56C517.549 523.981 517.861 525.316 518.415 526.564C518.97 527.777 519.767 528.765 520.807 529.528C521.847 530.291 523.095 530.672 524.551 530.672C525.799 530.672 526.839 530.481 527.671 530.1C528.503 529.719 529.179 529.303 529.699 528.852C530.219 528.367 530.566 528.003 530.739 527.76C531.051 527.309 531.294 527.049 531.467 526.98C531.641 526.876 531.918 526.824 532.299 526.824H534.795C535.142 526.824 535.419 526.928 535.627 527.136C535.87 527.309 535.974 527.569 535.939 527.916C535.905 528.436 535.627 529.077 535.107 529.84C534.587 530.568 533.842 531.296 532.871 532.024C531.901 532.752 530.722 533.359 529.335 533.844C527.949 534.295 526.354 534.52 524.551 534.52ZM517.479 518.504H531.727V518.348C531.727 516.788 531.433 515.401 530.843 514.188C530.289 512.975 529.474 512.021 528.399 511.328C527.325 510.6 526.042 510.236 524.551 510.236C523.061 510.236 521.778 510.6 520.703 511.328C519.663 512.021 518.866 512.975 518.311 514.188C517.757 515.401 517.479 516.788 517.479 518.348V518.504ZM552.765 534.52C550.858 534.52 549.212 534.191 547.825 533.532C546.438 532.839 545.294 531.92 544.393 530.776C543.526 529.597 542.868 528.263 542.417 526.772C542.001 525.281 541.758 523.704 541.689 522.04C541.654 521.485 541.637 520.965 541.637 520.48C541.637 519.995 541.654 519.475 541.689 518.92C541.758 517.291 542.001 515.731 542.417 514.24C542.868 512.749 543.526 511.415 544.393 510.236C545.294 509.057 546.438 508.139 547.825 507.48C549.212 506.787 550.858 506.44 552.765 506.44C554.81 506.44 556.509 506.804 557.861 507.532C559.213 508.26 560.322 509.161 561.189 510.236V498.276C561.189 497.929 561.293 497.652 561.501 497.444C561.744 497.201 562.038 497.08 562.385 497.08H564.881C565.228 497.08 565.505 497.201 565.713 497.444C565.956 497.652 566.077 497.929 566.077 498.276V532.804C566.077 533.151 565.956 533.445 565.713 533.688C565.505 533.896 565.228 534 564.881 534H562.541C562.16 534 561.865 533.896 561.657 533.688C561.449 533.445 561.345 533.151 561.345 532.804V530.62C560.478 531.729 559.352 532.665 557.965 533.428C556.578 534.156 554.845 534.52 552.765 534.52ZM553.857 530.308C555.59 530.308 556.977 529.909 558.017 529.112C559.057 528.315 559.837 527.309 560.357 526.096C560.877 524.848 561.154 523.583 561.189 522.3C561.224 521.745 561.241 521.087 561.241 520.324C561.241 519.527 561.224 518.851 561.189 518.296C561.154 517.083 560.86 515.887 560.305 514.708C559.785 513.529 558.988 512.559 557.913 511.796C556.873 511.033 555.521 510.652 553.857 510.652C552.089 510.652 550.685 511.051 549.645 511.848C548.605 512.611 547.86 513.633 547.409 514.916C546.958 516.164 546.698 517.516 546.629 518.972C546.594 519.977 546.594 520.983 546.629 521.988C546.698 523.444 546.958 524.813 547.409 526.096C547.86 527.344 548.605 528.367 549.645 529.164C550.685 529.927 552.089 530.308 553.857 530.308ZM583.899 534.52C581.68 534.52 579.791 534.035 578.231 533.064C576.706 532.059 575.544 530.672 574.747 528.904C573.95 527.136 573.551 525.108 573.551 522.82V508.156C573.551 507.809 573.655 507.532 573.863 507.324C574.106 507.081 574.4 506.96 574.747 506.96H577.347C577.694 506.96 577.971 507.081 578.179 507.324C578.422 507.532 578.543 507.809 578.543 508.156V522.56C578.543 527.725 580.796 530.308 585.303 530.308C587.452 530.308 589.168 529.632 590.451 528.28C591.768 526.893 592.427 524.987 592.427 522.56V508.156C592.427 507.809 592.531 507.532 592.739 507.324C592.982 507.081 593.276 506.96 593.623 506.96H596.171C596.552 506.96 596.847 507.081 597.055 507.324C597.263 507.532 597.367 507.809 597.367 508.156V532.804C597.367 533.151 597.263 533.445 597.055 533.688C596.847 533.896 596.552 534 596.171 534H593.779C593.432 534 593.138 533.896 592.895 533.688C592.687 533.445 592.583 533.151 592.583 532.804V530.516C591.647 531.729 590.503 532.7 589.151 533.428C587.834 534.156 586.083 534.52 583.899 534.52ZM616.012 534.52C613.551 534.52 611.419 534.052 609.616 533.116C607.848 532.145 606.479 530.776 605.508 529.008C604.537 527.205 604.017 525.056 603.948 522.56C603.913 522.04 603.896 521.347 603.896 520.48C603.896 519.613 603.913 518.92 603.948 518.4C604.017 515.904 604.537 513.772 605.508 512.004C606.479 510.201 607.848 508.832 609.616 507.896C611.419 506.925 613.551 506.44 616.012 506.44C618.023 506.44 619.739 506.717 621.16 507.272C622.616 507.827 623.812 508.537 624.748 509.404C625.684 510.271 626.377 511.207 626.828 512.212C627.313 513.217 627.573 514.171 627.608 515.072C627.643 515.419 627.539 515.696 627.296 515.904C627.053 516.112 626.759 516.216 626.412 516.216H623.916C623.569 516.216 623.309 516.147 623.136 516.008C622.963 515.835 622.789 515.557 622.616 515.176C621.992 513.477 621.143 512.281 620.068 511.588C618.993 510.895 617.659 510.548 616.064 510.548C613.984 510.548 612.285 511.189 610.968 512.472C609.685 513.755 608.992 515.817 608.888 518.66C608.853 519.908 608.853 521.121 608.888 522.3C608.992 525.177 609.685 527.257 610.968 528.54C612.285 529.788 613.984 530.412 616.064 530.412C617.659 530.412 618.993 530.065 620.068 529.372C621.143 528.679 621.992 527.483 622.616 525.784C622.789 525.403 622.963 525.143 623.136 525.004C623.309 524.831 623.569 524.744 623.916 524.744H626.412C626.759 524.744 627.053 524.848 627.296 525.056C627.539 525.264 627.643 525.541 627.608 525.888C627.573 526.616 627.417 527.361 627.14 528.124C626.863 528.887 626.412 529.667 625.788 530.464C625.199 531.227 624.453 531.92 623.552 532.544C622.651 533.133 621.559 533.619 620.276 534C619.028 534.347 617.607 534.52 616.012 534.52ZM641.324 534.52C639.59 534.52 638.013 534.173 636.592 533.48C635.17 532.787 634.026 531.851 633.16 530.672C632.293 529.493 631.86 528.159 631.86 526.668C631.86 524.276 632.83 522.369 634.772 520.948C636.713 519.527 639.244 518.591 642.364 518.14L650.112 517.048V515.54C650.112 513.876 649.626 512.576 648.656 511.64C647.72 510.704 646.177 510.236 644.028 510.236C642.468 510.236 641.202 510.548 640.232 511.172C639.296 511.796 638.637 512.593 638.256 513.564C638.048 514.084 637.684 514.344 637.164 514.344H634.824C634.442 514.344 634.148 514.24 633.94 514.032C633.766 513.789 633.68 513.512 633.68 513.2C633.68 512.68 633.87 512.039 634.252 511.276C634.668 510.513 635.292 509.768 636.124 509.04C636.956 508.312 638.013 507.705 639.296 507.22C640.613 506.7 642.208 506.44 644.08 506.44C646.16 506.44 647.91 506.717 649.332 507.272C650.753 507.792 651.862 508.503 652.66 509.404C653.492 510.305 654.081 511.328 654.428 512.472C654.809 513.616 655 514.777 655 515.956V532.804C655 533.151 654.878 533.445 654.636 533.688C654.428 533.896 654.15 534 653.804 534H651.412C651.03 534 650.736 533.896 650.528 533.688C650.32 533.445 650.216 533.151 650.216 532.804V530.568C649.765 531.192 649.158 531.816 648.396 532.44C647.633 533.029 646.68 533.532 645.536 533.948C644.392 534.329 642.988 534.52 641.324 534.52ZM642.416 530.62C643.837 530.62 645.137 530.325 646.316 529.736C647.494 529.112 648.413 528.159 649.072 526.876C649.765 525.593 650.112 523.981 650.112 522.04V520.584L644.08 521.468C641.618 521.815 639.764 522.404 638.516 523.236C637.268 524.033 636.644 525.056 636.644 526.304C636.644 527.275 636.921 528.089 637.476 528.748C638.065 529.372 638.793 529.84 639.66 530.152C640.561 530.464 641.48 530.62 642.416 530.62ZM672.777 534C670.836 534 669.258 533.636 668.045 532.908C666.832 532.145 665.948 531.088 665.393 529.736C664.838 528.349 664.561 526.72 664.561 524.848V511.12H660.505C660.158 511.12 659.864 511.016 659.621 510.808C659.413 510.565 659.309 510.271 659.309 509.924V508.156C659.309 507.809 659.413 507.532 659.621 507.324C659.864 507.081 660.158 506.96 660.505 506.96H664.561V498.276C664.561 497.929 664.665 497.652 664.873 497.444C665.116 497.201 665.41 497.08 665.757 497.08H668.201C668.548 497.08 668.825 497.201 669.033 497.444C669.276 497.652 669.397 497.929 669.397 498.276V506.96H675.845C676.192 506.96 676.469 507.081 676.677 507.324C676.92 507.532 677.041 507.809 677.041 508.156V509.924C677.041 510.271 676.92 510.565 676.677 510.808C676.469 511.016 676.192 511.12 675.845 511.12H669.397V524.484C669.397 526.113 669.674 527.396 670.229 528.332C670.784 529.268 671.772 529.736 673.193 529.736H676.365C676.712 529.736 676.989 529.857 677.197 530.1C677.44 530.308 677.561 530.585 677.561 530.932V532.804C677.561 533.151 677.44 533.445 677.197 533.688C676.989 533.896 676.712 534 676.365 534H672.777ZM683.73 534C683.383 534 683.088 533.896 682.846 533.688C682.638 533.445 682.534 533.151 682.534 532.804V508.156C682.534 507.809 682.638 507.532 682.846 507.324C683.088 507.081 683.383 506.96 683.73 506.96H686.226C686.572 506.96 686.85 507.081 687.058 507.324C687.266 507.532 687.37 507.809 687.37 508.156V532.804C687.37 533.151 687.266 533.445 687.058 533.688C686.85 533.896 686.572 534 686.226 534H683.73ZM683.314 501.916C682.967 501.916 682.672 501.812 682.43 501.604C682.222 501.361 682.118 501.067 682.118 500.72V497.912C682.118 497.565 682.222 497.288 682.43 497.08C682.672 496.837 682.967 496.716 683.314 496.716H686.59C686.936 496.716 687.214 496.837 687.422 497.08C687.664 497.288 687.786 497.565 687.786 497.912V500.72C687.786 501.067 687.664 501.361 687.422 501.604C687.214 501.812 686.936 501.916 686.59 501.916H683.314ZM706.305 534.52C703.67 534.52 701.469 534.017 699.701 533.012C697.933 532.007 696.581 530.62 695.645 528.852C694.709 527.049 694.189 525.004 694.085 522.716C694.05 522.127 694.033 521.381 694.033 520.48C694.033 519.544 694.05 518.799 694.085 518.244C694.189 515.921 694.709 513.876 695.645 512.108C696.616 510.34 697.985 508.953 699.753 507.948C701.521 506.943 703.705 506.44 706.305 506.44C708.905 506.44 711.089 506.943 712.857 507.948C714.625 508.953 715.977 510.34 716.913 512.108C717.884 513.876 718.421 515.921 718.525 518.244C718.56 518.799 718.577 519.544 718.577 520.48C718.577 521.381 718.56 522.127 718.525 522.716C718.421 525.004 717.901 527.049 716.965 528.852C716.029 530.62 714.677 532.007 712.909 533.012C711.141 534.017 708.94 534.52 706.305 534.52ZM706.305 530.516C708.454 530.516 710.17 529.84 711.453 528.488C712.736 527.101 713.429 525.091 713.533 522.456C713.568 521.936 713.585 521.277 713.585 520.48C713.585 519.683 713.568 519.024 713.533 518.504C713.429 515.869 712.736 513.876 711.453 512.524C710.17 511.137 708.454 510.444 706.305 510.444C704.156 510.444 702.422 511.137 701.105 512.524C699.822 513.876 699.146 515.869 699.077 518.504C699.042 519.024 699.025 519.683 699.025 520.48C699.025 521.277 699.042 521.936 699.077 522.456C699.146 525.091 699.822 527.101 701.105 528.488C702.422 529.84 704.156 530.516 706.305 530.516ZM726.284 534C725.938 534 725.643 533.896 725.4 533.688C725.192 533.445 725.088 533.151 725.088 532.804V508.156C725.088 507.809 725.192 507.532 725.4 507.324C725.643 507.081 725.938 506.96 726.284 506.96H728.728C729.075 506.96 729.352 507.081 729.56 507.324C729.803 507.532 729.924 507.809 729.924 508.156V510.444C730.826 509.265 731.952 508.312 733.304 507.584C734.691 506.821 736.459 506.44 738.608 506.44C740.862 506.44 742.768 506.943 744.328 507.948C745.923 508.919 747.119 510.288 747.916 512.056C748.714 513.789 749.112 515.817 749.112 518.14V532.804C749.112 533.151 749.008 533.445 748.8 533.688C748.592 533.896 748.315 534 747.968 534H745.368C745.022 534 744.727 533.896 744.484 533.688C744.276 533.445 744.172 533.151 744.172 532.804V518.4C744.172 515.973 743.583 514.084 742.404 512.732C741.226 511.345 739.492 510.652 737.204 510.652C735.055 510.652 733.322 511.345 732.004 512.732C730.722 514.084 730.08 515.973 730.08 518.4V532.804C730.08 533.151 729.959 533.445 729.716 533.688C729.508 533.896 729.231 534 728.884 534H726.284ZM764.163 534.52C762.43 534.52 760.853 534.173 759.431 533.48C758.01 532.787 756.866 531.851 755.999 530.672C755.133 529.493 754.699 528.159 754.699 526.668C754.699 524.276 755.67 522.369 757.611 520.948C759.553 519.527 762.083 518.591 765.203 518.14L772.951 517.048V515.54C772.951 513.876 772.466 512.576 771.495 511.64C770.559 510.704 769.017 510.236 766.867 510.236C765.307 510.236 764.042 510.548 763.071 511.172C762.135 511.796 761.477 512.593 761.095 513.564C760.887 514.084 760.523 514.344 760.003 514.344H757.663C757.282 514.344 756.987 514.24 756.779 514.032C756.606 513.789 756.519 513.512 756.519 513.2C756.519 512.68 756.71 512.039 757.091 511.276C757.507 510.513 758.131 509.768 758.963 509.04C759.795 508.312 760.853 507.705 762.135 507.22C763.453 506.7 765.047 506.44 766.919 506.44C768.999 506.44 770.75 506.717 772.171 507.272C773.593 507.792 774.702 508.503 775.499 509.404C776.331 510.305 776.921 511.328 777.267 512.472C777.649 513.616 777.839 514.777 777.839 515.956V532.804C777.839 533.151 777.718 533.445 777.475 533.688C777.267 533.896 776.99 534 776.643 534H774.251C773.87 534 773.575 533.896 773.367 533.688C773.159 533.445 773.055 533.151 773.055 532.804V530.568C772.605 531.192 771.998 531.816 771.235 532.44C770.473 533.029 769.519 533.532 768.375 533.948C767.231 534.329 765.827 534.52 764.163 534.52ZM765.255 530.62C766.677 530.62 767.977 530.325 769.155 529.736C770.334 529.112 771.253 528.159 771.911 526.876C772.605 525.593 772.951 523.981 772.951 522.04V520.584L766.919 521.468C764.458 521.815 762.603 522.404 761.355 523.236C760.107 524.033 759.483 525.056 759.483 526.304C759.483 527.275 759.761 528.089 760.315 528.748C760.905 529.372 761.633 529.84 762.499 530.152C763.401 530.464 764.319 530.62 765.255 530.62ZM786.563 534C786.216 534 785.921 533.896 785.679 533.688C785.471 533.445 785.367 533.151 785.367 532.804V498.276C785.367 497.929 785.471 497.652 785.679 497.444C785.921 497.201 786.216 497.08 786.563 497.08H789.007C789.388 497.08 789.683 497.201 789.891 497.444C790.099 497.652 790.203 497.929 790.203 498.276V532.804C790.203 533.151 790.099 533.445 789.891 533.688C789.683 533.896 789.388 534 789.007 534H786.563ZM811.953 543.88C811.607 543.88 811.312 543.759 811.069 543.516C810.861 543.308 810.757 543.031 810.757 542.684V508.156C810.757 507.809 810.861 507.532 811.069 507.324C811.312 507.081 811.607 506.96 811.953 506.96H814.345C814.692 506.96 814.969 507.081 815.177 507.324C815.42 507.532 815.541 507.809 815.541 508.156V510.444C816.373 509.3 817.483 508.347 818.869 507.584C820.256 506.821 821.989 506.44 824.069 506.44C826.011 506.44 827.657 506.769 829.009 507.428C830.396 508.087 831.523 508.988 832.389 510.132C833.291 511.276 833.967 512.576 834.417 514.032C834.868 515.488 835.111 517.048 835.145 518.712C835.18 519.267 835.197 519.856 835.197 520.48C835.197 521.104 835.18 521.693 835.145 522.248C835.111 523.877 834.868 525.437 834.417 526.928C833.967 528.384 833.291 529.684 832.389 530.828C831.523 531.937 830.396 532.839 829.009 533.532C827.657 534.191 826.011 534.52 824.069 534.52C822.059 534.52 820.36 534.156 818.973 533.428C817.621 532.665 816.512 531.729 815.645 530.62V542.684C815.645 543.031 815.541 543.308 815.333 543.516C815.125 543.759 814.831 543.88 814.449 543.88H811.953ZM822.977 530.308C824.78 530.308 826.184 529.927 827.189 529.164C828.229 528.367 828.975 527.344 829.425 526.096C829.876 524.813 830.136 523.444 830.205 521.988C830.24 520.983 830.24 519.977 830.205 518.972C830.136 517.516 829.876 516.164 829.425 514.916C828.975 513.633 828.229 512.611 827.189 511.848C826.184 511.051 824.78 510.652 822.977 510.652C821.279 510.652 819.892 511.051 818.817 511.848C817.777 512.645 816.997 513.668 816.477 514.916C815.992 516.129 815.715 517.377 815.645 518.66C815.611 519.215 815.593 519.873 815.593 520.636C815.593 521.399 815.611 522.075 815.645 522.664C815.68 523.877 815.957 525.073 816.477 526.252C817.032 527.431 817.847 528.401 818.921 529.164C819.996 529.927 821.348 530.308 822.977 530.308ZM842.93 534C842.583 534 842.289 533.896 842.046 533.688C841.838 533.445 841.734 533.151 841.734 532.804V498.276C841.734 497.929 841.838 497.652 842.046 497.444C842.289 497.201 842.583 497.08 842.93 497.08H845.374C845.755 497.08 846.05 497.201 846.258 497.444C846.466 497.652 846.57 497.929 846.57 498.276V532.804C846.57 533.151 846.466 533.445 846.258 533.688C846.05 533.896 845.755 534 845.374 534H842.93ZM861.867 534.52C860.133 534.52 858.556 534.173 857.135 533.48C855.713 532.787 854.569 531.851 853.703 530.672C852.836 529.493 852.403 528.159 852.403 526.668C852.403 524.276 853.373 522.369 855.315 520.948C857.256 519.527 859.787 518.591 862.907 518.14L870.655 517.048V515.54C870.655 513.876 870.169 512.576 869.199 511.64C868.263 510.704 866.72 510.236 864.571 510.236C863.011 510.236 861.745 510.548 860.775 511.172C859.839 511.796 859.18 512.593 858.799 513.564C858.591 514.084 858.227 514.344 857.707 514.344H855.367C854.985 514.344 854.691 514.24 854.483 514.032C854.309 513.789 854.223 513.512 854.223 513.2C854.223 512.68 854.413 512.039 854.795 511.276C855.211 510.513 855.835 509.768 856.667 509.04C857.499 508.312 858.556 507.705 859.839 507.22C861.156 506.7 862.751 506.44 864.623 506.44C866.703 506.44 868.453 506.717 869.875 507.272C871.296 507.792 872.405 508.503 873.203 509.404C874.035 510.305 874.624 511.328 874.971 512.472C875.352 513.616 875.543 514.777 875.543 515.956V532.804C875.543 533.151 875.421 533.445 875.179 533.688C874.971 533.896 874.693 534 874.347 534H871.955C871.573 534 871.279 533.896 871.071 533.688C870.863 533.445 870.759 533.151 870.759 532.804V530.568C870.308 531.192 869.701 531.816 868.939 532.44C868.176 533.029 867.223 533.532 866.079 533.948C864.935 534.329 863.531 534.52 861.867 534.52ZM862.959 530.62C864.38 530.62 865.68 530.325 866.859 529.736C868.037 529.112 868.956 528.159 869.615 526.876C870.308 525.593 870.655 523.981 870.655 522.04V520.584L864.623 521.468C862.161 521.815 860.307 522.404 859.059 523.236C857.811 524.033 857.187 525.056 857.187 526.304C857.187 527.275 857.464 528.089 858.019 528.748C858.608 529.372 859.336 529.84 860.203 530.152C861.104 530.464 862.023 530.62 862.959 530.62ZM893.32 534C891.379 534 889.801 533.636 888.588 532.908C887.375 532.145 886.491 531.088 885.936 529.736C885.381 528.349 885.104 526.72 885.104 524.848V511.12H881.048C880.701 511.12 880.407 511.016 880.164 510.808C879.956 510.565 879.852 510.271 879.852 509.924V508.156C879.852 507.809 879.956 507.532 880.164 507.324C880.407 507.081 880.701 506.96 881.048 506.96H885.104V498.276C885.104 497.929 885.208 497.652 885.416 497.444C885.659 497.201 885.953 497.08 886.3 497.08H888.744C889.091 497.08 889.368 497.201 889.576 497.444C889.819 497.652 889.94 497.929 889.94 498.276V506.96H896.388C896.735 506.96 897.012 507.081 897.22 507.324C897.463 507.532 897.584 507.809 897.584 508.156V509.924C897.584 510.271 897.463 510.565 897.22 510.808C897.012 511.016 896.735 511.12 896.388 511.12H889.94V524.484C889.94 526.113 890.217 527.396 890.772 528.332C891.327 529.268 892.315 529.736 893.736 529.736H896.908C897.255 529.736 897.532 529.857 897.74 530.1C897.983 530.308 898.104 530.585 898.104 530.932V532.804C898.104 533.151 897.983 533.445 897.74 533.688C897.532 533.896 897.255 534 896.908 534H893.32ZM906.977 534C906.63 534 906.335 533.896 906.093 533.688C905.885 533.445 905.781 533.151 905.781 532.804V511.12H901.361C901.014 511.12 900.719 511.016 900.477 510.808C900.269 510.565 900.165 510.271 900.165 509.924V508.156C900.165 507.809 900.269 507.532 900.477 507.324C900.719 507.081 901.014 506.96 901.361 506.96H905.781V504.36C905.781 502.592 906.075 501.049 906.665 499.732C907.254 498.38 908.19 497.34 909.473 496.612C910.79 495.884 912.541 495.52 914.725 495.52H917.845C918.191 495.52 918.469 495.641 918.677 495.884C918.885 496.092 918.989 496.369 918.989 496.716V498.484C918.989 498.831 918.885 499.125 918.677 499.368C918.469 499.576 918.191 499.68 917.845 499.68H914.829C913.199 499.68 912.09 500.113 911.501 500.98C910.911 501.812 910.617 503.025 910.617 504.62V506.96H917.325C917.671 506.96 917.949 507.081 918.157 507.324C918.365 507.532 918.469 507.809 918.469 508.156V509.924C918.469 510.271 918.365 510.565 918.157 510.808C917.949 511.016 917.671 511.12 917.325 511.12H910.617V532.804C910.617 533.151 910.495 533.445 910.253 533.688C910.045 533.896 909.767 534 909.421 534H906.977ZM933.653 534.52C931.018 534.52 928.817 534.017 927.049 533.012C925.281 532.007 923.929 530.62 922.993 528.852C922.057 527.049 921.537 525.004 921.433 522.716C921.398 522.127 921.381 521.381 921.381 520.48C921.381 519.544 921.398 518.799 921.433 518.244C921.537 515.921 922.057 513.876 922.993 512.108C923.963 510.34 925.333 508.953 927.101 507.948C928.869 506.943 931.053 506.44 933.653 506.44C936.253 506.44 938.437 506.943 940.205 507.948C941.973 508.953 943.325 510.34 944.261 512.108C945.231 513.876 945.769 515.921 945.873 518.244C945.907 518.799 945.925 519.544 945.925 520.48C945.925 521.381 945.907 522.127 945.873 522.716C945.769 525.004 945.249 527.049 944.313 528.852C943.377 530.62 942.025 532.007 940.257 533.012C938.489 534.017 936.287 534.52 933.653 534.52ZM933.653 530.516C935.802 530.516 937.518 529.84 938.801 528.488C940.083 527.101 940.777 525.091 940.881 522.456C940.915 521.936 940.933 521.277 940.933 520.48C940.933 519.683 940.915 519.024 940.881 518.504C940.777 515.869 940.083 513.876 938.801 512.524C937.518 511.137 935.802 510.444 933.653 510.444C931.503 510.444 929.77 511.137 928.453 512.524C927.17 513.876 926.494 515.869 926.425 518.504C926.39 519.024 926.373 519.683 926.373 520.48C926.373 521.277 926.39 521.936 926.425 522.456C926.494 525.091 927.17 527.101 928.453 528.488C929.77 529.84 931.503 530.516 933.653 530.516ZM953.632 534C953.285 534 952.991 533.896 952.748 533.688C952.54 533.445 952.436 533.151 952.436 532.804V508.208C952.436 507.861 952.54 507.567 952.748 507.324C952.991 507.081 953.285 506.96 953.632 506.96H956.024C956.371 506.96 956.665 507.081 956.908 507.324C957.151 507.567 957.272 507.861 957.272 508.208V510.496C957.965 509.317 958.919 508.433 960.132 507.844C961.345 507.255 962.801 506.96 964.5 506.96H966.58C966.927 506.96 967.204 507.081 967.412 507.324C967.62 507.532 967.724 507.809 967.724 508.156V510.288C967.724 510.635 967.62 510.912 967.412 511.12C967.204 511.328 966.927 511.432 966.58 511.432H963.46C961.588 511.432 960.115 511.987 959.04 513.096C957.965 514.171 957.428 515.644 957.428 517.516V532.804C957.428 533.151 957.307 533.445 957.064 533.688C956.821 533.896 956.527 534 956.18 534H953.632ZM973.386 534C973.039 534 972.744 533.896 972.502 533.688C972.294 533.445 972.19 533.151 972.19 532.804V508.156C972.19 507.809 972.294 507.532 972.502 507.324C972.744 507.081 973.039 506.96 973.386 506.96H975.726C976.072 506.96 976.35 507.081 976.558 507.324C976.8 507.532 976.922 507.809 976.922 508.156V509.976C977.719 508.901 978.724 508.052 979.938 507.428C981.151 506.769 982.607 506.44 984.306 506.44C988.223 506.405 990.996 508 992.626 511.224C993.423 509.768 994.584 508.607 996.11 507.74C997.635 506.873 999.368 506.44 1001.31 506.44C1003.11 506.44 1004.74 506.856 1006.2 507.688C1007.69 508.52 1008.85 509.785 1009.68 511.484C1010.55 513.148 1010.98 515.245 1010.98 517.776V532.804C1010.98 533.151 1010.86 533.445 1010.62 533.688C1010.41 533.896 1010.13 534 1009.79 534H1007.34C1007 534 1006.7 533.896 1006.46 533.688C1006.25 533.445 1006.15 533.151 1006.15 532.804V518.244C1006.15 516.303 1005.87 514.777 1005.31 513.668C1004.76 512.559 1004.01 511.779 1003.08 511.328C1002.14 510.877 1001.12 510.652 1000.01 510.652C999.108 510.652 998.19 510.877 997.254 511.328C996.318 511.779 995.538 512.559 994.914 513.668C994.324 514.777 994.03 516.303 994.03 518.244V532.804C994.03 533.151 993.908 533.445 993.666 533.688C993.458 533.896 993.18 534 992.834 534H990.39C990.043 534 989.748 533.896 989.506 533.688C989.298 533.445 989.194 533.151 989.194 532.804V518.244C989.194 516.303 988.899 514.777 988.31 513.668C987.72 512.559 986.958 511.779 986.022 511.328C985.086 510.877 984.098 510.652 983.058 510.652C982.156 510.652 981.238 510.877 980.302 511.328C979.366 511.779 978.586 512.559 977.962 513.668C977.372 514.777 977.078 516.285 977.078 518.192V532.804C977.078 533.151 976.956 533.445 976.714 533.688C976.506 533.896 976.228 534 975.882 534H973.386ZM1027.76 534.52C1025.82 534.52 1024.16 534.277 1022.77 533.792C1021.38 533.307 1020.26 532.717 1019.39 532.024C1018.52 531.331 1017.86 530.637 1017.41 529.944C1017 529.251 1016.77 528.696 1016.74 528.28C1016.7 527.899 1016.82 527.604 1017.1 527.396C1017.38 527.188 1017.66 527.084 1017.93 527.084H1020.22C1020.43 527.084 1020.58 527.119 1020.69 527.188C1020.83 527.223 1021 527.361 1021.21 527.604C1021.66 528.089 1022.16 528.575 1022.72 529.06C1023.27 529.545 1023.95 529.944 1024.74 530.256C1025.58 530.568 1026.6 530.724 1027.81 530.724C1029.58 530.724 1031.04 530.395 1032.18 529.736C1033.32 529.043 1033.9 528.037 1033.9 526.72C1033.9 525.853 1033.65 525.16 1033.17 524.64C1032.72 524.12 1031.89 523.652 1030.67 523.236C1029.49 522.82 1027.86 522.387 1025.78 521.936C1023.7 521.451 1022.06 520.861 1020.84 520.168C1019.63 519.44 1018.76 518.591 1018.24 517.62C1017.72 516.615 1017.46 515.488 1017.46 514.24C1017.46 512.957 1017.85 511.727 1018.61 510.548C1019.37 509.335 1020.48 508.347 1021.94 507.584C1023.43 506.821 1025.28 506.44 1027.5 506.44C1029.3 506.44 1030.85 506.665 1032.13 507.116C1033.41 507.567 1034.47 508.139 1035.3 508.832C1036.13 509.491 1036.76 510.149 1037.17 510.808C1037.59 511.467 1037.81 512.021 1037.85 512.472C1037.88 512.819 1037.78 513.113 1037.54 513.356C1037.29 513.564 1037.02 513.668 1036.7 513.668H1034.52C1034.28 513.668 1034.07 513.616 1033.9 513.512C1033.76 513.408 1033.62 513.287 1033.48 513.148C1033.13 512.697 1032.72 512.247 1032.23 511.796C1031.78 511.345 1031.18 510.981 1030.41 510.704C1029.68 510.392 1028.71 510.236 1027.5 510.236C1025.77 510.236 1024.47 510.6 1023.6 511.328C1022.73 512.056 1022.3 512.975 1022.3 514.084C1022.3 514.743 1022.49 515.332 1022.87 515.852C1023.25 516.372 1023.98 516.84 1025.06 517.256C1026.13 517.672 1027.73 518.123 1029.84 518.608C1032.13 519.059 1033.93 519.665 1035.25 520.428C1036.57 521.191 1037.5 522.075 1038.06 523.08C1038.61 524.085 1038.89 525.247 1038.89 526.564C1038.89 528.02 1038.46 529.355 1037.59 530.568C1036.76 531.781 1035.51 532.752 1033.84 533.48C1032.22 534.173 1030.19 534.52 1027.76 534.52Z" fill="#252525"/>
<path d="M459.966 358.853C459.976 359.764 459.741 360.955 459.496 361.936C457.787 368.838 450.2 376.584 439.519 375.879C429.84 375.242 421.956 370.595 421.956 364.079C421.956 357.563 429.821 352.279 439.519 352.279C449.218 352.279 459.905 352.337 459.966 358.853Z" fill="black"/>
<path d="M439.52 353.373C434.31 353.373 422.42 354.815 419.691 354.815C414.871 354.815 410.961 357.84 410.961 361.572C410.961 363.368 411.881 364.99 413.355 366.2C413.355 366.2 416.592 369.447 422.423 367.889C424.975 367.207 429.126 362.142 436.434 361.337C440.073 360.935 446.892 363.751 458.875 363.818C459.39 362.712 459.496 361.942 459.496 361.942C459.496 355.42 449.219 353.373 439.52 353.373Z" fill="black"/>
<path d="M459.498 361.936C459.498 361.936 466.526 360.51 470.896 354.763C475.989 348.06 475.32 340.888 475.32 340.888C480.482 331.234 473.711 322.182 473.711 322.182C473.039 311.991 466.738 307.769 466.738 307.769C462.648 298.048 453.599 295.435 453.599 295.435C446.494 287.123 433.89 287.39 433.89 287.39C433.89 287.39 422.08 283.062 405.868 287.927C403.188 288.732 394.203 290.608 387.632 294.63C366.922 307.309 365.355 327.08 365.645 330.294C367.25 348.26 379.855 351.478 387.9 353.354C389.776 358.448 396.681 367.834 409.083 364.349C424.368 361.669 430.804 357.109 434.559 357.109C438.314 357.109 448.773 361.131 459.498 361.936Z" fill="black"/>
<path d="M451.351 350.237C451.36 351.148 451.125 352.338 450.881 353.32C449.172 360.222 441.584 367.968 430.904 367.263C421.225 366.626 413.341 361.979 413.341 355.463C413.341 348.947 421.205 343.663 430.904 343.663C440.603 343.663 451.289 343.721 451.351 350.237Z" fill="#7D3CE6"/>
<path d="M430.905 344.757C425.695 344.757 413.805 346.199 411.076 346.199C406.255 346.199 402.346 349.223 402.346 352.956C402.346 354.752 403.266 356.374 404.74 357.584C404.74 357.584 407.977 360.83 413.808 359.273C416.36 358.591 420.511 353.526 427.819 352.721C431.458 352.319 438.277 355.135 450.26 355.202C450.775 354.095 450.881 353.326 450.881 353.326C450.881 346.804 440.603 344.757 430.905 344.757Z" fill="#4E03C8"/>
<path d="M464.694 313.865L464.695 313.865L464.695 313.865L464.697 313.869L464.71 313.886C464.721 313.901 464.738 313.925 464.761 313.957C464.806 314.022 464.874 314.12 464.958 314.248C465.127 314.505 465.365 314.886 465.635 315.373C466.176 316.349 466.845 317.749 467.356 319.443C468.378 322.828 468.763 327.36 466.263 332.036L466.192 332.168L466.206 332.317L466.206 332.317L466.206 332.317L466.206 332.318L466.206 332.32L466.207 332.332C466.208 332.344 466.21 332.362 466.211 332.387C466.215 332.437 466.219 332.513 466.223 332.613C466.231 332.812 466.237 333.108 466.229 333.486C466.213 334.241 466.139 335.321 465.91 336.608C465.451 339.181 464.369 342.571 461.881 345.844C459.761 348.632 456.988 350.382 454.73 351.435C453.603 351.961 452.61 352.311 451.901 352.529C451.547 352.638 451.264 352.714 451.071 352.762C450.974 352.786 450.9 352.803 450.852 352.814C450.85 352.815 450.848 352.815 450.847 352.815C445.554 352.411 440.32 351.219 435.92 350.119C435.158 349.929 434.42 349.741 433.71 349.56C432.368 349.218 431.128 348.902 430.029 348.647C428.357 348.258 426.947 347.993 425.943 347.993C424.915 347.993 423.742 348.303 422.365 348.774C421.52 349.064 420.567 349.426 419.5 349.831C418.831 350.086 418.116 350.357 417.355 350.639C413.384 352.107 407.984 353.907 400.38 355.24L400.356 355.245L400.331 355.252C394.288 356.95 389.618 355.512 386.222 353.048C382.805 350.568 380.663 347.036 379.753 344.565L379.659 344.312L379.397 344.25C375.37 343.311 370.305 342.056 366.042 338.842C361.806 335.649 358.318 330.486 357.526 321.633L357.526 321.633C357.39 320.117 357.691 314.453 360.607 307.59C363.517 300.744 369.022 292.718 379.277 286.44C384.635 283.16 391.61 281.328 395.431 280.324C396.244 280.111 396.914 279.935 397.396 279.79C405.43 277.379 412.369 277.247 417.295 277.716C419.758 277.95 421.717 278.335 423.057 278.659C423.727 278.822 424.242 278.969 424.588 279.075C424.76 279.128 424.891 279.171 424.977 279.2C425.02 279.215 425.052 279.226 425.073 279.233L425.096 279.241L425.101 279.243L425.101 279.243L425.102 279.243L464.694 313.865ZM464.694 313.865L464.606 313.746L464.596 313.599C464.267 308.606 462.561 305.091 460.949 302.828C460.142 301.695 459.357 300.874 458.778 300.339C458.488 300.072 458.25 299.876 458.086 299.748C458.005 299.685 457.942 299.638 457.9 299.608C457.879 299.593 457.864 299.582 457.855 299.576L457.845 299.569L457.843 299.568L457.843 299.568L457.843 299.568L457.843 299.568L457.719 299.485L457.661 299.347C455.663 294.597 452.454 291.583 449.739 289.755C448.382 288.84 447.151 288.224 446.261 287.837C445.817 287.644 445.458 287.508 445.213 287.421C445.09 287.378 444.996 287.346 444.933 287.326C444.902 287.316 444.879 287.309 444.864 287.305L444.848 287.3L444.844 287.299L444.844 287.299L444.844 287.299L444.7 287.257L444.603 287.143C441.146 283.099 436.334 281.125 432.347 280.165C430.358 279.687 428.587 279.463 427.314 279.36C426.677 279.309 426.167 279.287 425.817 279.278C425.641 279.274 425.507 279.273 425.416 279.273C425.371 279.273 425.337 279.273 425.315 279.273L425.291 279.274L425.285 279.274L425.284 279.274L425.284 279.274L425.284 279.274L464.694 313.865Z" fill="#BF9DF6" stroke="black"/>
<path d="M412.226 324.433C419.717 320.394 423.778 320.771 427.363 321.096C428.502 321.199 429.58 321.279 430.671 321.273C437.055 321.128 442.227 318.438 444.515 315.834C444.777 315.511 444.904 315.099 444.869 314.684C444.834 314.268 444.64 313.883 444.327 313.608C444.014 313.333 443.607 313.19 443.191 313.208C442.775 313.227 442.382 313.406 442.095 313.707C440.331 315.715 435.984 317.933 430.597 318.055C429.632 318.084 428.663 317.987 427.659 317.894C423.814 317.537 419.038 317.099 410.698 321.601C408.558 322.756 405.623 323.184 402.444 323.506C395.374 313.302 399.628 304.414 400.844 302.297C400.964 302.303 401.079 302.342 401.202 302.342C402.489 302.342 403.782 302.026 404.954 301.364C405.311 301.146 405.569 300.799 405.674 300.395C405.779 299.99 405.723 299.561 405.518 299.197C405.312 298.834 404.973 298.564 404.572 298.446C404.172 298.328 403.741 298.37 403.37 298.564C402.358 299.121 401.173 299.276 400.051 298.998C398.93 298.719 397.955 298.027 397.321 297.061C397.082 296.724 396.721 296.492 396.315 296.413C395.909 296.334 395.489 296.414 395.14 296.637C394.792 296.861 394.543 297.209 394.445 297.611C394.347 298.013 394.408 298.437 394.615 298.796C395.377 299.99 396.452 300.887 397.665 301.489C395.989 304.894 392.806 313.846 398.862 323.857C394.602 324.275 390.335 324.877 386.995 327.03C384.647 328.568 382.599 330.521 380.951 332.793C378.927 332.445 371.517 330.621 370.223 322.396C371.027 321.772 371.677 320.948 372.08 319.931C372.157 319.734 372.196 319.524 372.192 319.313C372.189 319.102 372.144 318.893 372.06 318.699C371.976 318.505 371.855 318.33 371.703 318.183C371.551 318.036 371.372 317.92 371.175 317.842C370.979 317.765 370.769 317.726 370.558 317.73C370.346 317.733 370.138 317.778 369.944 317.862C369.75 317.946 369.575 318.067 369.427 318.219C369.28 318.371 369.165 318.55 369.087 318.747C368.965 319.085 368.772 319.393 368.519 319.649C368.267 319.905 367.962 320.103 367.626 320.23C367.285 320.343 366.924 320.382 366.567 320.343C366.21 320.304 365.865 320.189 365.557 320.005C365.372 319.902 365.169 319.837 364.959 319.813C364.749 319.788 364.537 319.806 364.334 319.864C363.923 319.981 363.576 320.256 363.369 320.629C363.161 321.002 363.111 321.442 363.228 321.853C363.345 322.263 363.62 322.61 363.993 322.817C364.907 323.326 365.885 323.583 366.857 323.583C366.976 323.583 367.089 323.528 367.208 323.522C368.739 331.287 374.876 334.698 379.217 335.731C378.649 336.94 378.288 338.237 378.152 339.566C378.114 339.991 378.247 340.414 378.521 340.741C378.795 341.068 379.188 341.273 379.613 341.311L379.758 341.317C380.16 341.317 380.547 341.166 380.844 340.895C381.141 340.623 381.325 340.25 381.36 339.85C381.708 335.946 385.431 331.869 388.739 329.729C391.841 327.731 396.381 327.31 400.777 326.901C405.041 326.511 409.069 326.138 412.226 324.433ZM453.628 319.593C453.526 319.779 453.462 319.982 453.44 320.192C453.417 320.403 453.436 320.615 453.495 320.818C453.555 321.021 453.654 321.21 453.786 321.375C453.919 321.54 454.082 321.677 454.268 321.778C454.454 321.879 454.657 321.943 454.867 321.966C455.078 321.989 455.29 321.97 455.493 321.91C455.903 321.79 456.248 321.512 456.453 321.138C456.514 321.028 462.38 310.039 451.398 302.654C451.043 302.416 450.609 302.328 450.19 302.41C449.772 302.492 449.403 302.737 449.164 303.092C448.926 303.446 448.839 303.88 448.921 304.299C449.003 304.718 449.248 305.087 449.602 305.325C458.11 311.046 453.814 319.245 453.628 319.593ZM386.93 293.612C387.186 293.613 387.438 293.552 387.665 293.436C387.892 293.319 388.088 293.15 388.237 292.942C392.903 286.452 399.364 288.672 399.638 288.775C400.034 288.906 400.466 288.878 400.842 288.696C401.217 288.515 401.508 288.194 401.652 287.803C401.796 287.411 401.782 286.979 401.614 286.597C401.445 286.215 401.135 285.914 400.748 285.757C397.659 284.611 390.525 284.251 385.624 291.066C385.452 291.307 385.349 291.59 385.328 291.885C385.306 292.179 385.366 292.474 385.501 292.737C385.636 293 385.841 293.221 386.093 293.375C386.345 293.53 386.635 293.611 386.93 293.612ZM428.995 287.536C436.154 286.954 439.411 292.144 439.559 292.389C439.775 292.757 440.129 293.024 440.542 293.132C440.747 293.185 440.96 293.197 441.17 293.168C441.379 293.139 441.581 293.069 441.763 292.962C441.946 292.855 442.105 292.713 442.233 292.544C442.36 292.375 442.453 292.183 442.506 291.978C442.559 291.773 442.572 291.56 442.543 291.351C442.513 291.141 442.443 290.94 442.336 290.757C442.162 290.465 438.024 283.62 428.744 284.328C428.533 284.345 428.328 284.402 428.139 284.498C427.951 284.594 427.783 284.726 427.646 284.887C427.369 285.211 427.232 285.632 427.265 286.058C427.298 286.483 427.499 286.878 427.824 287.155C428.148 287.433 428.569 287.57 428.995 287.536ZM458.438 334.553C457.647 334.508 456.775 335.135 456.704 336.024C456.698 336.082 456.186 341.555 450.558 343.405C450.19 343.521 449.876 343.765 449.673 344.093C449.47 344.422 449.392 344.812 449.454 345.193C449.515 345.573 449.711 345.919 450.007 346.167C450.302 346.415 450.677 346.549 451.063 346.543C451.234 346.543 451.403 346.516 451.565 346.462C459.198 343.959 459.886 336.603 459.912 336.291C459.946 335.865 459.81 335.443 459.534 335.118C459.258 334.792 458.864 334.589 458.438 334.553Z" fill="#7D3CE6"/>
<path d="M378.793 318.917C378.73 319.124 378.709 319.341 378.731 319.555C378.753 319.77 378.819 319.978 378.923 320.167C379.028 320.356 379.169 320.522 379.339 320.655C379.509 320.789 379.704 320.886 379.913 320.942C380.121 320.998 380.339 321.012 380.553 320.982C380.767 320.953 380.972 320.88 381.158 320.769C381.343 320.658 381.504 320.511 381.631 320.337C381.758 320.162 381.849 319.964 381.898 319.754C382.208 318.639 382.928 317.683 383.915 317.077C384.901 316.472 386.08 316.262 387.214 316.491C387.421 316.534 387.634 316.536 387.842 316.497C388.05 316.458 388.248 316.378 388.425 316.263C388.601 316.147 388.754 315.998 388.873 315.823C388.992 315.649 389.076 315.452 389.119 315.246C389.162 315.039 389.165 314.825 389.125 314.618C389.086 314.41 389.007 314.212 388.891 314.035C388.775 313.858 388.626 313.706 388.451 313.587C388.277 313.467 388.081 313.384 387.874 313.341C386.535 313.069 385.147 313.165 383.858 313.617C380.106 307.201 380.836 300.874 380.846 300.807C380.901 300.384 380.787 299.957 380.528 299.618C380.269 299.28 379.888 299.057 379.465 298.998C379.044 298.944 378.618 299.058 378.28 299.315C377.941 299.572 377.718 299.952 377.657 300.372C377.615 300.685 376.756 307.825 381.078 315.22C379.974 316.205 379.181 317.49 378.793 318.917ZM414.766 310.969C415.408 310.384 416.248 310.065 417.116 310.074C417.985 310.082 418.818 310.42 419.448 311.017C419.755 311.313 420.166 311.475 420.593 311.468C421.019 311.461 421.425 311.287 421.723 310.982C422.02 310.676 422.184 310.264 422.178 309.838C422.172 309.411 421.997 309.004 421.691 308.707C420.964 308.015 420.086 307.503 419.126 307.21C420.079 303.941 419.702 302.49 418.817 299.771C418.642 299.239 418.474 298.704 418.312 298.168L418.215 297.846C417.044 293.959 416.269 291.394 418.495 287.774C418.719 287.411 418.789 286.973 418.69 286.558C418.591 286.143 418.331 285.784 417.968 285.56C417.604 285.337 417.167 285.267 416.751 285.366C416.336 285.465 415.977 285.725 415.754 286.088C412.767 290.941 413.865 294.574 415.136 298.78L415.232 299.101C415.422 299.726 415.596 300.273 415.757 300.765C416.552 303.214 416.793 304.034 415.821 306.995C414.606 307.216 413.479 307.778 412.571 308.617C412.27 308.91 412.096 309.31 412.087 309.73C412.077 310.151 412.232 310.558 412.519 310.865C412.805 311.173 413.201 311.356 413.621 311.375C414.041 311.394 414.452 311.249 414.766 310.969ZM435.248 301.364C436.203 301.366 437.148 301.156 438.012 300.749C438.398 300.567 438.696 300.239 438.841 299.838C438.985 299.436 438.964 298.994 438.783 298.607C438.601 298.221 438.273 297.923 437.871 297.779C437.47 297.634 437.027 297.655 436.641 297.837C435.85 298.198 434.952 298.247 434.126 297.975C433.3 297.702 432.608 297.127 432.187 296.366C432.092 296.173 431.958 296.001 431.795 295.86C431.631 295.719 431.441 295.613 431.236 295.547C431.03 295.481 430.814 295.458 430.599 295.477C430.384 295.497 430.176 295.559 429.985 295.661C429.795 295.763 429.628 295.902 429.492 296.07C429.357 296.238 429.257 296.432 429.198 296.639C429.139 296.846 429.122 297.064 429.149 297.278C429.175 297.492 429.245 297.698 429.352 297.885C429.932 298.966 430.794 299.819 431.798 300.411C430.07 304.61 431.052 309.07 431.853 311.436C431.914 311.643 432.017 311.836 432.154 312.003C432.292 312.17 432.462 312.308 432.654 312.408C432.846 312.507 433.056 312.567 433.272 312.584C433.488 312.601 433.704 312.574 433.91 312.505C434.115 312.436 434.304 312.326 434.465 312.182C434.627 312.038 434.758 311.863 434.851 311.668C434.943 311.472 434.995 311.26 435.004 311.043C435.012 310.827 434.977 310.611 434.9 310.409C434.36 308.807 433.311 304.758 434.894 301.315C435.016 301.322 435.129 301.364 435.248 301.364ZM450.684 331.705C450.672 331.494 450.618 331.287 450.525 331.097C450.432 330.906 450.302 330.737 450.144 330.597C449.985 330.457 449.799 330.35 449.599 330.282C449.398 330.215 449.186 330.187 448.975 330.202C448.204 330.256 447.429 330.156 446.696 329.909C445.963 329.662 445.286 329.273 444.704 328.764C444.122 328.255 443.646 327.636 443.304 326.942C442.962 326.248 442.76 325.494 442.71 324.722C442.674 324.299 442.475 323.907 442.155 323.627C441.835 323.348 441.419 323.204 440.995 323.226C440.57 323.256 440.174 323.454 439.893 323.775C439.613 324.096 439.471 324.516 439.499 324.941C439.63 326.84 440.354 328.552 441.455 329.945C438.868 332.989 435.479 333.855 433.59 334.077C431.92 334.276 430.459 334.106 428.77 333.906C427.222 333.729 425.472 333.526 423.306 333.591L423.29 333.594C423.226 332.674 423.007 331.332 422.309 330.215C422.068 329.885 421.712 329.657 421.311 329.58C420.909 329.502 420.494 329.579 420.148 329.796C419.801 330.013 419.551 330.354 419.446 330.749C419.341 331.144 419.39 331.564 419.583 331.924C420.014 332.616 420.095 333.719 420.095 334.257C418.473 334.839 417.07 335.695 415.802 336.522C413.537 337.996 411.751 339.161 409.064 338.556C406.631 337.999 404.195 337.887 402.129 338.176C401.807 337.369 401.299 336.403 400.514 335.66C400.203 335.367 399.789 335.209 399.363 335.221C398.936 335.233 398.532 335.414 398.239 335.724C397.945 336.034 397.788 336.448 397.8 336.875C397.812 337.302 397.993 337.706 398.303 337.999C398.58 338.26 398.799 338.64 398.976 339.019C395.426 340.48 393.647 342.923 393.563 343.042C393.392 343.282 393.291 343.565 393.27 343.859C393.25 344.153 393.31 344.447 393.445 344.709C393.581 344.97 393.785 345.19 394.037 345.343C394.289 345.497 394.578 345.578 394.873 345.577C395.127 345.578 395.378 345.519 395.605 345.404C395.832 345.289 396.029 345.123 396.179 344.918C396.195 344.892 397.962 342.527 401.447 341.571C403.249 341.076 405.833 341.117 408.353 341.69C409.057 341.851 409.71 341.906 410.344 341.915C410.644 342.617 410.759 343.45 410.776 343.759C410.799 344.169 410.979 344.555 411.277 344.837C411.576 345.119 411.971 345.277 412.381 345.278L412.468 345.275C412.893 345.252 413.291 345.063 413.576 344.747C413.862 344.432 414.01 344.017 413.99 343.592C413.937 342.842 413.796 342.102 413.572 341.384C415.055 340.847 416.346 340.007 417.559 339.219C419.4 338.019 421.14 336.883 423.415 336.809C425.32 336.741 426.891 336.924 428.406 337.101C429.932 337.278 431.431 337.394 433.085 337.298C433.378 338.112 433.356 339.2 433.311 339.563C433.283 339.79 433.304 340.02 433.372 340.237C433.44 340.455 433.553 340.656 433.704 340.827C433.855 340.999 434.041 341.136 434.248 341.23C434.456 341.324 434.682 341.374 434.91 341.375C435.3 341.374 435.676 341.232 435.969 340.974C436.262 340.717 436.452 340.362 436.503 339.975C436.621 338.92 436.556 337.852 436.313 336.818C439.249 336.039 441.88 334.389 443.859 332.085C445.454 333.07 447.316 333.535 449.188 333.414C449.398 333.4 449.604 333.345 449.793 333.251C449.982 333.158 450.151 333.028 450.29 332.869C450.429 332.711 450.535 332.526 450.603 332.326C450.67 332.127 450.698 331.916 450.684 331.705Z" fill="#7D3CE6"/>
<path d="M530.86 353.962C530.273 353.962 529.793 353.775 529.42 353.402C529.046 353.029 528.86 352.549 528.86 351.962V299.962C528.86 299.375 529.046 298.895 529.42 298.522C529.793 298.149 530.273 297.962 530.86 297.962H540.94C541.526 297.962 542.006 298.149 542.38 298.522C542.753 298.895 542.94 299.375 542.94 299.962V317.722L557.74 299.482C557.953 299.162 558.3 298.842 558.78 298.522C559.313 298.149 560.006 297.962 560.86 297.962H572.38C572.86 297.962 573.26 298.149 573.58 298.522C573.9 298.842 574.06 299.215 574.06 299.642C574.06 300.015 573.953 300.335 573.74 300.602L554.62 324.762L575.26 351.322C575.473 351.535 575.58 351.855 575.58 352.282C575.58 352.709 575.393 353.109 575.02 353.482C574.7 353.802 574.326 353.962 573.9 353.962H561.98C561.02 353.962 560.273 353.749 559.74 353.322C559.26 352.895 558.94 352.575 558.78 352.362L542.94 332.602V351.962C542.94 352.549 542.753 353.029 542.38 353.402C542.006 353.775 541.526 353.962 540.94 353.962H530.86ZM582.949 353.962C582.362 353.962 581.882 353.775 581.509 353.402C581.135 353.029 580.949 352.549 580.949 351.962V314.362C580.949 313.775 581.135 313.295 581.509 312.922C581.882 312.549 582.362 312.362 582.949 312.362H592.149C592.735 312.362 593.215 312.549 593.589 312.922C593.962 313.295 594.149 313.775 594.149 314.362V317.402C595.535 315.749 597.349 314.362 599.589 313.242C601.829 312.122 604.469 311.562 607.509 311.562C610.602 311.562 613.322 312.255 615.669 313.642C618.069 315.029 619.935 317.082 621.269 319.802C622.655 322.469 623.349 325.749 623.349 329.642V351.962C623.349 352.549 623.135 353.029 622.709 353.402C622.335 353.775 621.882 353.962 621.349 353.962H611.269C610.735 353.962 610.255 353.775 609.829 353.402C609.455 353.029 609.269 352.549 609.269 351.962V330.122C609.269 327.615 608.655 325.695 607.429 324.362C606.255 322.975 604.495 322.282 602.149 322.282C599.962 322.282 598.202 322.975 596.869 324.362C595.589 325.695 594.949 327.615 594.949 330.122V351.962C594.949 352.549 594.735 353.029 594.309 353.402C593.935 353.775 593.482 353.962 592.949 353.962H582.949ZM651.957 354.762C647.477 354.762 643.69 354.042 640.597 352.602C637.557 351.162 635.21 349.109 633.557 346.442C631.957 343.722 631.05 340.495 630.837 336.762C630.783 335.695 630.757 334.495 630.757 333.162C630.757 331.775 630.783 330.575 630.837 329.562C631.05 325.775 632.01 322.549 633.717 319.882C635.423 317.215 637.797 315.162 640.837 313.722C643.93 312.282 647.637 311.562 651.957 311.562C656.33 311.562 660.037 312.282 663.077 313.722C666.17 315.162 668.57 317.215 670.277 319.882C671.983 322.549 672.943 325.775 673.157 329.562C673.21 330.575 673.237 331.775 673.237 333.162C673.237 334.495 673.21 335.695 673.157 336.762C672.943 340.495 672.01 343.722 670.357 346.442C668.757 349.109 666.41 351.162 663.317 352.602C660.277 354.042 656.49 354.762 651.957 354.762ZM651.957 345.002C654.357 345.002 656.09 344.282 657.157 342.842C658.277 341.402 658.917 339.242 659.077 336.362C659.13 335.562 659.157 334.495 659.157 333.162C659.157 331.829 659.13 330.762 659.077 329.962C658.917 327.135 658.277 325.002 657.157 323.562C656.09 322.069 654.357 321.322 651.957 321.322C649.61 321.322 647.877 322.069 646.757 323.562C645.637 325.002 645.023 327.135 644.917 329.962C644.863 330.762 644.837 331.829 644.837 333.162C644.837 334.495 644.863 335.562 644.917 336.362C645.023 339.242 645.637 341.402 646.757 342.842C647.877 344.282 649.61 345.002 651.957 345.002ZM691.455 353.962C690.655 353.962 690.068 353.775 689.695 353.402C689.321 353.029 689.028 352.549 688.815 351.962L677.295 314.922C677.188 314.655 677.135 314.389 677.135 314.122C677.135 313.642 677.321 313.242 677.695 312.922C678.068 312.549 678.495 312.362 678.975 312.362H687.215C687.908 312.362 688.441 312.549 688.815 312.922C689.241 313.295 689.508 313.669 689.615 314.042L696.335 336.922L703.535 314.122C703.641 313.749 703.881 313.375 704.255 313.002C704.681 312.575 705.268 312.362 706.015 312.362H711.295C712.041 312.362 712.601 312.575 712.975 313.002C713.401 313.375 713.668 313.749 713.775 314.122L720.975 336.922L727.695 314.042C727.801 313.669 728.041 313.295 728.415 312.922C728.841 312.549 729.401 312.362 730.095 312.362H738.335C738.815 312.362 739.215 312.549 739.535 312.922C739.908 313.242 740.095 313.642 740.095 314.122C740.095 314.389 740.068 314.655 740.015 314.922L728.495 351.962C728.335 352.549 728.041 353.029 727.615 353.402C727.241 353.775 726.655 353.962 725.855 353.962H718.655C717.908 353.962 717.321 353.775 716.895 353.402C716.468 353.029 716.175 352.549 716.015 351.962L708.655 330.042L701.295 351.962C701.135 352.549 700.841 353.029 700.415 353.402C699.988 353.775 699.401 353.962 698.655 353.962H691.455ZM748.886 353.962C748.299 353.962 747.819 353.775 747.446 353.402C747.073 353.029 746.886 352.549 746.886 351.962V299.162C746.886 298.575 747.073 298.095 747.446 297.722C747.819 297.349 748.299 297.162 748.886 297.162H758.326C758.913 297.162 759.393 297.349 759.766 297.722C760.139 298.095 760.326 298.575 760.326 299.162V351.962C760.326 352.549 760.139 353.029 759.766 353.402C759.393 353.775 758.913 353.962 758.326 353.962H748.886ZM788.977 354.762C782.683 354.762 777.67 353.055 773.937 349.642C770.203 346.229 768.257 341.162 768.097 334.442C768.097 334.069 768.097 333.589 768.097 333.002C768.097 332.415 768.097 331.962 768.097 331.642C768.257 327.429 769.19 323.829 770.897 320.842C772.657 317.802 775.057 315.509 778.097 313.962C781.19 312.362 784.79 311.562 788.897 311.562C793.59 311.562 797.457 312.495 800.497 314.362C803.59 316.229 805.91 318.762 807.457 321.962C809.003 325.162 809.777 328.815 809.777 332.922V334.842C809.777 335.429 809.563 335.909 809.137 336.282C808.763 336.655 808.31 336.842 807.777 336.842H782.177C782.177 336.895 782.177 336.975 782.177 337.082C782.177 337.189 782.177 337.295 782.177 337.402C782.23 338.949 782.497 340.362 782.977 341.642C783.457 342.922 784.203 343.935 785.217 344.682C786.23 345.429 787.457 345.802 788.897 345.802C789.963 345.802 790.843 345.642 791.537 345.322C792.283 344.949 792.897 344.549 793.377 344.122C793.857 343.642 794.23 343.242 794.497 342.922C794.977 342.389 795.35 342.069 795.617 341.962C795.937 341.802 796.417 341.722 797.057 341.722H806.977C807.51 341.722 807.937 341.882 808.257 342.202C808.63 342.469 808.79 342.869 808.737 343.402C808.683 344.309 808.23 345.402 807.377 346.682C806.523 347.962 805.27 349.242 803.617 350.522C802.017 351.749 799.99 352.762 797.537 353.562C795.083 354.362 792.23 354.762 788.977 354.762ZM782.177 328.922H795.697V328.762C795.697 327.055 795.43 325.562 794.897 324.282C794.417 323.002 793.643 322.015 792.577 321.322C791.563 320.629 790.337 320.282 788.897 320.282C787.457 320.282 786.23 320.629 785.217 321.322C784.257 322.015 783.51 323.002 782.977 324.282C782.443 325.562 782.177 327.055 782.177 328.762V328.922ZM832.797 354.762C830.237 354.762 827.917 354.362 825.837 353.562C823.81 352.709 822.05 351.482 820.557 349.882C819.117 348.229 817.997 346.255 817.197 343.962C816.397 341.615 815.943 338.949 815.837 335.962C815.783 334.895 815.757 333.962 815.757 333.162C815.757 332.309 815.783 331.375 815.837 330.362C815.943 327.482 816.397 324.895 817.197 322.602C817.997 320.309 819.117 318.335 820.557 316.682C821.997 315.029 823.757 313.775 825.837 312.922C827.917 312.015 830.237 311.562 832.797 311.562C835.463 311.562 837.757 312.015 839.677 312.922C841.597 313.775 843.223 314.895 844.557 316.282V299.162C844.557 298.575 844.743 298.095 845.117 297.722C845.49 297.349 845.97 297.162 846.557 297.162H856.317C856.85 297.162 857.303 297.349 857.677 297.722C858.103 298.095 858.317 298.575 858.317 299.162V351.962C858.317 352.549 858.103 353.029 857.677 353.402C857.303 353.775 856.85 353.962 856.317 353.962H847.277C846.69 353.962 846.21 353.775 845.837 353.402C845.463 353.029 845.277 352.549 845.277 351.962V349.402C843.997 350.949 842.343 352.229 840.317 353.242C838.29 354.255 835.783 354.762 832.797 354.762ZM837.117 344.042C838.93 344.042 840.343 343.669 841.357 342.922C842.423 342.122 843.197 341.109 843.677 339.882C844.21 338.655 844.503 337.322 844.557 335.882C844.61 334.815 844.637 333.802 844.637 332.842C844.637 331.882 844.61 330.895 844.557 329.882C844.503 328.549 844.21 327.322 843.677 326.202C843.143 325.029 842.343 324.095 841.277 323.402C840.21 322.655 838.823 322.282 837.117 322.282C835.357 322.282 833.943 322.655 832.877 323.402C831.863 324.149 831.143 325.162 830.717 326.442C830.29 327.722 830.023 329.135 829.917 330.682C829.757 332.335 829.757 333.989 829.917 335.642C830.023 337.189 830.29 338.602 830.717 339.882C831.143 341.162 831.863 342.175 832.877 342.922C833.943 343.669 835.357 344.042 837.117 344.042ZM888.145 371.562C884.039 371.562 880.625 371.029 877.905 369.962C875.239 368.895 873.105 367.615 871.505 366.122C869.959 364.629 868.839 363.135 868.145 361.642C867.452 360.202 867.079 359.055 867.025 358.202C866.972 357.615 867.159 357.135 867.585 356.762C868.012 356.389 868.519 356.202 869.105 356.202H879.265C879.745 356.202 880.145 356.309 880.465 356.522C880.839 356.789 881.132 357.215 881.345 357.802C881.612 358.389 881.959 359.002 882.385 359.642C882.865 360.282 883.505 360.789 884.305 361.162C885.159 361.589 886.305 361.802 887.745 361.802C889.345 361.802 890.679 361.535 891.745 361.002C892.812 360.522 893.612 359.695 894.145 358.522C894.679 357.402 894.945 355.882 894.945 353.962V348.602C893.719 349.935 892.145 351.029 890.225 351.882C888.305 352.682 885.985 353.082 883.265 353.082C880.545 353.082 878.145 352.682 876.065 351.882C873.985 351.082 872.252 349.882 870.865 348.282C869.479 346.682 868.385 344.735 867.585 342.442C866.839 340.149 866.385 337.509 866.225 334.522C866.172 333.135 866.172 331.749 866.225 330.362C866.385 327.482 866.839 324.895 867.585 322.602C868.332 320.309 869.399 318.335 870.785 316.682C872.225 315.029 873.985 313.775 876.065 312.922C878.145 312.015 880.545 311.562 883.265 311.562C886.145 311.562 888.599 312.122 890.625 313.242C892.705 314.309 894.412 315.669 895.745 317.322V314.362C895.745 313.829 895.932 313.375 896.305 313.002C896.679 312.575 897.159 312.362 897.745 312.362H906.945C907.532 312.362 908.012 312.575 908.385 313.002C908.812 313.375 909.025 313.829 909.025 314.362V352.842C909.025 356.895 908.199 360.309 906.545 363.082C904.892 365.855 902.519 367.962 899.425 369.402C896.332 370.842 892.572 371.562 888.145 371.562ZM887.585 342.682C889.292 342.682 890.679 342.309 891.745 341.562C892.812 340.815 893.585 339.855 894.065 338.682C894.599 337.509 894.892 336.255 894.945 334.922C894.999 334.335 895.025 333.509 895.025 332.442C895.025 331.375 894.999 330.575 894.945 330.042C894.892 328.655 894.599 327.375 894.065 326.202C893.585 325.029 892.812 324.095 891.745 323.402C890.679 322.655 889.292 322.282 887.585 322.282C885.825 322.282 884.412 322.655 883.345 323.402C882.332 324.149 881.585 325.162 881.105 326.442C880.679 327.722 880.412 329.135 880.305 330.682C880.252 331.855 880.252 333.055 880.305 334.282C880.412 335.829 880.679 337.242 881.105 338.522C881.585 339.802 882.332 340.815 883.345 341.562C884.412 342.309 885.825 342.682 887.585 342.682ZM937.649 354.762C931.355 354.762 926.342 353.055 922.609 349.642C918.875 346.229 916.929 341.162 916.769 334.442C916.769 334.069 916.769 333.589 916.769 333.002C916.769 332.415 916.769 331.962 916.769 331.642C916.929 327.429 917.862 323.829 919.569 320.842C921.329 317.802 923.729 315.509 926.769 313.962C929.862 312.362 933.462 311.562 937.569 311.562C942.262 311.562 946.129 312.495 949.169 314.362C952.262 316.229 954.582 318.762 956.129 321.962C957.675 325.162 958.449 328.815 958.449 332.922V334.842C958.449 335.429 958.235 335.909 957.809 336.282C957.435 336.655 956.982 336.842 956.449 336.842H930.849C930.849 336.895 930.849 336.975 930.849 337.082C930.849 337.189 930.849 337.295 930.849 337.402C930.902 338.949 931.169 340.362 931.649 341.642C932.129 342.922 932.875 343.935 933.889 344.682C934.902 345.429 936.129 345.802 937.569 345.802C938.635 345.802 939.515 345.642 940.209 345.322C940.955 344.949 941.569 344.549 942.049 344.122C942.529 343.642 942.902 343.242 943.169 342.922C943.649 342.389 944.022 342.069 944.289 341.962C944.609 341.802 945.089 341.722 945.729 341.722H955.649C956.182 341.722 956.609 341.882 956.929 342.202C957.302 342.469 957.462 342.869 957.409 343.402C957.355 344.309 956.902 345.402 956.049 346.682C955.195 347.962 953.942 349.242 952.289 350.522C950.689 351.749 948.662 352.762 946.209 353.562C943.755 354.362 940.902 354.762 937.649 354.762ZM930.849 328.922H944.369V328.762C944.369 327.055 944.102 325.562 943.569 324.282C943.089 323.002 942.315 322.015 941.249 321.322C940.235 320.629 939.009 320.282 937.569 320.282C936.129 320.282 934.902 320.629 933.889 321.322C932.929 322.015 932.182 323.002 931.649 324.282C931.115 325.562 930.849 327.055 930.849 328.762V328.922ZM968.829 353.962C968.242 353.962 967.762 353.775 967.389 353.402C967.015 353.029 966.829 352.549 966.829 351.962V299.962C966.829 299.375 967.015 298.895 967.389 298.522C967.762 298.149 968.242 297.962 968.829 297.962H979.389C979.922 297.962 980.375 298.149 980.749 298.522C981.175 298.895 981.389 299.375 981.389 299.962V341.882H1005.55C1006.14 341.882 1006.62 342.095 1006.99 342.522C1007.42 342.895 1007.63 343.375 1007.63 343.962V351.962C1007.63 352.549 1007.42 353.029 1006.99 353.402C1006.62 353.775 1006.14 353.962 1005.55 353.962H968.829ZM1026.16 354.762C1023.28 354.762 1020.7 354.229 1018.4 353.162C1016.16 352.042 1014.38 350.549 1013.04 348.682C1011.71 346.815 1011.04 344.709 1011.04 342.362C1011.04 338.575 1012.59 335.589 1015.68 333.402C1018.78 331.162 1022.88 329.642 1028 328.842L1038 327.322V326.202C1038 324.282 1037.6 322.815 1036.8 321.802C1036 320.789 1034.54 320.282 1032.4 320.282C1030.91 320.282 1029.68 320.575 1028.72 321.162C1027.82 321.749 1027.1 322.549 1026.56 323.562C1026.08 324.255 1025.42 324.602 1024.56 324.602H1015.6C1015.02 324.602 1014.56 324.442 1014.24 324.122C1013.92 323.749 1013.79 323.322 1013.84 322.842C1013.84 321.882 1014.19 320.789 1014.88 319.562C1015.63 318.282 1016.75 317.029 1018.24 315.802C1019.74 314.575 1021.66 313.562 1024 312.762C1026.35 311.962 1029.18 311.562 1032.48 311.562C1035.95 311.562 1038.91 311.962 1041.36 312.762C1043.82 313.562 1045.79 314.682 1047.28 316.122C1048.83 317.562 1049.98 319.269 1050.72 321.242C1051.47 323.162 1051.84 325.295 1051.84 327.642V351.962C1051.84 352.549 1051.63 353.029 1051.2 353.402C1050.83 353.775 1050.38 353.962 1049.84 353.962H1040.56C1039.98 353.962 1039.5 353.775 1039.12 353.402C1038.75 353.029 1038.56 352.549 1038.56 351.962V349.162C1037.87 350.175 1036.94 351.109 1035.76 351.962C1034.59 352.815 1033.2 353.482 1031.6 353.962C1030.06 354.495 1028.24 354.762 1026.16 354.762ZM1029.92 345.642C1031.47 345.642 1032.86 345.322 1034.08 344.682C1035.36 343.989 1036.35 342.949 1037.04 341.562C1037.79 340.122 1038.16 338.335 1038.16 336.202V335.082L1031.36 336.282C1028.86 336.709 1027.02 337.375 1025.84 338.282C1024.72 339.135 1024.16 340.149 1024.16 341.322C1024.16 342.229 1024.43 343.002 1024.96 343.642C1025.5 344.282 1026.19 344.789 1027.04 345.162C1027.9 345.482 1028.86 345.642 1029.92 345.642ZM1067.3 369.162C1066.82 369.162 1066.42 369.002 1066.1 368.682C1065.78 368.362 1065.62 367.962 1065.62 367.482C1065.62 367.375 1065.62 367.215 1065.62 367.002C1065.68 366.842 1065.76 366.655 1065.86 366.442L1072.1 351.402L1056.74 315.082C1056.58 314.709 1056.5 314.389 1056.5 314.122C1056.61 313.642 1056.82 313.242 1057.14 312.922C1057.46 312.549 1057.86 312.362 1058.34 312.362H1067.46C1068.16 312.362 1068.66 312.549 1068.98 312.922C1069.36 313.242 1069.6 313.615 1069.7 314.042L1078.9 337.322L1088.26 314.042C1088.48 313.615 1088.74 313.242 1089.06 312.922C1089.44 312.549 1089.97 312.362 1090.66 312.362H1099.62C1100.1 312.362 1100.5 312.549 1100.82 312.922C1101.2 313.242 1101.38 313.615 1101.38 314.042C1101.38 314.309 1101.3 314.655 1101.14 315.082L1078.5 367.482C1078.34 367.909 1078.08 368.282 1077.7 368.602C1077.33 368.975 1076.8 369.162 1076.1 369.162H1067.3ZM1124.91 354.762C1118.62 354.762 1113.61 353.055 1109.87 349.642C1106.14 346.229 1104.19 341.162 1104.03 334.442C1104.03 334.069 1104.03 333.589 1104.03 333.002C1104.03 332.415 1104.03 331.962 1104.03 331.642C1104.19 327.429 1105.13 323.829 1106.83 320.842C1108.59 317.802 1110.99 315.509 1114.03 313.962C1117.13 312.362 1120.73 311.562 1124.83 311.562C1129.53 311.562 1133.39 312.495 1136.43 314.362C1139.53 316.229 1141.85 318.762 1143.39 321.962C1144.94 325.162 1145.71 328.815 1145.71 332.922V334.842C1145.71 335.429 1145.5 335.909 1145.07 336.282C1144.7 336.655 1144.25 336.842 1143.71 336.842H1118.11C1118.11 336.895 1118.11 336.975 1118.11 337.082C1118.11 337.189 1118.11 337.295 1118.11 337.402C1118.17 338.949 1118.43 340.362 1118.91 341.642C1119.39 342.922 1120.14 343.935 1121.15 344.682C1122.17 345.429 1123.39 345.802 1124.83 345.802C1125.9 345.802 1126.78 345.642 1127.47 345.322C1128.22 344.949 1128.83 344.549 1129.31 344.122C1129.79 343.642 1130.17 343.242 1130.43 342.922C1130.91 342.389 1131.29 342.069 1131.55 341.962C1131.87 341.802 1132.35 341.722 1132.99 341.722H1142.91C1143.45 341.722 1143.87 341.882 1144.19 342.202C1144.57 342.469 1144.73 342.869 1144.67 343.402C1144.62 344.309 1144.17 345.402 1143.31 346.682C1142.46 347.962 1141.21 349.242 1139.55 350.522C1137.95 351.749 1135.93 352.762 1133.47 353.562C1131.02 354.362 1128.17 354.762 1124.91 354.762ZM1118.11 328.922H1131.63V328.762C1131.63 327.055 1131.37 325.562 1130.83 324.282C1130.35 323.002 1129.58 322.015 1128.51 321.322C1127.5 320.629 1126.27 320.282 1124.83 320.282C1123.39 320.282 1122.17 320.629 1121.15 321.322C1120.19 322.015 1119.45 323.002 1118.91 324.282C1118.38 325.562 1118.11 327.055 1118.11 328.762V328.922ZM1155.21 353.962C1154.63 353.962 1154.15 353.775 1153.77 353.402C1153.4 353.029 1153.21 352.549 1153.21 351.962V314.362C1153.21 313.829 1153.4 313.375 1153.77 313.002C1154.15 312.575 1154.63 312.362 1155.21 312.362H1164.41C1165 312.362 1165.48 312.575 1165.85 313.002C1166.23 313.375 1166.41 313.829 1166.41 314.362V317.562C1167.85 315.909 1169.56 314.629 1171.53 313.722C1173.56 312.815 1175.83 312.362 1178.33 312.362H1181.85C1182.39 312.362 1182.84 312.549 1183.21 312.922C1183.64 313.295 1183.85 313.775 1183.85 314.362V322.602C1183.85 323.135 1183.64 323.615 1183.21 324.042C1182.84 324.415 1182.39 324.602 1181.85 324.602H1174.09C1171.91 324.602 1170.2 325.215 1168.97 326.442C1167.8 327.615 1167.21 329.295 1167.21 331.482V351.962C1167.21 352.549 1167 353.029 1166.57 353.402C1166.2 353.775 1165.72 353.962 1165.13 353.962H1155.21Z" fill="black"/>
<path d="M186.396 634.988L181.296 626.244L180.404 624.716L179.042 625.845L164.153 638.193L172.336 622.183L173.222 620.448L171.319 620.034L163.103 618.248L169.378 613.716L170.996 612.548L169.424 611.318L154.151 599.373L174.573 605.438L176.096 605.89L176.46 604.344L182.953 576.75L189.035 604.323L189.367 605.829L190.864 605.455L206.663 601.505L197.314 613.582L196.293 614.901L197.712 615.777L214.84 626.345L190.735 622.519L189.356 622.3L189.039 623.659L186.396 634.988Z" fill="#F9FE79" stroke="black" stroke-width="3"/>
<g filter="url(#filter0_d_42_172)">
<path d="M1372 584.119L1338.58 572.036L1322.52 602L1324.27 567.019L1309 559.003L1324.1 551.411L1326.36 534L1338.31 546.788L1354.97 544.039L1347.26 559.534L1372 584.119Z" fill="#F9FE79"/>
<path d="M1337.25 571.328L1324.35 595.406L1325.77 567.094L1325.82 566.137L1324.97 565.691L1312.28 559.032L1324.78 552.752L1325.49 552.394L1325.59 551.604L1327.44 537.35L1337.22 547.812L1337.77 548.398L1338.56 548.268L1352.32 545.997L1345.92 558.866L1345.43 559.835L1346.2 560.598L1366.13 580.402L1339.09 570.625L1337.87 570.185L1337.25 571.328Z" stroke="black" stroke-width="3"/>
</g>
<g filter="url(#filter1_d_42_172)">
<path d="M647.966 80.3332L667.533 110.002L698.319 95.5841L676.001 122.577L683.448 138.133L666.803 135.188L654.587 147.797L652.648 130.398L637.65 122.64L653.098 114.831L647.966 80.3332Z" fill="#F9FE79"/>
<path d="M668.169 111.36L692.908 99.7746L674.845 121.621L674.234 122.36L674.648 123.225L680.834 136.147L667.064 133.711L666.28 133.572L665.726 134.144L655.725 144.467L654.139 130.232L654.05 129.435L653.338 129.066L640.945 122.655L653.775 116.17L654.741 115.682L654.582 114.611L650.447 86.8204L666.281 110.828L666.995 111.91L668.169 111.36Z" stroke="black" stroke-width="3"/>
</g>
<defs>
<filter id="filter0_d_42_172" x="1309" y="534" width="67" height="72" filterUnits="userSpaceOnUse" color-interpolation-filters="sRGB">
<feFlood flood-opacity="0" result="BackgroundImageFix"/>
<feColorMatrix in="SourceAlpha" type="matrix" values="0 0 0 0 0 0 0 0 0 0 0 0 0 0 0 0 0 0 127 0" result="hardAlpha"/>
<feOffset dx="4" dy="4"/>
<feComposite in2="hardAlpha" operator="out"/>
<feColorMatrix type="matrix" values="0 0 0 0 0 0 0 0 0 0 0 0 0 0 0 0 0 0 1 0"/>
<feBlend mode="normal" in2="BackgroundImageFix" result="effect1_dropShadow_42_172"/>
<feBlend mode="normal" in="SourceGraphic" in2="effect1_dropShadow_42_172" result="shape"/>
</filter>
<filter id="filter1_d_42_172" x="637.65" y="80.3331" width="64.6689" height="71.4641" filterUnits="userSpaceOnUse" color-interpolation-filters="sRGB">
<feFlood flood-opacity="0" result="BackgroundImageFix"/>
<feColorMatrix in="SourceAlpha" type="matrix" values="0 0 0 0 0 0 0 0 0 0 0 0 0 0 0 0 0 0 127 0" result="hardAlpha"/>
<feOffset dx="4" dy="4"/>
<feComposite in2="hardAlpha" operator="out"/>
<feColorMatrix type="matrix" values="0 0 0 0 0 0 0 0 0 0 0 0 0 0 0 0 0 0 1 0"/>
<feBlend mode="normal" in2="BackgroundImageFix" result="effect1_dropShadow_42_172"/>
<feBlend mode="normal" in="SourceGraphic" in2="effect1_dropShadow_42_172" result="shape"/>
</filter>
<linearGradient id="paint0_linear_42_172" x1="696.5" y1="290" x2="1417" y2="744.5" gradientUnits="userSpaceOnUse">
<stop offset="0.0890789" stop-color="#BF9DF6"/>
<stop offset="1" stop-color="#F9FE79"/>
</linearGradient>
</defs>
</svg>
