<svg width="982" height="551" viewBox="0 0 982 551" fill="none" xmlns="http://www.w3.org/2000/svg">
<g filter="url(#filter0_d_111_703)">
<rect x="57" width="358" height="123.258" fill="#A4FFA7" shape-rendering="crispEdges"/>
<path d="M155.465 72.629C155.23 72.629 155.038 72.5543 154.889 72.405C154.74 72.2557 154.665 72.0637 154.665 71.829V51.029C154.665 50.7943 154.74 50.6023 154.889 50.453C155.038 50.3037 155.23 50.229 155.465 50.229H164.201C165.929 50.229 167.422 50.4957 168.681 51.029C169.961 51.5623 170.953 52.373 171.657 53.461C172.382 54.5277 172.745 55.861 172.745 57.461C172.745 59.0823 172.382 60.4263 171.657 61.493C170.953 62.5383 169.961 63.317 168.681 63.829C167.422 64.341 165.929 64.597 164.201 64.597H159.913V71.829C159.913 72.0637 159.838 72.2557 159.689 72.405C159.54 72.5543 159.348 72.629 159.113 72.629H155.465ZM159.817 60.629H164.041C165.129 60.629 165.972 60.3623 166.569 59.829C167.188 59.2957 167.497 58.4957 167.497 57.429C167.497 56.4903 167.22 55.7223 166.665 55.125C166.132 54.5277 165.257 54.229 164.041 54.229H159.817V60.629ZM176.457 72.629C176.222 72.629 176.03 72.5543 175.881 72.405C175.731 72.2557 175.657 72.0637 175.657 71.829V50.709C175.657 50.4743 175.731 50.2823 175.881 50.133C176.03 49.9837 176.222 49.909 176.457 49.909H179.657C179.87 49.909 180.051 49.9837 180.201 50.133C180.35 50.2823 180.425 50.4743 180.425 50.709V71.829C180.425 72.0637 180.35 72.2557 180.201 72.405C180.051 72.5543 179.87 72.629 179.657 72.629H176.457ZM189.365 72.949C188.234 72.949 187.221 72.7357 186.325 72.309C185.429 71.861 184.714 71.2637 184.181 70.517C183.648 69.7703 183.381 68.9383 183.381 68.021C183.381 66.5063 183.989 65.3117 185.205 64.437C186.442 63.5623 188.064 62.965 190.069 62.645L194.261 62.037V61.461C194.261 60.629 194.069 59.989 193.685 59.541C193.301 59.093 192.629 58.869 191.669 58.869C190.965 58.869 190.4 59.0077 189.973 59.285C189.546 59.5623 189.216 59.925 188.981 60.373C188.81 60.6503 188.565 60.789 188.245 60.789H185.205C184.97 60.789 184.789 60.725 184.661 60.597C184.533 60.4477 184.48 60.277 184.501 60.085C184.501 59.7223 184.64 59.2957 184.917 58.805C185.194 58.3143 185.621 57.8343 186.197 57.365C186.773 56.8743 187.509 56.469 188.405 56.149C189.301 55.829 190.4 55.669 191.701 55.669C193.045 55.669 194.197 55.829 195.157 56.149C196.117 56.469 196.885 56.917 197.461 57.493C198.037 58.069 198.464 58.741 198.741 59.509C199.018 60.2557 199.157 61.0663 199.157 61.941V71.829C199.157 72.0637 199.082 72.2557 198.933 72.405C198.784 72.5543 198.592 72.629 198.357 72.629H195.221C195.008 72.629 194.826 72.5543 194.677 72.405C194.528 72.2557 194.453 72.0637 194.453 71.829V70.645C194.176 71.0503 193.802 71.4343 193.333 71.797C192.864 72.1383 192.298 72.4157 191.637 72.629C190.997 72.8423 190.24 72.949 189.365 72.949ZM190.645 69.621C191.349 69.621 191.978 69.4717 192.533 69.173C193.088 68.8743 193.525 68.4157 193.845 67.797C194.165 67.1783 194.325 66.3997 194.325 65.461V64.917L191.349 65.397C190.197 65.589 189.354 65.877 188.821 66.261C188.288 66.645 188.021 67.1143 188.021 67.669C188.021 68.0743 188.138 68.4263 188.373 68.725C188.629 69.0237 188.96 69.2477 189.365 69.397C189.77 69.5463 190.197 69.621 190.645 69.621ZM210.907 72.629C209.584 72.629 208.453 72.4157 207.515 71.989C206.576 71.541 205.861 70.8583 205.371 69.941C204.901 69.0237 204.667 67.8717 204.667 66.485V59.765H202.171C201.936 59.765 201.744 59.6903 201.595 59.541C201.445 59.3917 201.371 59.1997 201.371 58.965V56.789C201.371 56.5543 201.445 56.3623 201.595 56.213C201.744 56.0637 201.936 55.989 202.171 55.989H204.667V50.709C204.667 50.4743 204.741 50.2823 204.891 50.133C205.061 49.9837 205.253 49.909 205.467 49.909H208.603C208.837 49.909 209.029 49.9837 209.179 50.133C209.328 50.2823 209.403 50.4743 209.403 50.709V55.989H213.403C213.616 55.989 213.797 56.0637 213.947 56.213C214.096 56.3623 214.171 56.5543 214.171 56.789V58.965C214.171 59.1997 214.096 59.3917 213.947 59.541C213.797 59.6903 213.616 59.765 213.403 59.765H209.403V66.101C209.403 66.9117 209.541 67.5517 209.819 68.021C210.117 68.469 210.629 68.693 211.355 68.693H213.691C213.904 68.693 214.085 68.7677 214.235 68.917C214.384 69.0663 214.459 69.2477 214.459 69.461V71.829C214.459 72.0637 214.384 72.2557 214.235 72.405C214.085 72.5543 213.904 72.629 213.691 72.629H210.907ZM219.874 72.629C219.64 72.629 219.448 72.5543 219.298 72.405C219.149 72.2557 219.074 72.0637 219.074 71.829V59.765H216.578C216.344 59.765 216.152 59.6903 216.002 59.541C215.853 59.3917 215.778 59.1997 215.778 58.965V56.789C215.778 56.5543 215.853 56.3623 216.002 56.213C216.152 56.0637 216.344 55.989 216.578 55.989H219.074V54.837C219.074 53.4717 219.33 52.3517 219.842 51.477C220.354 50.6023 221.101 49.9623 222.082 49.557C223.064 49.1517 224.269 48.949 225.698 48.949H228.034C228.269 48.949 228.461 49.0237 228.61 49.173C228.76 49.3223 228.834 49.5143 228.834 49.749V51.925C228.834 52.1597 228.76 52.3517 228.61 52.501C228.461 52.6503 228.269 52.725 228.034 52.725H225.89C225.101 52.725 224.546 52.917 224.226 53.301C223.928 53.685 223.778 54.2503 223.778 54.997V55.989H227.714C227.949 55.989 228.141 56.0637 228.29 56.213C228.44 56.3623 228.514 56.5543 228.514 56.789V58.965C228.514 59.1997 228.44 59.3917 228.29 59.541C228.141 59.6903 227.949 59.765 227.714 59.765H223.778V71.829C223.778 72.0637 223.704 72.2557 223.554 72.405C223.405 72.5543 223.224 72.629 223.01 72.629H219.874ZM238.335 72.949C236.564 72.949 235.082 72.661 233.887 72.085C232.692 71.4877 231.775 70.645 231.135 69.557C230.516 68.469 230.175 67.1997 230.111 65.749C230.09 65.3223 230.079 64.8423 230.079 64.309C230.079 63.7543 230.09 63.2743 230.111 62.869C230.175 61.397 230.538 60.1277 231.199 59.061C231.86 57.973 232.788 57.141 233.983 56.565C235.178 55.9677 236.628 55.669 238.335 55.669C240.02 55.669 241.46 55.9677 242.655 56.565C243.85 57.141 244.778 57.973 245.439 59.061C246.1 60.1277 246.463 61.397 246.527 62.869C246.57 63.2743 246.591 63.7543 246.591 64.309C246.591 64.8423 246.57 65.3223 246.527 65.749C246.463 67.1997 246.111 68.469 245.471 69.557C244.852 70.645 243.946 71.4877 242.751 72.085C241.556 72.661 240.084 72.949 238.335 72.949ZM238.335 69.429C239.38 69.429 240.17 69.109 240.703 68.469C241.236 67.8077 241.524 66.8477 241.567 65.589C241.588 65.269 241.599 64.8423 241.599 64.309C241.599 63.7757 241.588 63.349 241.567 63.029C241.524 61.7917 241.236 60.8423 240.703 60.181C240.17 59.5197 239.38 59.189 238.335 59.189C237.29 59.189 236.49 59.5197 235.935 60.181C235.402 60.8423 235.114 61.7917 235.071 63.029C235.05 63.349 235.039 63.7757 235.039 64.309C235.039 64.8423 235.05 65.269 235.071 65.589C235.114 66.8477 235.402 67.8077 235.935 68.469C236.49 69.109 237.29 69.429 238.335 69.429ZM250.706 72.629C250.493 72.629 250.311 72.5543 250.162 72.405C250.013 72.2557 249.938 72.0637 249.938 71.829V56.789C249.938 56.5757 250.013 56.3943 250.162 56.245C250.311 56.0743 250.493 55.989 250.706 55.989H253.842C254.055 55.989 254.237 56.0743 254.386 56.245C254.557 56.3943 254.642 56.5757 254.642 56.789V58.069C255.175 57.4077 255.826 56.8957 256.594 56.533C257.383 56.1703 258.29 55.989 259.314 55.989H260.69C260.903 55.989 261.085 56.0637 261.234 56.213C261.383 56.3623 261.458 56.5543 261.458 56.789V59.541C261.458 59.7757 261.383 59.9677 261.234 60.117C261.085 60.2663 260.903 60.341 260.69 60.341H257.874C256.935 60.341 256.199 60.6077 255.666 61.141C255.133 61.653 254.866 62.389 254.866 63.349V71.829C254.866 72.0637 254.791 72.2557 254.642 72.405C254.493 72.5543 254.301 72.629 254.066 72.629H250.706ZM264.612 72.629C264.399 72.629 264.217 72.5543 264.068 72.405C263.919 72.2557 263.844 72.0637 263.844 71.829V56.789C263.844 56.5543 263.919 56.3623 264.068 56.213C264.217 56.0637 264.399 55.989 264.612 55.989H267.588C267.801 55.989 267.983 56.0637 268.132 56.213C268.303 56.3623 268.388 56.5543 268.388 56.789V57.877C268.815 57.2797 269.401 56.7677 270.148 56.341C270.916 55.9143 271.823 55.6903 272.868 55.669C275.343 55.6263 277.039 56.565 277.956 58.485C278.447 57.653 279.151 56.981 280.068 56.469C281.007 55.9357 282.031 55.669 283.14 55.669C284.249 55.669 285.252 55.925 286.148 56.437C287.044 56.9277 287.748 57.6957 288.26 58.741C288.793 59.765 289.06 61.0877 289.06 62.709V71.829C289.06 72.0637 288.985 72.2557 288.836 72.405C288.687 72.5543 288.505 72.629 288.292 72.629H285.124C284.911 72.629 284.729 72.5543 284.58 72.405C284.431 72.2557 284.356 72.0637 284.356 71.829V62.965C284.356 62.0903 284.228 61.4077 283.972 60.917C283.716 60.405 283.375 60.0423 282.948 59.829C282.543 59.6157 282.084 59.509 281.572 59.509C281.124 59.509 280.687 59.6157 280.26 59.829C279.855 60.0423 279.513 60.405 279.236 60.917C278.98 61.4077 278.852 62.0903 278.852 62.965V71.829C278.852 72.0637 278.777 72.2557 278.628 72.405C278.479 72.5543 278.287 72.629 278.052 72.629H274.916C274.681 72.629 274.489 72.5543 274.34 72.405C274.191 72.2557 274.116 72.0637 274.116 71.829V62.965C274.116 62.0903 273.988 61.4077 273.732 60.917C273.476 60.405 273.135 60.0423 272.708 59.829C272.303 59.6157 271.855 59.509 271.364 59.509C270.916 59.509 270.479 59.6263 270.052 59.861C269.625 60.0743 269.273 60.4263 268.996 60.917C268.74 61.4077 268.612 62.0797 268.612 62.933V71.829C268.612 72.0637 268.537 72.2557 268.388 72.405C268.239 72.5543 268.057 72.629 267.844 72.629H264.612ZM298.228 72.629C298.036 72.629 297.876 72.565 297.748 72.437C297.62 72.2877 297.556 72.1277 297.556 71.957C297.556 71.8503 297.567 71.7543 297.588 71.669L305.204 51.093C305.268 50.8583 305.396 50.6557 305.588 50.485C305.78 50.3143 306.047 50.229 306.388 50.229H310.484C310.825 50.229 311.092 50.3143 311.284 50.485C311.476 50.6557 311.604 50.8583 311.668 51.093L319.284 71.669C319.305 71.7543 319.316 71.8503 319.316 71.957C319.316 72.1277 319.252 72.2877 319.124 72.437C318.996 72.565 318.836 72.629 318.644 72.629H315.316C314.996 72.629 314.761 72.5543 314.612 72.405C314.463 72.2557 314.367 72.117 314.324 71.989L312.948 68.405H303.924L302.548 71.989C302.505 72.117 302.409 72.2557 302.26 72.405C302.111 72.5543 301.876 72.629 301.556 72.629H298.228ZM305.108 64.277H311.732L308.436 55.061L305.108 64.277Z" fill="black"/>
<rect x="58.5" y="1.5" width="355" height="120.258" stroke="black" stroke-width="3" shape-rendering="crispEdges"/>
</g>
<g filter="url(#filter1_d_111_703)">
<rect x="563" width="358" height="123.258" fill="#A3F4EF" shape-rendering="crispEdges"/>
<path d="M661.199 72.629C660.965 72.629 660.773 72.5543 660.623 72.405C660.474 72.2557 660.399 72.0637 660.399 71.829V51.029C660.399 50.7943 660.474 50.6023 660.623 50.453C660.773 50.3037 660.965 50.229 661.199 50.229H669.935C671.663 50.229 673.157 50.4957 674.415 51.029C675.695 51.5623 676.687 52.373 677.391 53.461C678.117 54.5277 678.479 55.861 678.479 57.461C678.479 59.0823 678.117 60.4263 677.391 61.493C676.687 62.5383 675.695 63.317 674.415 63.829C673.157 64.341 671.663 64.597 669.935 64.597H665.647V71.829C665.647 72.0637 665.573 72.2557 665.423 72.405C665.274 72.5543 665.082 72.629 664.847 72.629H661.199ZM665.551 60.629H669.775C670.863 60.629 671.706 60.3623 672.303 59.829C672.922 59.2957 673.231 58.4957 673.231 57.429C673.231 56.4903 672.954 55.7223 672.399 55.125C671.866 54.5277 670.991 54.229 669.775 54.229H665.551V60.629ZM682.191 72.629C681.956 72.629 681.764 72.5543 681.615 72.405C681.466 72.2557 681.391 72.0637 681.391 71.829V50.709C681.391 50.4743 681.466 50.2823 681.615 50.133C681.764 49.9837 681.956 49.909 682.191 49.909H685.391C685.604 49.909 685.786 49.9837 685.935 50.133C686.084 50.2823 686.159 50.4743 686.159 50.709V71.829C686.159 72.0637 686.084 72.2557 685.935 72.405C685.786 72.5543 685.604 72.629 685.391 72.629H682.191ZM695.1 72.949C693.969 72.949 692.956 72.7357 692.06 72.309C691.164 71.861 690.449 71.2637 689.916 70.517C689.382 69.7703 689.116 68.9383 689.116 68.021C689.116 66.5063 689.724 65.3117 690.94 64.437C692.177 63.5623 693.798 62.965 695.804 62.645L699.996 62.037V61.461C699.996 60.629 699.804 59.989 699.42 59.541C699.036 59.093 698.364 58.869 697.404 58.869C696.7 58.869 696.134 59.0077 695.708 59.285C695.281 59.5623 694.95 59.925 694.716 60.373C694.545 60.6503 694.3 60.789 693.98 60.789H690.94C690.705 60.789 690.524 60.725 690.396 60.597C690.268 60.4477 690.214 60.277 690.236 60.085C690.236 59.7223 690.374 59.2957 690.652 58.805C690.929 58.3143 691.356 57.8343 691.932 57.365C692.508 56.8743 693.244 56.469 694.14 56.149C695.036 55.829 696.134 55.669 697.436 55.669C698.78 55.669 699.932 55.829 700.892 56.149C701.852 56.469 702.62 56.917 703.196 57.493C703.772 58.069 704.198 58.741 704.476 59.509C704.753 60.2557 704.892 61.0663 704.892 61.941V71.829C704.892 72.0637 704.817 72.2557 704.668 72.405C704.518 72.5543 704.326 72.629 704.092 72.629H700.956C700.742 72.629 700.561 72.5543 700.412 72.405C700.262 72.2557 700.188 72.0637 700.188 71.829V70.645C699.91 71.0503 699.537 71.4343 699.068 71.797C698.598 72.1383 698.033 72.4157 697.372 72.629C696.731 72.8423 695.974 72.949 695.1 72.949ZM696.38 69.621C697.084 69.621 697.713 69.4717 698.268 69.173C698.822 68.8743 699.26 68.4157 699.58 67.797C699.9 67.1783 700.06 66.3997 700.06 65.461V64.917L697.084 65.397C695.932 65.589 695.089 65.877 694.556 66.261C694.022 66.645 693.756 67.1143 693.756 67.669C693.756 68.0743 693.873 68.4263 694.108 68.725C694.364 69.0237 694.694 69.2477 695.1 69.397C695.505 69.5463 695.932 69.621 696.38 69.621ZM716.641 72.629C715.318 72.629 714.188 72.4157 713.249 71.989C712.31 71.541 711.596 70.8583 711.105 69.941C710.636 69.0237 710.401 67.8717 710.401 66.485V59.765H707.905C707.67 59.765 707.478 59.6903 707.329 59.541C707.18 59.3917 707.105 59.1997 707.105 58.965V56.789C707.105 56.5543 707.18 56.3623 707.329 56.213C707.478 56.0637 707.67 55.989 707.905 55.989H710.401V50.709C710.401 50.4743 710.476 50.2823 710.625 50.133C710.796 49.9837 710.988 49.909 711.201 49.909H714.337C714.572 49.909 714.764 49.9837 714.913 50.133C715.062 50.2823 715.137 50.4743 715.137 50.709V55.989H719.137C719.35 55.989 719.532 56.0637 719.681 56.213C719.83 56.3623 719.905 56.5543 719.905 56.789V58.965C719.905 59.1997 719.83 59.3917 719.681 59.541C719.532 59.6903 719.35 59.765 719.137 59.765H715.137V66.101C715.137 66.9117 715.276 67.5517 715.553 68.021C715.852 68.469 716.364 68.693 717.089 68.693H719.425C719.638 68.693 719.82 68.7677 719.969 68.917C720.118 69.0663 720.193 69.2477 720.193 69.461V71.829C720.193 72.0637 720.118 72.2557 719.969 72.405C719.82 72.5543 719.638 72.629 719.425 72.629H716.641ZM725.609 72.629C725.374 72.629 725.182 72.5543 725.033 72.405C724.883 72.2557 724.809 72.0637 724.809 71.829V59.765H722.313C722.078 59.765 721.886 59.6903 721.737 59.541C721.587 59.3917 721.513 59.1997 721.513 58.965V56.789C721.513 56.5543 721.587 56.3623 721.737 56.213C721.886 56.0637 722.078 55.989 722.313 55.989H724.809V54.837C724.809 53.4717 725.065 52.3517 725.577 51.477C726.089 50.6023 726.835 49.9623 727.817 49.557C728.798 49.1517 730.003 48.949 731.433 48.949H733.769C734.003 48.949 734.195 49.0237 734.345 49.173C734.494 49.3223 734.569 49.5143 734.569 49.749V51.925C734.569 52.1597 734.494 52.3517 734.345 52.501C734.195 52.6503 734.003 52.725 733.769 52.725H731.625C730.835 52.725 730.281 52.917 729.961 53.301C729.662 53.685 729.513 54.2503 729.513 54.997V55.989H733.449C733.683 55.989 733.875 56.0637 734.025 56.213C734.174 56.3623 734.249 56.5543 734.249 56.789V58.965C734.249 59.1997 734.174 59.3917 734.025 59.541C733.875 59.6903 733.683 59.765 733.449 59.765H729.513V71.829C729.513 72.0637 729.438 72.2557 729.289 72.405C729.139 72.5543 728.958 72.629 728.745 72.629H725.609ZM744.07 72.949C742.299 72.949 740.816 72.661 739.622 72.085C738.427 71.4877 737.51 70.645 736.87 69.557C736.251 68.469 735.91 67.1997 735.846 65.749C735.824 65.3223 735.814 64.8423 735.814 64.309C735.814 63.7543 735.824 63.2743 735.846 62.869C735.91 61.397 736.272 60.1277 736.934 59.061C737.595 57.973 738.523 57.141 739.718 56.565C740.912 55.9677 742.363 55.669 744.07 55.669C745.755 55.669 747.195 55.9677 748.39 56.565C749.584 57.141 750.512 57.973 751.174 59.061C751.835 60.1277 752.198 61.397 752.262 62.869C752.304 63.2743 752.326 63.7543 752.326 64.309C752.326 64.8423 752.304 65.3223 752.262 65.749C752.198 67.1997 751.846 68.469 751.206 69.557C750.587 70.645 749.68 71.4877 748.486 72.085C747.291 72.661 745.819 72.949 744.07 72.949ZM744.07 69.429C745.115 69.429 745.904 69.109 746.438 68.469C746.971 67.8077 747.259 66.8477 747.302 65.589C747.323 65.269 747.334 64.8423 747.334 64.309C747.334 63.7757 747.323 63.349 747.302 63.029C747.259 61.7917 746.971 60.8423 746.438 60.181C745.904 59.5197 745.115 59.189 744.07 59.189C743.024 59.189 742.224 59.5197 741.67 60.181C741.136 60.8423 740.848 61.7917 740.806 63.029C740.784 63.349 740.774 63.7757 740.774 64.309C740.774 64.8423 740.784 65.269 740.806 65.589C740.848 66.8477 741.136 67.8077 741.67 68.469C742.224 69.109 743.024 69.429 744.07 69.429ZM756.44 72.629C756.227 72.629 756.046 72.5543 755.896 72.405C755.747 72.2557 755.672 72.0637 755.672 71.829V56.789C755.672 56.5757 755.747 56.3943 755.896 56.245C756.046 56.0743 756.227 55.989 756.44 55.989H759.576C759.79 55.989 759.971 56.0743 760.12 56.245C760.291 56.3943 760.376 56.5757 760.376 56.789V58.069C760.91 57.4077 761.56 56.8957 762.328 56.533C763.118 56.1703 764.024 55.989 765.048 55.989H766.424C766.638 55.989 766.819 56.0637 766.968 56.213C767.118 56.3623 767.192 56.5543 767.192 56.789V59.541C767.192 59.7757 767.118 59.9677 766.968 60.117C766.819 60.2663 766.638 60.341 766.424 60.341H763.608C762.67 60.341 761.934 60.6077 761.4 61.141C760.867 61.653 760.6 62.389 760.6 63.349V71.829C760.6 72.0637 760.526 72.2557 760.376 72.405C760.227 72.5543 760.035 72.629 759.8 72.629H756.44ZM770.347 72.629C770.133 72.629 769.952 72.5543 769.803 72.405C769.653 72.2557 769.579 72.0637 769.579 71.829V56.789C769.579 56.5543 769.653 56.3623 769.803 56.213C769.952 56.0637 770.133 55.989 770.347 55.989H773.323C773.536 55.989 773.717 56.0637 773.867 56.213C774.037 56.3623 774.123 56.5543 774.123 56.789V57.877C774.549 57.2797 775.136 56.7677 775.883 56.341C776.651 55.9143 777.557 55.6903 778.603 55.669C781.077 55.6263 782.773 56.565 783.691 58.485C784.181 57.653 784.885 56.981 785.803 56.469C786.741 55.9357 787.765 55.669 788.875 55.669C789.984 55.669 790.987 55.925 791.883 56.437C792.779 56.9277 793.483 57.6957 793.995 58.741C794.528 59.765 794.795 61.0877 794.795 62.709V71.829C794.795 72.0637 794.72 72.2557 794.571 72.405C794.421 72.5543 794.24 72.629 794.027 72.629H790.859C790.645 72.629 790.464 72.5543 790.315 72.405C790.165 72.2557 790.091 72.0637 790.091 71.829V62.965C790.091 62.0903 789.963 61.4077 789.707 60.917C789.451 60.405 789.109 60.0423 788.683 59.829C788.277 59.6157 787.819 59.509 787.307 59.509C786.859 59.509 786.421 59.6157 785.995 59.829C785.589 60.0423 785.248 60.405 784.971 60.917C784.715 61.4077 784.587 62.0903 784.587 62.965V71.829C784.587 72.0637 784.512 72.2557 784.363 72.405C784.213 72.5543 784.021 72.629 783.787 72.629H780.651C780.416 72.629 780.224 72.5543 780.075 72.405C779.925 72.2557 779.851 72.0637 779.851 71.829V62.965C779.851 62.0903 779.723 61.4077 779.467 60.917C779.211 60.405 778.869 60.0423 778.443 59.829C778.037 59.6157 777.589 59.509 777.099 59.509C776.651 59.509 776.213 59.6263 775.786 59.861C775.36 60.0743 775.008 60.4263 774.731 60.917C774.475 61.4077 774.347 62.0797 774.347 62.933V71.829C774.347 72.0637 774.272 72.2557 774.123 72.405C773.973 72.5543 773.792 72.629 773.579 72.629H770.347ZM806.887 72.629C806.652 72.629 806.46 72.5543 806.311 72.405C806.161 72.2557 806.087 72.0637 806.087 71.829V51.029C806.087 50.7943 806.161 50.6023 806.311 50.453C806.46 50.3037 806.652 50.229 806.887 50.229H816.391C818.161 50.229 819.612 50.485 820.743 50.997C821.873 51.509 822.705 52.2343 823.239 53.173C823.793 54.1117 824.071 55.2103 824.071 56.469C824.071 57.2583 823.921 57.9517 823.623 58.549C823.345 59.1463 822.993 59.637 822.567 60.021C822.161 60.405 821.767 60.693 821.383 60.885C822.215 61.269 822.94 61.909 823.559 62.805C824.199 63.6797 824.519 64.725 824.519 65.941C824.519 67.285 824.22 68.4583 823.623 69.461C823.025 70.4637 822.14 71.2423 820.967 71.797C819.793 72.3517 818.364 72.629 816.679 72.629H806.887ZM811.175 68.885H816.071C817.116 68.885 817.905 68.597 818.439 68.021C818.972 67.4237 819.239 66.7197 819.239 65.909C819.239 65.077 818.961 64.3837 818.407 63.829C817.873 63.253 817.095 62.965 816.071 62.965H811.175V68.885ZM811.175 59.285H815.783C816.785 59.285 817.532 59.0397 818.023 58.549C818.535 58.037 818.791 57.3863 818.791 56.597C818.791 55.8077 818.535 55.1783 818.023 54.709C817.532 54.2183 816.785 53.973 815.783 53.973H811.175V59.285Z" fill="black"/>
<rect x="564.5" y="1.5" width="355" height="120.258" stroke="black" stroke-width="3" shape-rendering="crispEdges"/>
</g>
<path d="M185 147L167.679 177L202.321 177L185 147ZM188 237L188 174L182 174L182 237L188 237Z" fill="black"/>
<path d="M285 237L302.321 207L267.679 207L285 237ZM288 210L288 147L282 147L282 210L288 210Z" fill="black"/>
<path d="M693 143.258L675.679 173.258L710.321 173.258L693 143.258ZM696 233.258L696 170.258L690 170.258L690 233.258L696 233.258Z" fill="black"/>
<path d="M793 233.258L810.321 203.258L775.679 203.258L793 233.258ZM796 206.258L796 143.258L790 143.258L790 206.258L796 206.258Z" fill="black"/>
<g filter="url(#filter2_d_111_703)">
<rect y="257" width="978" height="290" fill="#F9FE79" shape-rendering="crispEdges"/>
<path d="M461 401.5C461 427.575 440.508 451.558 406.528 469.11C372.624 486.623 325.683 497.5 273.75 497.5C221.817 497.5 174.876 486.623 140.972 469.11C106.992 451.558 86.5 427.575 86.5 401.5C86.5 375.425 106.992 351.442 140.972 333.89C174.876 316.377 221.817 305.5 273.75 305.5C325.683 305.5 372.624 316.377 406.528 333.89C440.508 351.442 461 375.425 461 401.5Z" fill="#FBFFA2" stroke="black" stroke-width="3"/>
<circle cx="150" cy="384" r="21.5" fill="#A3F4EF" stroke="black" stroke-width="2"/>
<path fill-rule="evenodd" clip-rule="evenodd" d="M145.388 377.85C145.388 376.627 145.874 375.453 146.739 374.588C147.604 373.723 148.777 373.237 150 373.237C151.224 373.237 152.397 373.723 153.262 374.588C154.127 375.453 154.613 376.627 154.613 377.85C154.613 379.073 154.127 380.247 153.262 381.112C152.397 381.977 151.224 382.462 150 382.462C148.777 382.462 147.604 381.977 146.739 381.112C145.874 380.247 145.388 379.073 145.388 377.85ZM141.545 392.308C141.58 390.088 142.486 387.971 144.068 386.413C145.649 384.856 147.78 383.983 150 383.983C152.22 383.983 154.351 384.856 155.933 386.413C157.515 387.971 158.421 390.088 158.455 392.308C158.458 392.457 158.417 392.604 158.338 392.731C158.258 392.857 158.143 392.958 158.008 393.02C155.495 394.172 152.764 394.766 150 394.762C147.145 394.762 144.431 394.139 141.993 393.02C141.857 392.958 141.742 392.857 141.663 392.731C141.583 392.604 141.542 392.457 141.545 392.308Z" fill="black"/>
<circle cx="207.5" cy="349" r="21.5" fill="#A3F4EF" stroke="black" stroke-width="2"/>
<path fill-rule="evenodd" clip-rule="evenodd" d="M202.888 342.85C202.888 341.627 203.374 340.453 204.239 339.588C205.104 338.723 206.277 338.238 207.5 338.238C208.724 338.238 209.897 338.723 210.762 339.588C211.627 340.453 212.113 341.627 212.113 342.85C212.113 344.073 211.627 345.247 210.762 346.112C209.897 346.977 208.724 347.463 207.5 347.463C206.277 347.463 205.104 346.977 204.239 346.112C203.374 345.247 202.888 344.073 202.888 342.85ZM199.045 357.308C199.08 355.088 199.986 352.971 201.568 351.413C203.149 349.856 205.28 348.983 207.5 348.983C209.72 348.983 211.851 349.856 213.433 351.413C215.015 352.971 215.921 355.088 215.955 357.308C215.958 357.457 215.917 357.604 215.838 357.731C215.758 357.857 215.643 357.958 215.508 358.02C212.995 359.172 210.264 359.766 207.5 359.763C204.645 359.763 201.931 359.139 199.493 358.02C199.357 357.958 199.242 357.857 199.163 357.731C199.083 357.604 199.042 357.457 199.045 357.308Z" fill="black"/>
<circle cx="272.5" cy="337.75" r="21.5" fill="#A4FFA7" stroke="black" stroke-width="2"/>
<path fill-rule="evenodd" clip-rule="evenodd" d="M267.888 331.6C267.888 330.377 268.374 329.203 269.239 328.338C270.104 327.473 271.277 326.988 272.5 326.988C273.724 326.988 274.897 327.473 275.762 328.338C276.627 329.203 277.113 330.377 277.113 331.6C277.113 332.823 276.627 333.997 275.762 334.862C274.897 335.727 273.724 336.213 272.5 336.213C271.277 336.213 270.104 335.727 269.239 334.862C268.374 333.997 267.888 332.823 267.888 331.6ZM264.045 346.058C264.08 343.838 264.986 341.721 266.568 340.163C268.149 338.606 270.28 337.733 272.5 337.733C274.72 337.733 276.851 338.606 278.433 340.163C280.015 341.721 280.921 343.838 280.955 346.058C280.958 346.207 280.917 346.354 280.838 346.481C280.758 346.607 280.643 346.708 280.508 346.77C277.995 347.922 275.264 348.516 272.5 348.513C269.645 348.513 266.931 347.889 264.493 346.77C264.357 346.708 264.242 346.607 264.163 346.481C264.083 346.354 264.042 346.207 264.045 346.058Z" fill="black"/>
<circle cx="216.25" cy="406.5" r="21.5" fill="#A4FFA7" stroke="black" stroke-width="2"/>
<path fill-rule="evenodd" clip-rule="evenodd" d="M211.638 400.35C211.638 399.127 212.124 397.953 212.989 397.088C213.854 396.223 215.027 395.737 216.25 395.737C217.474 395.737 218.647 396.223 219.512 397.088C220.377 397.953 220.863 399.127 220.863 400.35C220.863 401.573 220.377 402.747 219.512 403.612C218.647 404.477 217.474 404.962 216.25 404.962C215.027 404.962 213.854 404.477 212.989 403.612C212.124 402.747 211.638 401.573 211.638 400.35ZM207.795 414.808C207.83 412.588 208.736 410.471 210.318 408.913C211.899 407.356 214.03 406.483 216.25 406.483C218.47 406.483 220.601 407.356 222.183 408.913C223.765 410.471 224.671 412.588 224.705 414.808C224.708 414.957 224.667 415.104 224.588 415.231C224.508 415.357 224.393 415.458 224.258 415.52C221.745 416.672 219.014 417.266 216.25 417.262C213.395 417.262 210.681 416.639 208.243 415.52C208.107 415.458 207.992 415.357 207.913 415.231C207.833 415.104 207.792 414.957 207.795 414.808Z" fill="black"/>
<circle cx="272.5" cy="395.25" r="21.5" fill="#A3F4EF" stroke="black" stroke-width="2"/>
<path fill-rule="evenodd" clip-rule="evenodd" d="M267.888 389.1C267.888 387.877 268.374 386.703 269.239 385.838C270.104 384.973 271.277 384.487 272.5 384.487C273.724 384.487 274.897 384.973 275.762 385.838C276.627 386.703 277.113 387.877 277.113 389.1C277.113 390.323 276.627 391.497 275.762 392.362C274.897 393.227 273.724 393.712 272.5 393.712C271.277 393.712 270.104 393.227 269.239 392.362C268.374 391.497 267.888 390.323 267.888 389.1ZM264.045 403.558C264.08 401.338 264.986 399.221 266.568 397.663C268.149 396.106 270.28 395.233 272.5 395.233C274.72 395.233 276.851 396.106 278.433 397.663C280.015 399.221 280.921 401.338 280.955 403.558C280.958 403.707 280.917 403.854 280.838 403.981C280.758 404.107 280.643 404.208 280.508 404.27C277.995 405.422 275.264 406.016 272.5 406.012C269.645 406.012 266.931 405.389 264.493 404.27C264.357 404.208 264.242 404.107 264.163 403.981C264.083 403.854 264.042 403.707 264.045 403.558Z" fill="black"/>
<circle cx="331.25" cy="395.25" r="21.5" fill="#A4FFA7" stroke="black" stroke-width="2"/>
<path fill-rule="evenodd" clip-rule="evenodd" d="M326.638 389.1C326.638 387.877 327.124 386.703 327.989 385.838C328.854 384.973 330.027 384.487 331.25 384.487C332.474 384.487 333.647 384.973 334.512 385.838C335.377 386.703 335.863 387.877 335.863 389.1C335.863 390.323 335.377 391.497 334.512 392.362C333.647 393.227 332.474 393.712 331.25 393.712C330.027 393.712 328.854 393.227 327.989 392.362C327.124 391.497 326.638 390.323 326.638 389.1ZM322.795 403.558C322.83 401.338 323.736 399.221 325.318 397.663C326.899 396.106 329.03 395.233 331.25 395.233C333.47 395.233 335.601 396.106 337.183 397.663C338.765 399.221 339.671 401.338 339.705 403.558C339.708 403.707 339.667 403.854 339.588 403.981C339.508 404.107 339.393 404.208 339.258 404.27C336.745 405.422 334.014 406.016 331.25 406.012C328.395 406.012 325.681 405.389 323.243 404.27C323.107 404.208 322.992 404.107 322.913 403.981C322.833 403.854 322.792 403.707 322.795 403.558Z" fill="black"/>
<circle cx="341.25" cy="345.25" r="21.5" fill="#A3F4EF" stroke="black" stroke-width="2"/>
<path fill-rule="evenodd" clip-rule="evenodd" d="M336.638 339.1C336.638 337.877 337.124 336.703 337.989 335.838C338.854 334.973 340.027 334.488 341.25 334.488C342.474 334.488 343.647 334.973 344.512 335.838C345.377 336.703 345.863 337.877 345.863 339.1C345.863 340.323 345.377 341.497 344.512 342.362C343.647 343.227 342.474 343.713 341.25 343.713C340.027 343.713 338.854 343.227 337.989 342.362C337.124 341.497 336.638 340.323 336.638 339.1ZM332.795 353.558C332.83 351.338 333.736 349.221 335.318 347.663C336.899 346.106 339.03 345.233 341.25 345.233C343.47 345.233 345.601 346.106 347.183 347.663C348.765 349.221 349.671 351.338 349.705 353.558C349.708 353.707 349.667 353.854 349.588 353.981C349.508 354.107 349.393 354.208 349.258 354.27C346.745 355.422 344.014 356.016 341.25 356.013C338.395 356.013 335.681 355.389 333.243 354.27C333.107 354.208 332.992 354.107 332.913 353.981C332.833 353.854 332.792 353.707 332.795 353.558Z" fill="black"/>
<circle cx="397.5" cy="379" r="21.5" fill="#A4FFA7" stroke="black" stroke-width="2"/>
<path fill-rule="evenodd" clip-rule="evenodd" d="M392.888 372.85C392.888 371.627 393.374 370.453 394.239 369.588C395.104 368.723 396.277 368.237 397.5 368.237C398.724 368.237 399.897 368.723 400.762 369.588C401.627 370.453 402.113 371.627 402.113 372.85C402.113 374.073 401.627 375.247 400.762 376.112C399.897 376.977 398.724 377.462 397.5 377.462C396.277 377.462 395.104 376.977 394.239 376.112C393.374 375.247 392.888 374.073 392.888 372.85ZM389.045 387.308C389.08 385.088 389.986 382.971 391.568 381.413C393.149 379.856 395.28 378.983 397.5 378.983C399.72 378.983 401.851 379.856 403.433 381.413C405.015 382.971 405.921 385.088 405.955 387.308C405.958 387.457 405.917 387.604 405.838 387.731C405.758 387.857 405.643 387.958 405.508 388.02C402.995 389.172 400.264 389.766 397.5 389.762C394.645 389.762 391.931 389.139 389.493 388.02C389.357 387.958 389.242 387.857 389.163 387.731C389.083 387.604 389.042 387.457 389.045 387.308Z" fill="black"/>
<path d="M234.152 472.34C232.837 472.34 231.67 472.045 230.65 471.456C229.652 470.844 228.87 469.971 228.304 468.838C227.76 467.682 227.488 466.288 227.488 464.656V455.17C227.488 454.921 227.567 454.717 227.726 454.558C227.884 454.399 228.077 454.32 228.304 454.32H231.908C232.157 454.32 232.361 454.399 232.52 454.558C232.678 454.717 232.758 454.921 232.758 455.17V464.452C232.758 466.991 233.868 468.26 236.09 468.26C237.155 468.26 237.994 467.931 238.606 467.274C239.24 466.594 239.558 465.653 239.558 464.452V455.17C239.558 454.921 239.637 454.717 239.796 454.558C239.954 454.399 240.158 454.32 240.408 454.32H244.012C244.238 454.32 244.431 454.399 244.59 454.558C244.748 454.717 244.828 454.921 244.828 455.17V471.15C244.828 471.399 244.748 471.603 244.59 471.762C244.431 471.921 244.238 472 244.012 472H240.68C240.43 472 240.226 471.921 240.068 471.762C239.909 471.603 239.83 471.399 239.83 471.15V469.824C239.24 470.64 238.481 471.263 237.552 471.694C236.622 472.125 235.489 472.34 234.152 472.34ZM256.077 472.34C254.672 472.34 253.459 472.181 252.439 471.864C251.442 471.524 250.626 471.116 249.991 470.64C249.379 470.164 248.914 469.688 248.597 469.212C248.302 468.713 248.144 468.294 248.121 467.954C248.098 467.705 248.178 467.501 248.359 467.342C248.54 467.183 248.722 467.104 248.903 467.104H252.201C252.269 467.104 252.337 467.115 252.405 467.138C252.473 467.161 252.541 467.217 252.609 467.308C252.904 467.512 253.21 467.75 253.527 468.022C253.844 468.271 254.207 468.487 254.615 468.668C255.046 468.849 255.578 468.94 256.213 468.94C256.961 468.94 257.596 468.793 258.117 468.498C258.638 468.181 258.899 467.739 258.899 467.172C258.899 466.764 258.774 466.424 258.525 466.152C258.298 465.88 257.856 465.631 257.199 465.404C256.542 465.177 255.567 464.928 254.275 464.656C253.051 464.384 252.008 464.021 251.147 463.568C250.286 463.115 249.64 462.548 249.209 461.868C248.778 461.165 248.563 460.327 248.563 459.352C248.563 458.468 248.835 457.618 249.379 456.802C249.946 455.986 250.773 455.317 251.861 454.796C252.949 454.252 254.309 453.98 255.941 453.98C257.188 453.98 258.276 454.139 259.205 454.456C260.157 454.751 260.95 455.136 261.585 455.612C262.22 456.065 262.696 456.541 263.013 457.04C263.353 457.516 263.534 457.935 263.557 458.298C263.58 458.525 263.512 458.717 263.353 458.876C263.194 459.035 263.013 459.114 262.809 459.114H259.783C259.67 459.114 259.568 459.103 259.477 459.08C259.386 459.035 259.307 458.978 259.239 458.91C258.967 458.729 258.684 458.525 258.389 458.298C258.117 458.049 257.788 457.833 257.403 457.652C257.018 457.471 256.519 457.38 255.907 457.38C255.159 457.38 254.581 457.55 254.173 457.89C253.788 458.207 253.595 458.615 253.595 459.114C253.595 459.431 253.697 459.726 253.901 459.998C254.105 460.27 254.524 460.519 255.159 460.746C255.794 460.973 256.757 461.211 258.049 461.46C259.59 461.732 260.814 462.14 261.721 462.684C262.628 463.228 263.274 463.863 263.659 464.588C264.067 465.291 264.271 466.05 264.271 466.866C264.271 467.931 263.954 468.883 263.319 469.722C262.684 470.538 261.755 471.184 260.531 471.66C259.33 472.113 257.845 472.34 256.077 472.34ZM275.423 472.34C272.816 472.34 270.742 471.615 269.201 470.164C267.682 468.713 266.877 466.605 266.787 463.84C266.787 463.659 266.787 463.421 266.787 463.126C266.787 462.809 266.787 462.559 266.787 462.378C266.877 460.633 267.274 459.137 267.977 457.89C268.679 456.621 269.665 455.657 270.935 455C272.204 454.32 273.689 453.98 275.389 453.98C277.293 453.98 278.879 454.377 280.149 455.17C281.441 455.941 282.404 457.006 283.039 458.366C283.696 459.703 284.025 461.245 284.025 462.99V463.772C284.025 463.999 283.934 464.191 283.753 464.35C283.594 464.509 283.401 464.588 283.175 464.588H272.057C272.057 464.611 272.057 464.656 272.057 464.724C272.057 464.769 272.057 464.815 272.057 464.86C272.079 465.585 272.215 466.254 272.465 466.866C272.737 467.455 273.111 467.931 273.587 468.294C274.085 468.657 274.675 468.838 275.355 468.838C275.921 468.838 276.386 468.759 276.749 468.6C277.111 468.441 277.406 468.249 277.633 468.022C277.882 467.795 278.063 467.603 278.177 467.444C278.381 467.217 278.539 467.081 278.653 467.036C278.789 466.968 278.993 466.934 279.265 466.934H282.801C283.027 466.934 283.209 467.002 283.345 467.138C283.503 467.251 283.571 467.421 283.549 467.648C283.526 468.011 283.333 468.464 282.971 469.008C282.631 469.529 282.121 470.051 281.441 470.572C280.761 471.071 279.911 471.49 278.891 471.83C277.893 472.17 276.737 472.34 275.423 472.34ZM272.057 461.494H278.721V461.426C278.721 460.61 278.585 459.907 278.313 459.318C278.063 458.706 277.689 458.23 277.191 457.89C276.692 457.55 276.091 457.38 275.389 457.38C274.686 457.38 274.085 457.55 273.587 457.89C273.088 458.23 272.703 458.706 272.431 459.318C272.181 459.907 272.057 460.61 272.057 461.426V461.494ZM288.239 472C288.013 472 287.82 471.921 287.661 471.762C287.503 471.603 287.423 471.399 287.423 471.15V455.17C287.423 454.943 287.503 454.751 287.661 454.592C287.82 454.411 288.013 454.32 288.239 454.32H291.571C291.798 454.32 291.991 454.411 292.149 454.592C292.331 454.751 292.421 454.943 292.421 455.17V456.53C292.988 455.827 293.679 455.283 294.495 454.898C295.334 454.513 296.297 454.32 297.385 454.32H298.847C299.074 454.32 299.267 454.399 299.425 454.558C299.584 454.717 299.663 454.921 299.663 455.17V458.094C299.663 458.343 299.584 458.547 299.425 458.706C299.267 458.865 299.074 458.944 298.847 458.944H295.855C294.858 458.944 294.076 459.227 293.509 459.794C292.943 460.338 292.659 461.12 292.659 462.14V471.15C292.659 471.399 292.58 471.603 292.421 471.762C292.263 471.921 292.059 472 291.809 472H288.239ZM309.169 472.34C307.763 472.34 306.551 472.181 305.531 471.864C304.533 471.524 303.717 471.116 303.083 470.64C302.471 470.164 302.006 469.688 301.689 469.212C301.394 468.713 301.235 468.294 301.213 467.954C301.19 467.705 301.269 467.501 301.451 467.342C301.632 467.183 301.813 467.104 301.995 467.104H305.293C305.361 467.104 305.429 467.115 305.497 467.138C305.565 467.161 305.633 467.217 305.701 467.308C305.995 467.512 306.301 467.75 306.619 468.022C306.936 468.271 307.299 468.487 307.707 468.668C308.137 468.849 308.67 468.94 309.305 468.94C310.053 468.94 310.687 468.793 311.209 468.498C311.73 468.181 311.991 467.739 311.991 467.172C311.991 466.764 311.866 466.424 311.617 466.152C311.39 465.88 310.948 465.631 310.291 465.404C309.633 465.177 308.659 464.928 307.367 464.656C306.143 464.384 305.1 464.021 304.239 463.568C303.377 463.115 302.731 462.548 302.301 461.868C301.87 461.165 301.655 460.327 301.655 459.352C301.655 458.468 301.927 457.618 302.471 456.802C303.037 455.986 303.865 455.317 304.953 454.796C306.041 454.252 307.401 453.98 309.033 453.98C310.279 453.98 311.367 454.139 312.297 454.456C313.249 454.751 314.042 455.136 314.677 455.612C315.311 456.065 315.787 456.541 316.105 457.04C316.445 457.516 316.626 457.935 316.649 458.298C316.671 458.525 316.603 458.717 316.445 458.876C316.286 459.035 316.105 459.114 315.901 459.114H312.875C312.761 459.114 312.659 459.103 312.569 459.08C312.478 459.035 312.399 458.978 312.331 458.91C312.059 458.729 311.775 458.525 311.481 458.298C311.209 458.049 310.88 457.833 310.495 457.652C310.109 457.471 309.611 457.38 308.999 457.38C308.251 457.38 307.673 457.55 307.265 457.89C306.879 458.207 306.687 458.615 306.687 459.114C306.687 459.431 306.789 459.726 306.993 459.998C307.197 460.27 307.616 460.519 308.251 460.746C308.885 460.973 309.849 461.211 311.141 461.46C312.682 461.732 313.906 462.14 314.813 462.684C315.719 463.228 316.365 463.863 316.751 464.588C317.159 465.291 317.363 466.05 317.363 466.866C317.363 467.931 317.045 468.883 316.411 469.722C315.776 470.538 314.847 471.184 313.623 471.66C312.421 472.113 310.937 472.34 309.169 472.34Z" fill="black"/>
<path d="M890.5 401.5C890.5 427.575 870.008 451.558 836.028 469.11C802.124 486.623 755.183 497.5 703.25 497.5C651.317 497.5 604.376 486.623 570.472 469.11C536.492 451.558 516 427.575 516 401.5C516 375.425 536.492 351.442 570.472 333.89C604.376 316.377 651.317 305.5 703.25 305.5C755.183 305.5 802.124 316.377 836.028 333.89C870.008 351.442 890.5 375.425 890.5 401.5Z" fill="#FBFFA1" stroke="black" stroke-width="3"/>
<circle cx="573.25" cy="395.25" r="21.5" fill="#A4FFA7" stroke="black" stroke-width="2"/>
<path d="M572.936 385.595C573.035 385.552 573.142 385.53 573.251 385.53C573.359 385.53 573.466 385.552 573.566 385.595C577.449 387.293 581.153 389.373 584.622 391.806C584.744 391.892 584.84 392.011 584.897 392.148C584.955 392.286 584.971 392.438 584.946 392.585C584.921 392.732 584.854 392.869 584.754 392.98C584.653 393.09 584.524 393.17 584.38 393.21C580.778 394.205 577.292 395.582 573.983 397.317L573.979 397.32L573.622 397.509C573.508 397.57 573.381 397.602 573.251 397.602C573.122 397.602 572.994 397.57 572.88 397.509C571.461 396.75 570.008 396.058 568.526 395.433V395.198C568.526 395.06 568.596 394.937 568.706 394.871C570.291 393.911 571.922 393.028 573.592 392.225C573.78 392.134 573.925 391.973 573.994 391.776C574.063 391.579 574.051 391.362 573.961 391.174C573.87 390.986 573.708 390.841 573.511 390.772C573.314 390.703 573.098 390.715 572.909 390.805C571.194 391.63 569.519 392.537 567.89 393.524C567.659 393.664 567.459 393.852 567.304 394.074C567.148 394.296 567.041 394.547 566.989 394.813C565.394 394.2 563.77 393.665 562.123 393.21C561.979 393.17 561.849 393.09 561.749 392.98C561.649 392.869 561.582 392.732 561.556 392.585C561.531 392.438 561.548 392.286 561.605 392.148C561.663 392.011 561.758 391.892 561.88 391.806C565.35 389.373 569.053 387.293 572.936 385.595Z" fill="black"/>
<path d="M574.364 398.897C576.943 397.519 579.636 396.366 582.413 395.451C582.554 396.935 582.644 398.436 582.681 399.95C582.684 400.108 582.64 400.264 582.554 400.397C582.468 400.53 582.344 400.634 582.198 400.695C579.221 401.938 576.371 403.465 573.687 405.254C573.558 405.341 573.406 405.387 573.251 405.387C573.095 405.387 572.943 405.341 572.814 405.254C570.13 403.465 567.281 401.939 564.305 400.695C564.158 400.634 564.034 400.53 563.947 400.397C563.861 400.264 563.817 400.108 563.821 399.95C563.857 398.436 563.948 396.936 564.088 395.45C565.053 395.767 566.007 396.114 566.951 396.489V397.823C566.724 397.953 566.533 398.138 566.396 398.361C566.258 398.584 566.179 398.838 566.164 399.099C566.15 399.361 566.201 399.622 566.312 399.859C566.424 400.095 566.593 400.301 566.804 400.456C566.709 400.855 566.57 401.247 566.387 401.621C566.861 401.845 567.333 402.077 567.8 402.315C568.063 401.779 568.258 401.212 568.379 400.627C568.644 400.509 568.872 400.32 569.036 400.08C569.201 399.841 569.296 399.561 569.312 399.27C569.327 398.98 569.261 398.691 569.123 398.436C568.984 398.181 568.777 397.969 568.526 397.824V397.146C569.752 397.682 570.957 398.267 572.138 398.898C572.48 399.081 572.862 399.176 573.251 399.176C573.639 399.176 574.021 399.081 574.364 398.898V398.897Z" fill="black"/>
<path d="M565.336 403.085C565.777 402.645 566.126 402.151 566.386 401.621C566.861 401.845 567.333 402.077 567.8 402.315C567.456 403.013 567 403.65 566.45 404.199C566.377 404.277 566.291 404.339 566.194 404.382C566.097 404.425 565.993 404.448 565.887 404.45C565.782 404.452 565.677 404.432 565.579 404.392C565.48 404.353 565.391 404.294 565.317 404.219C565.242 404.144 565.183 404.055 565.143 403.957C565.104 403.859 565.084 403.754 565.086 403.648C565.088 403.543 565.111 403.438 565.154 403.342C565.197 403.245 565.259 403.158 565.337 403.086L565.336 403.085Z" fill="black"/>
<circle cx="618.25" cy="356.5" r="21.5" fill="#A3F4EF" stroke="black" stroke-width="2"/>
<path d="M617.936 346.845C618.035 346.802 618.142 346.779 618.251 346.779C618.359 346.779 618.466 346.802 618.566 346.845C622.449 348.542 626.153 350.623 629.622 353.056C629.744 353.142 629.84 353.26 629.897 353.398C629.955 353.536 629.971 353.688 629.946 353.835C629.921 353.982 629.854 354.119 629.754 354.23C629.653 354.34 629.524 354.42 629.38 354.46C625.778 355.455 622.292 356.832 618.983 358.567L618.979 358.57L618.622 358.759C618.508 358.82 618.381 358.851 618.251 358.851C618.122 358.851 617.994 358.82 617.88 358.759C616.461 358 615.008 357.308 613.526 356.683V356.447C613.526 356.31 613.596 356.187 613.706 356.121C615.291 355.16 616.922 354.277 618.592 353.475C618.78 353.384 618.925 353.223 618.994 353.026C619.063 352.829 619.051 352.612 618.961 352.424C618.87 352.236 618.708 352.091 618.511 352.022C618.314 351.953 618.098 351.965 617.909 352.055C616.194 352.88 614.519 353.787 612.89 354.774C612.659 354.914 612.459 355.102 612.304 355.324C612.148 355.545 612.041 355.797 611.989 356.063C610.394 355.45 608.77 354.914 607.123 354.46C606.979 354.42 606.849 354.34 606.749 354.23C606.649 354.119 606.582 353.982 606.556 353.835C606.531 353.688 606.548 353.536 606.605 353.398C606.663 353.26 606.758 353.142 606.88 353.056C610.35 350.623 614.053 348.543 617.936 346.845Z" fill="black"/>
<path d="M619.364 360.147C621.943 358.769 624.636 357.616 627.413 356.701C627.554 358.185 627.644 359.686 627.681 361.2C627.684 361.358 627.64 361.514 627.554 361.647C627.468 361.78 627.344 361.884 627.198 361.945C624.221 363.188 621.371 364.715 618.687 366.504C618.558 366.591 618.406 366.637 618.251 366.637C618.095 366.637 617.943 366.591 617.814 366.504C615.13 364.715 612.281 363.188 609.305 361.945C609.158 361.884 609.034 361.78 608.947 361.647C608.861 361.514 608.817 361.358 608.821 361.2C608.857 359.686 608.948 358.186 609.088 356.699C610.053 357.017 611.007 357.364 611.951 357.739V359.072C611.724 359.203 611.533 359.388 611.396 359.611C611.258 359.834 611.179 360.088 611.164 360.349C611.15 360.611 611.201 360.872 611.312 361.109C611.424 361.345 611.593 361.551 611.804 361.706C611.709 362.105 611.57 362.497 611.387 362.871C611.861 363.095 612.333 363.327 612.8 363.565C613.063 363.029 613.258 362.462 613.379 361.877C613.644 361.759 613.872 361.57 614.036 361.33C614.201 361.091 614.296 360.811 614.312 360.52C614.327 360.23 614.261 359.941 614.123 359.686C613.984 359.431 613.777 359.219 613.526 359.074V358.396C614.752 358.932 615.957 359.517 617.138 360.148C617.48 360.331 617.862 360.426 618.251 360.426C618.639 360.426 619.021 360.331 619.364 360.148V360.147Z" fill="black"/>
<path d="M610.336 364.335C610.777 363.895 611.126 363.401 611.386 362.871C611.861 363.095 612.333 363.327 612.8 363.565C612.456 364.263 612 364.9 611.45 365.449C611.377 365.526 611.291 365.589 611.194 365.632C611.097 365.675 610.993 365.698 610.887 365.7C610.782 365.702 610.677 365.682 610.579 365.642C610.48 365.603 610.391 365.544 610.317 365.469C610.242 365.394 610.183 365.305 610.143 365.207C610.104 365.109 610.084 365.004 610.086 364.898C610.088 364.793 610.111 364.688 610.154 364.592C610.197 364.495 610.259 364.408 610.337 364.336L610.336 364.335Z" fill="black"/>
<circle cx="662" cy="397.75" r="21.5" fill="#A3F4EF" stroke="black" stroke-width="2"/>
<path d="M661.686 388.095C661.785 388.052 661.892 388.03 662.001 388.03C662.109 388.03 662.216 388.052 662.316 388.095C666.199 389.793 669.903 391.873 673.372 394.306C673.494 394.392 673.59 394.511 673.647 394.648C673.705 394.786 673.721 394.938 673.696 395.085C673.671 395.232 673.604 395.369 673.504 395.48C673.403 395.59 673.274 395.67 673.13 395.71C669.528 396.705 666.042 398.082 662.733 399.817L662.729 399.82L662.372 400.009C662.258 400.07 662.131 400.102 662.001 400.102C661.872 400.102 661.744 400.07 661.63 400.009C660.211 399.25 658.758 398.558 657.276 397.933V397.698C657.276 397.56 657.346 397.437 657.456 397.371C659.041 396.411 660.672 395.528 662.342 394.725C662.53 394.634 662.675 394.473 662.744 394.276C662.813 394.079 662.801 393.862 662.711 393.674C662.62 393.486 662.458 393.341 662.261 393.272C662.064 393.203 661.848 393.215 661.659 393.305C659.944 394.13 658.269 395.037 656.64 396.024C656.409 396.164 656.209 396.352 656.054 396.574C655.898 396.796 655.791 397.047 655.739 397.313C654.144 396.7 652.52 396.165 650.873 395.71C650.729 395.67 650.599 395.59 650.499 395.48C650.399 395.369 650.332 395.232 650.306 395.085C650.281 394.938 650.298 394.786 650.355 394.648C650.413 394.511 650.508 394.392 650.63 394.306C654.1 391.873 657.803 389.793 661.686 388.095Z" fill="black"/>
<path d="M663.114 401.397C665.693 400.019 668.386 398.866 671.163 397.951C671.304 399.435 671.394 400.936 671.431 402.45C671.434 402.608 671.39 402.764 671.304 402.897C671.218 403.03 671.094 403.134 670.948 403.195C667.971 404.438 665.121 405.965 662.437 407.754C662.308 407.841 662.156 407.887 662.001 407.887C661.845 407.887 661.693 407.841 661.564 407.754C658.88 405.965 656.031 404.439 653.055 403.195C652.908 403.134 652.784 403.03 652.697 402.897C652.611 402.764 652.567 402.608 652.571 402.45C652.607 400.936 652.698 399.436 652.838 397.95C653.803 398.267 654.757 398.614 655.701 398.989V400.323C655.474 400.453 655.283 400.638 655.146 400.861C655.008 401.084 654.929 401.338 654.914 401.599C654.9 401.861 654.951 402.122 655.062 402.359C655.174 402.595 655.343 402.801 655.554 402.956C655.459 403.355 655.32 403.747 655.137 404.121C655.611 404.345 656.083 404.577 656.55 404.815C656.813 404.279 657.008 403.712 657.129 403.127C657.394 403.009 657.622 402.82 657.786 402.58C657.951 402.341 658.046 402.061 658.062 401.77C658.077 401.48 658.011 401.191 657.873 400.936C657.734 400.681 657.527 400.469 657.276 400.324V399.646C658.502 400.182 659.707 400.767 660.888 401.398C661.23 401.581 661.612 401.676 662.001 401.676C662.389 401.676 662.771 401.581 663.114 401.398V401.397Z" fill="black"/>
<path d="M654.086 405.585C654.527 405.145 654.876 404.651 655.136 404.121C655.611 404.345 656.083 404.577 656.55 404.815C656.206 405.513 655.75 406.15 655.2 406.699C655.127 406.777 655.041 406.839 654.944 406.882C654.847 406.925 654.743 406.948 654.637 406.95C654.532 406.952 654.427 406.932 654.329 406.892C654.23 406.853 654.141 406.794 654.067 406.719C653.992 406.644 653.933 406.555 653.893 406.457C653.854 406.359 653.834 406.254 653.836 406.148C653.838 406.043 653.861 405.938 653.904 405.842C653.947 405.745 654.009 405.658 654.087 405.586L654.086 405.585Z" fill="black"/>
<circle cx="779.5" cy="406.5" r="21.5" fill="#A3F4EF" stroke="black" stroke-width="2"/>
<path d="M779.186 396.845C779.285 396.802 779.392 396.78 779.501 396.78C779.609 396.78 779.716 396.802 779.816 396.845C783.699 398.543 787.403 400.623 790.872 403.056C790.994 403.142 791.09 403.261 791.147 403.398C791.205 403.536 791.221 403.688 791.196 403.835C791.171 403.982 791.104 404.119 791.004 404.23C790.903 404.34 790.774 404.42 790.63 404.46C787.028 405.455 783.542 406.832 780.233 408.567L780.229 408.57L779.872 408.759C779.758 408.82 779.631 408.852 779.501 408.852C779.372 408.852 779.244 408.82 779.13 408.759C777.711 408 776.258 407.308 774.776 406.683V406.448C774.776 406.31 774.846 406.187 774.956 406.121C776.541 405.161 778.172 404.278 779.842 403.475C780.03 403.384 780.175 403.223 780.244 403.026C780.313 402.829 780.301 402.612 780.211 402.424C780.12 402.236 779.958 402.091 779.761 402.022C779.564 401.953 779.348 401.965 779.159 402.055C777.444 402.88 775.769 403.787 774.14 404.774C773.909 404.914 773.709 405.102 773.554 405.324C773.398 405.546 773.291 405.797 773.239 406.063C771.644 405.45 770.02 404.915 768.373 404.46C768.229 404.42 768.099 404.34 767.999 404.23C767.899 404.119 767.832 403.982 767.806 403.835C767.781 403.688 767.798 403.536 767.855 403.398C767.913 403.261 768.008 403.142 768.13 403.056C771.6 400.623 775.303 398.543 779.186 396.845Z" fill="black"/>
<path d="M780.614 410.147C783.193 408.769 785.886 407.616 788.663 406.701C788.804 408.185 788.894 409.686 788.931 411.2C788.934 411.358 788.89 411.514 788.804 411.647C788.718 411.78 788.594 411.884 788.448 411.945C785.471 413.188 782.621 414.715 779.937 416.504C779.808 416.591 779.656 416.637 779.501 416.637C779.345 416.637 779.193 416.591 779.064 416.504C776.38 414.715 773.531 413.189 770.555 411.945C770.408 411.884 770.284 411.78 770.197 411.647C770.111 411.514 770.067 411.358 770.071 411.2C770.107 409.686 770.198 408.186 770.338 406.7C771.303 407.017 772.257 407.364 773.201 407.739V409.073C772.974 409.203 772.783 409.388 772.646 409.611C772.508 409.834 772.429 410.088 772.414 410.349C772.4 410.611 772.451 410.872 772.562 411.109C772.674 411.345 772.843 411.551 773.054 411.706C772.959 412.105 772.82 412.497 772.637 412.871C773.111 413.095 773.583 413.327 774.05 413.565C774.313 413.029 774.508 412.462 774.629 411.877C774.894 411.759 775.122 411.57 775.286 411.33C775.451 411.091 775.546 410.811 775.562 410.52C775.577 410.23 775.511 409.941 775.373 409.686C775.234 409.431 775.027 409.219 774.776 409.074V408.396C776.002 408.932 777.207 409.517 778.388 410.148C778.73 410.331 779.112 410.426 779.501 410.426C779.889 410.426 780.271 410.331 780.614 410.148V410.147Z" fill="black"/>
<path d="M771.586 414.335C772.027 413.895 772.376 413.401 772.636 412.871C773.111 413.095 773.583 413.327 774.05 413.565C773.706 414.263 773.25 414.9 772.7 415.449C772.627 415.527 772.541 415.589 772.444 415.632C772.347 415.675 772.243 415.698 772.137 415.7C772.032 415.702 771.927 415.682 771.829 415.642C771.73 415.603 771.641 415.544 771.567 415.469C771.492 415.394 771.433 415.305 771.393 415.207C771.354 415.109 771.334 415.004 771.336 414.898C771.338 414.793 771.361 414.688 771.404 414.592C771.447 414.495 771.509 414.408 771.587 414.336L771.586 414.335Z" fill="black"/>
<circle cx="674.5" cy="345.25" r="21.5" fill="#A4FFA7" stroke="black" stroke-width="2"/>
<path d="M674.186 335.595C674.285 335.552 674.392 335.53 674.501 335.53C674.609 335.53 674.716 335.552 674.816 335.595C678.699 337.292 682.403 339.373 685.872 341.806C685.994 341.892 686.09 342.011 686.147 342.148C686.205 342.286 686.221 342.438 686.196 342.585C686.171 342.732 686.104 342.869 686.004 342.98C685.903 343.09 685.774 343.17 685.63 343.21C682.028 344.205 678.542 345.582 675.233 347.317L675.229 347.32L674.872 347.509C674.758 347.57 674.631 347.602 674.501 347.602C674.372 347.602 674.244 347.57 674.13 347.509C672.711 346.75 671.258 346.058 669.776 345.433V345.198C669.776 345.06 669.846 344.937 669.956 344.871C671.541 343.911 673.172 343.027 674.842 342.225C675.03 342.134 675.175 341.973 675.244 341.776C675.313 341.579 675.301 341.362 675.211 341.174C675.12 340.986 674.958 340.841 674.761 340.772C674.564 340.703 674.348 340.715 674.159 340.805C672.444 341.63 670.769 342.537 669.14 343.524C668.909 343.664 668.709 343.852 668.554 344.074C668.398 344.296 668.291 344.547 668.239 344.813C666.644 344.2 665.02 343.664 663.373 343.21C663.229 343.17 663.099 343.09 662.999 342.98C662.899 342.869 662.832 342.732 662.806 342.585C662.781 342.438 662.798 342.286 662.855 342.148C662.913 342.011 663.008 341.892 663.13 341.806C666.6 339.373 670.303 337.293 674.186 335.595Z" fill="black"/>
<path d="M675.614 348.897C678.193 347.519 680.886 346.366 683.663 345.451C683.804 346.935 683.894 348.436 683.931 349.95C683.934 350.108 683.89 350.264 683.804 350.397C683.718 350.53 683.594 350.634 683.448 350.695C680.471 351.938 677.621 353.465 674.937 355.254C674.808 355.341 674.656 355.387 674.501 355.387C674.345 355.387 674.193 355.341 674.064 355.254C671.38 353.465 668.531 351.939 665.555 350.695C665.408 350.634 665.284 350.53 665.197 350.397C665.111 350.264 665.067 350.108 665.071 349.95C665.107 348.436 665.198 346.936 665.338 345.449C666.303 345.767 667.257 346.114 668.201 346.489V347.822C667.974 347.953 667.783 348.138 667.646 348.361C667.508 348.584 667.429 348.838 667.414 349.099C667.4 349.361 667.451 349.622 667.562 349.859C667.674 350.095 667.843 350.301 668.054 350.456C667.959 350.855 667.82 351.247 667.637 351.621C668.111 351.845 668.583 352.077 669.05 352.315C669.313 351.779 669.508 351.212 669.629 350.627C669.894 350.509 670.122 350.32 670.286 350.08C670.451 349.841 670.546 349.561 670.562 349.27C670.577 348.98 670.511 348.691 670.373 348.436C670.234 348.181 670.027 347.969 669.776 347.824V347.146C671.002 347.682 672.207 348.267 673.388 348.898C673.73 349.081 674.112 349.176 674.501 349.176C674.889 349.176 675.271 349.081 675.614 348.898V348.897Z" fill="black"/>
<path d="M666.586 353.085C667.027 352.645 667.376 352.151 667.636 351.621C668.111 351.845 668.583 352.077 669.05 352.315C668.706 353.013 668.25 353.65 667.7 354.199C667.627 354.277 667.541 354.339 667.444 354.382C667.347 354.425 667.243 354.448 667.137 354.45C667.032 354.452 666.927 354.432 666.829 354.392C666.73 354.353 666.641 354.294 666.567 354.219C666.492 354.144 666.433 354.055 666.393 353.957C666.354 353.859 666.334 353.754 666.336 353.648C666.338 353.543 666.361 353.438 666.404 353.342C666.447 353.245 666.509 353.158 666.587 353.086L666.586 353.085Z" fill="black"/>
<circle cx="720.75" cy="391.5" r="21.5" fill="#A4FFA7" stroke="black" stroke-width="2"/>
<path d="M720.436 381.845C720.535 381.802 720.642 381.78 720.751 381.78C720.859 381.78 720.966 381.802 721.066 381.845C724.949 383.543 728.653 385.623 732.122 388.056C732.244 388.142 732.34 388.261 732.397 388.398C732.455 388.536 732.471 388.688 732.446 388.835C732.421 388.982 732.354 389.119 732.254 389.23C732.153 389.34 732.024 389.42 731.88 389.46C728.278 390.455 724.792 391.832 721.483 393.568L721.479 393.57L721.122 393.759C721.008 393.82 720.881 393.852 720.751 393.852C720.622 393.852 720.494 393.82 720.38 393.759C718.961 393 717.508 392.308 716.026 391.683V391.448C716.026 391.31 716.096 391.187 716.206 391.121C717.791 390.161 719.422 389.278 721.092 388.475C721.28 388.385 721.425 388.223 721.494 388.026C721.563 387.829 721.551 387.612 721.461 387.424C721.37 387.236 721.208 387.091 721.011 387.022C720.814 386.953 720.598 386.965 720.409 387.055C718.694 387.88 717.019 388.787 715.39 389.774C715.159 389.914 714.959 390.102 714.804 390.324C714.648 390.546 714.541 390.798 714.489 391.063C712.894 390.45 711.27 389.915 709.623 389.46C709.479 389.42 709.349 389.34 709.249 389.23C709.149 389.119 709.082 388.982 709.056 388.835C709.031 388.688 709.048 388.536 709.105 388.398C709.163 388.261 709.258 388.142 709.38 388.056C712.85 385.623 716.553 383.543 720.436 381.845Z" fill="black"/>
<path d="M721.864 395.147C724.443 393.769 727.136 392.616 729.913 391.701C730.054 393.185 730.144 394.686 730.181 396.2C730.184 396.358 730.14 396.514 730.054 396.647C729.968 396.78 729.844 396.884 729.698 396.945C726.721 398.189 723.871 399.715 721.187 401.504C721.058 401.591 720.906 401.637 720.751 401.637C720.595 401.637 720.443 401.591 720.314 401.504C717.63 399.715 714.781 398.189 711.805 396.945C711.658 396.884 711.534 396.78 711.447 396.647C711.361 396.514 711.317 396.358 711.321 396.2C711.357 394.686 711.448 393.186 711.588 391.7C712.553 392.017 713.507 392.364 714.451 392.739V394.073C714.224 394.203 714.033 394.389 713.896 394.611C713.758 394.834 713.679 395.088 713.664 395.349C713.65 395.611 713.701 395.872 713.812 396.109C713.924 396.346 714.093 396.551 714.304 396.706C714.209 397.105 714.07 397.497 713.887 397.871C714.361 398.095 714.833 398.327 715.3 398.566C715.563 398.029 715.758 397.462 715.879 396.877C716.144 396.759 716.372 396.57 716.536 396.33C716.701 396.091 716.796 395.811 716.812 395.52C716.827 395.23 716.761 394.942 716.623 394.686C716.484 394.431 716.277 394.219 716.026 394.074V393.396C717.252 393.933 718.457 394.517 719.638 395.148C719.98 395.331 720.362 395.426 720.751 395.426C721.139 395.426 721.521 395.331 721.864 395.148V395.147Z" fill="black"/>
<path d="M712.836 399.335C713.277 398.895 713.626 398.401 713.886 397.871C714.361 398.095 714.833 398.327 715.3 398.566C714.956 399.263 714.5 399.9 713.95 400.449C713.877 400.527 713.791 400.589 713.694 400.632C713.597 400.675 713.493 400.698 713.387 400.7C713.282 400.702 713.177 400.682 713.079 400.643C712.98 400.603 712.891 400.544 712.817 400.469C712.742 400.394 712.683 400.305 712.643 400.207C712.604 400.109 712.584 400.004 712.586 399.898C712.588 399.793 712.611 399.688 712.654 399.592C712.697 399.495 712.759 399.408 712.837 399.336L712.836 399.335Z" fill="black"/>
<circle cx="743.25" cy="339" r="21.5" fill="#A3F4EF" stroke="black" stroke-width="2"/>
<path d="M742.936 329.345C743.035 329.302 743.142 329.28 743.251 329.28C743.359 329.28 743.466 329.302 743.566 329.345C747.449 331.042 751.153 333.123 754.622 335.556C754.744 335.642 754.84 335.761 754.897 335.898C754.955 336.036 754.971 336.188 754.946 336.335C754.921 336.482 754.854 336.619 754.754 336.73C754.653 336.84 754.524 336.92 754.38 336.96C750.778 337.955 747.292 339.332 743.983 341.067L743.979 341.07L743.622 341.259C743.508 341.32 743.381 341.352 743.251 341.352C743.122 341.352 742.994 341.32 742.88 341.259C741.461 340.5 740.008 339.808 738.526 339.183V338.948C738.526 338.81 738.596 338.687 738.706 338.621C740.291 337.661 741.922 336.777 743.592 335.975C743.78 335.884 743.925 335.723 743.994 335.526C744.063 335.329 744.051 335.112 743.961 334.924C743.87 334.736 743.708 334.591 743.511 334.522C743.314 334.453 743.098 334.465 742.909 334.555C741.194 335.38 739.519 336.287 737.89 337.274C737.659 337.414 737.459 337.602 737.304 337.824C737.148 338.046 737.041 338.297 736.989 338.563C735.394 337.95 733.77 337.414 732.123 336.96C731.979 336.92 731.849 336.84 731.749 336.73C731.649 336.619 731.582 336.482 731.556 336.335C731.531 336.188 731.548 336.036 731.605 335.898C731.663 335.761 731.758 335.642 731.88 335.556C735.35 333.123 739.053 331.043 742.936 329.345Z" fill="black"/>
<path d="M744.364 342.647C746.943 341.269 749.636 340.116 752.413 339.201C752.554 340.685 752.644 342.186 752.681 343.7C752.684 343.858 752.64 344.014 752.554 344.147C752.468 344.28 752.344 344.384 752.198 344.445C749.221 345.688 746.371 347.215 743.687 349.004C743.558 349.091 743.406 349.137 743.251 349.137C743.095 349.137 742.943 349.091 742.814 349.004C740.13 347.215 737.281 345.689 734.305 344.445C734.158 344.384 734.034 344.28 733.947 344.147C733.861 344.014 733.817 343.858 733.821 343.7C733.857 342.186 733.948 340.686 734.088 339.199C735.053 339.517 736.007 339.864 736.951 340.239V341.572C736.724 341.703 736.533 341.888 736.396 342.111C736.258 342.334 736.179 342.588 736.164 342.849C736.15 343.111 736.201 343.372 736.312 343.609C736.424 343.845 736.593 344.051 736.804 344.206C736.709 344.605 736.57 344.997 736.387 345.371C736.861 345.595 737.333 345.827 737.8 346.065C738.063 345.529 738.258 344.962 738.379 344.377C738.644 344.259 738.872 344.07 739.036 343.83C739.201 343.591 739.296 343.311 739.312 343.02C739.327 342.73 739.261 342.441 739.123 342.186C738.984 341.931 738.777 341.719 738.526 341.574V340.896C739.752 341.432 740.957 342.017 742.138 342.648C742.48 342.831 742.862 342.926 743.251 342.926C743.639 342.926 744.021 342.831 744.364 342.648V342.647Z" fill="black"/>
<path d="M735.336 346.835C735.777 346.395 736.126 345.901 736.386 345.371C736.861 345.595 737.333 345.827 737.8 346.065C737.456 346.763 737 347.4 736.45 347.949C736.377 348.027 736.291 348.089 736.194 348.132C736.097 348.175 735.993 348.198 735.887 348.2C735.782 348.202 735.677 348.182 735.579 348.142C735.48 348.103 735.391 348.044 735.317 347.969C735.242 347.894 735.183 347.805 735.143 347.707C735.104 347.609 735.084 347.504 735.086 347.398C735.088 347.293 735.111 347.188 735.154 347.092C735.197 346.995 735.259 346.908 735.337 346.836L735.336 346.835Z" fill="black"/>
<circle cx="802" cy="356.5" r="21.5" fill="#A4FFA7" stroke="black" stroke-width="2"/>
<path d="M801.686 346.845C801.785 346.802 801.892 346.779 802.001 346.779C802.109 346.779 802.216 346.802 802.316 346.845C806.199 348.542 809.903 350.623 813.372 353.056C813.494 353.142 813.59 353.26 813.647 353.398C813.705 353.536 813.721 353.688 813.696 353.835C813.671 353.982 813.604 354.119 813.504 354.23C813.403 354.34 813.274 354.42 813.13 354.46C809.528 355.455 806.042 356.832 802.733 358.567L802.729 358.57L802.372 358.759C802.258 358.82 802.131 358.851 802.001 358.851C801.872 358.851 801.744 358.82 801.63 358.759C800.211 358 798.758 357.308 797.276 356.683V356.447C797.276 356.31 797.346 356.187 797.456 356.121C799.041 355.16 800.672 354.277 802.342 353.475C802.53 353.384 802.675 353.223 802.744 353.026C802.813 352.829 802.801 352.612 802.711 352.424C802.62 352.236 802.458 352.091 802.261 352.022C802.064 351.953 801.848 351.965 801.659 352.055C799.944 352.88 798.269 353.787 796.64 354.774C796.409 354.914 796.209 355.102 796.054 355.324C795.898 355.545 795.791 355.797 795.739 356.063C794.144 355.45 792.52 354.914 790.873 354.46C790.729 354.42 790.599 354.34 790.499 354.23C790.399 354.119 790.332 353.982 790.306 353.835C790.281 353.688 790.298 353.536 790.355 353.398C790.413 353.26 790.508 353.142 790.63 353.056C794.1 350.623 797.803 348.543 801.686 346.845Z" fill="black"/>
<path d="M803.114 360.147C805.693 358.769 808.386 357.616 811.163 356.701C811.304 358.185 811.394 359.686 811.431 361.2C811.434 361.358 811.39 361.514 811.304 361.647C811.218 361.78 811.094 361.884 810.948 361.945C807.971 363.188 805.121 364.715 802.437 366.504C802.308 366.591 802.156 366.637 802.001 366.637C801.845 366.637 801.693 366.591 801.564 366.504C798.88 364.715 796.031 363.188 793.055 361.945C792.908 361.884 792.784 361.78 792.697 361.647C792.611 361.514 792.567 361.358 792.571 361.2C792.607 359.686 792.698 358.186 792.838 356.699C793.803 357.017 794.757 357.364 795.701 357.739V359.072C795.474 359.203 795.283 359.388 795.146 359.611C795.008 359.834 794.929 360.088 794.914 360.349C794.9 360.611 794.951 360.872 795.062 361.109C795.174 361.345 795.343 361.551 795.554 361.706C795.459 362.105 795.32 362.497 795.137 362.871C795.611 363.095 796.083 363.327 796.55 363.565C796.813 363.029 797.008 362.462 797.129 361.877C797.394 361.759 797.622 361.57 797.786 361.33C797.951 361.091 798.046 360.811 798.062 360.52C798.077 360.23 798.011 359.941 797.873 359.686C797.734 359.431 797.527 359.219 797.276 359.074V358.396C798.502 358.932 799.707 359.517 800.888 360.148C801.23 360.331 801.612 360.426 802.001 360.426C802.389 360.426 802.771 360.331 803.114 360.148V360.147Z" fill="black"/>
<path d="M794.086 364.335C794.527 363.895 794.876 363.401 795.136 362.871C795.611 363.095 796.083 363.327 796.55 363.565C796.206 364.263 795.75 364.9 795.2 365.449C795.127 365.526 795.041 365.589 794.944 365.632C794.847 365.675 794.743 365.698 794.637 365.7C794.532 365.702 794.427 365.682 794.329 365.642C794.23 365.603 794.141 365.544 794.067 365.469C793.992 365.394 793.933 365.305 793.893 365.207C793.854 365.109 793.834 365.004 793.836 364.898C793.838 364.793 793.861 364.688 793.904 364.592C793.947 364.495 794.009 364.408 794.087 364.336L794.086 364.335Z" fill="black"/>
<circle cx="847.002" cy="397.75" r="21.5" fill="#A4FFA7" stroke="black" stroke-width="2"/>
<path d="M846.688 388.095C846.787 388.052 846.894 388.03 847.003 388.03C847.111 388.03 847.218 388.052 847.318 388.095C851.201 389.793 854.904 391.873 858.374 394.306C858.496 394.392 858.592 394.511 858.649 394.648C858.706 394.786 858.723 394.938 858.698 395.085C858.673 395.232 858.606 395.369 858.506 395.48C858.405 395.59 858.276 395.67 858.132 395.71C854.529 396.705 851.044 398.082 847.735 399.817L847.731 399.82L847.374 400.009C847.26 400.07 847.133 400.102 847.003 400.102C846.874 400.102 846.746 400.07 846.632 400.009C845.213 399.25 843.76 398.558 842.278 397.933V397.698C842.278 397.56 842.348 397.437 842.458 397.371C844.043 396.411 845.674 395.528 847.344 394.725C847.532 394.634 847.677 394.473 847.746 394.276C847.815 394.079 847.803 393.862 847.712 393.674C847.622 393.486 847.46 393.341 847.263 393.272C847.066 393.203 846.85 393.215 846.661 393.305C844.945 394.13 843.271 395.037 841.642 396.024C841.411 396.164 841.211 396.352 841.056 396.574C840.9 396.796 840.793 397.047 840.74 397.313C839.146 396.7 837.522 396.165 835.875 395.71C835.731 395.67 835.601 395.59 835.501 395.48C835.401 395.369 835.334 395.232 835.308 395.085C835.283 394.938 835.3 394.786 835.357 394.648C835.415 394.511 835.51 394.392 835.632 394.306C839.102 391.873 842.805 389.793 846.688 388.095Z" fill="black"/>
<path d="M848.116 401.397C850.695 400.019 853.388 398.866 856.165 397.951C856.306 399.435 856.396 400.936 856.433 402.45C856.436 402.608 856.392 402.764 856.306 402.897C856.22 403.03 856.096 403.134 855.95 403.195C852.973 404.438 850.123 405.965 847.439 407.754C847.31 407.841 847.158 407.887 847.003 407.887C846.847 407.887 846.695 407.841 846.566 407.754C843.882 405.965 841.033 404.439 838.057 403.195C837.91 403.134 837.786 403.03 837.699 402.897C837.613 402.764 837.569 402.608 837.572 402.45C837.609 400.936 837.7 399.436 837.84 397.95C838.805 398.267 839.759 398.614 840.703 398.989V400.323C840.476 400.453 840.285 400.638 840.148 400.861C840.01 401.084 839.931 401.338 839.916 401.599C839.902 401.861 839.952 402.122 840.064 402.359C840.176 402.595 840.345 402.801 840.556 402.956C840.461 403.355 840.322 403.747 840.139 404.121C840.613 404.345 841.085 404.577 841.552 404.815C841.815 404.279 842.01 403.712 842.131 403.127C842.396 403.009 842.624 402.82 842.788 402.58C842.953 402.341 843.048 402.061 843.063 401.77C843.079 401.48 843.013 401.191 842.875 400.936C842.736 400.681 842.529 400.469 842.278 400.324V399.646C843.504 400.182 844.709 400.767 845.89 401.398C846.232 401.581 846.614 401.676 847.003 401.676C847.391 401.676 847.773 401.581 848.116 401.398V401.397Z" fill="black"/>
<path d="M839.087 405.585C839.528 405.145 839.878 404.651 840.137 404.121C840.613 404.345 841.085 404.577 841.552 404.815C841.208 405.513 840.752 406.15 840.202 406.699C840.129 406.777 840.042 406.839 839.946 406.882C839.849 406.925 839.745 406.948 839.639 406.95C839.534 406.952 839.429 406.932 839.33 406.892C839.232 406.853 839.143 406.794 839.069 406.719C838.994 406.644 838.935 406.555 838.895 406.457C838.856 406.359 838.836 406.254 838.838 406.148C838.84 406.043 838.863 405.938 838.906 405.842C838.949 405.745 839.011 405.658 839.089 405.586L839.087 405.585Z" fill="black"/>
<path d="M645.94 472.34C644.286 472.34 642.824 472.034 641.554 471.422C640.308 470.81 639.322 469.926 638.596 468.77C637.871 467.591 637.474 466.186 637.406 464.554C637.384 464.191 637.372 463.738 637.372 463.194C637.372 462.627 637.384 462.163 637.406 461.8C637.474 460.145 637.86 458.74 638.562 457.584C639.288 456.405 640.285 455.51 641.554 454.898C642.824 454.286 644.286 453.98 645.94 453.98C647.459 453.98 648.751 454.195 649.816 454.626C650.882 455.034 651.754 455.555 652.434 456.19C653.114 456.825 653.613 457.493 653.93 458.196C654.27 458.876 654.452 459.477 654.474 459.998C654.497 460.225 654.418 460.429 654.236 460.61C654.078 460.769 653.885 460.848 653.658 460.848H650.02C649.794 460.848 649.612 460.791 649.476 460.678C649.363 460.542 649.25 460.361 649.136 460.134C648.819 459.341 648.411 458.774 647.912 458.434C647.414 458.094 646.79 457.924 646.042 457.924C645.022 457.924 644.218 458.253 643.628 458.91C643.039 459.567 642.722 460.587 642.676 461.97C642.654 462.854 642.654 463.659 642.676 464.384C642.744 465.789 643.062 466.809 643.628 467.444C644.218 468.079 645.022 468.396 646.042 468.396C646.836 468.396 647.47 468.226 647.946 467.886C648.422 467.546 648.819 466.979 649.136 466.186C649.227 465.959 649.34 465.789 649.476 465.676C649.612 465.54 649.794 465.472 650.02 465.472H653.658C653.885 465.472 654.078 465.563 654.236 465.744C654.418 465.903 654.497 466.095 654.474 466.322C654.452 466.707 654.338 467.161 654.134 467.682C653.953 468.203 653.647 468.736 653.216 469.28C652.808 469.824 652.276 470.334 651.618 470.81C650.961 471.263 650.156 471.637 649.204 471.932C648.275 472.204 647.187 472.34 645.94 472.34ZM665.901 472.34C664.02 472.34 662.444 472.034 661.175 471.422C659.906 470.787 658.931 469.892 658.251 468.736C657.594 467.58 657.231 466.231 657.163 464.69C657.14 464.237 657.129 463.727 657.129 463.16C657.129 462.571 657.14 462.061 657.163 461.63C657.231 460.066 657.616 458.717 658.319 457.584C659.022 456.428 660.008 455.544 661.277 454.932C662.546 454.297 664.088 453.98 665.901 453.98C667.692 453.98 669.222 454.297 670.491 454.932C671.76 455.544 672.746 456.428 673.449 457.584C674.152 458.717 674.537 460.066 674.605 461.63C674.65 462.061 674.673 462.571 674.673 463.16C674.673 463.727 674.65 464.237 674.605 464.69C674.537 466.231 674.163 467.58 673.483 468.736C672.826 469.892 671.862 470.787 670.593 471.422C669.324 472.034 667.76 472.34 665.901 472.34ZM665.901 468.6C667.012 468.6 667.85 468.26 668.417 467.58C668.984 466.877 669.29 465.857 669.335 464.52C669.358 464.18 669.369 463.727 669.369 463.16C669.369 462.593 669.358 462.14 669.335 461.8C669.29 460.485 668.984 459.477 668.417 458.774C667.85 458.071 667.012 457.72 665.901 457.72C664.79 457.72 663.94 458.071 663.351 458.774C662.784 459.477 662.478 460.485 662.433 461.8C662.41 462.14 662.399 462.593 662.399 463.16C662.399 463.727 662.41 464.18 662.433 464.52C662.478 465.857 662.784 466.877 663.351 467.58C663.94 468.26 664.79 468.6 665.901 468.6ZM684.723 472.34C683.408 472.34 682.241 472.045 681.221 471.456C680.224 470.844 679.442 469.971 678.875 468.838C678.331 467.682 678.059 466.288 678.059 464.656V455.17C678.059 454.921 678.138 454.717 678.297 454.558C678.456 454.399 678.648 454.32 678.875 454.32H682.479C682.728 454.32 682.932 454.399 683.091 454.558C683.25 454.717 683.329 454.921 683.329 455.17V464.452C683.329 466.991 684.44 468.26 686.661 468.26C687.726 468.26 688.565 467.931 689.177 467.274C689.812 466.594 690.129 465.653 690.129 464.452V455.17C690.129 454.921 690.208 454.717 690.367 454.558C690.526 454.399 690.73 454.32 690.979 454.32H694.583C694.81 454.32 695.002 454.399 695.161 454.558C695.32 454.717 695.399 454.921 695.399 455.17V471.15C695.399 471.399 695.32 471.603 695.161 471.762C695.002 471.921 694.81 472 694.583 472H691.251C691.002 472 690.798 471.921 690.639 471.762C690.48 471.603 690.401 471.399 690.401 471.15V469.824C689.812 470.64 689.052 471.263 688.123 471.694C687.194 472.125 686.06 472.34 684.723 472.34ZM700.494 472C700.267 472 700.075 471.921 699.916 471.762C699.757 471.603 699.678 471.399 699.678 471.15V455.17C699.678 454.943 699.757 454.751 699.916 454.592C700.075 454.411 700.267 454.32 700.494 454.32H703.826C704.053 454.32 704.245 454.411 704.404 454.592C704.585 454.751 704.676 454.943 704.676 455.17V456.53C705.243 455.827 705.934 455.283 706.75 454.898C707.589 454.513 708.552 454.32 709.64 454.32H711.102C711.329 454.32 711.521 454.399 711.68 454.558C711.839 454.717 711.918 454.921 711.918 455.17V458.094C711.918 458.343 711.839 458.547 711.68 458.706C711.521 458.865 711.329 458.944 711.102 458.944H708.11C707.113 458.944 706.331 459.227 705.764 459.794C705.197 460.338 704.914 461.12 704.914 462.14V471.15C704.914 471.399 704.835 471.603 704.676 471.762C704.517 471.921 704.313 472 704.064 472H700.494ZM721.424 472.34C720.018 472.34 718.806 472.181 717.786 471.864C716.788 471.524 715.972 471.116 715.338 470.64C714.726 470.164 714.261 469.688 713.944 469.212C713.649 468.713 713.49 468.294 713.468 467.954C713.445 467.705 713.524 467.501 713.706 467.342C713.887 467.183 714.068 467.104 714.25 467.104H717.548C717.616 467.104 717.684 467.115 717.752 467.138C717.82 467.161 717.888 467.217 717.956 467.308C718.25 467.512 718.556 467.75 718.874 468.022C719.191 468.271 719.554 468.487 719.962 468.668C720.392 468.849 720.925 468.94 721.56 468.94C722.308 468.94 722.942 468.793 723.464 468.498C723.985 468.181 724.246 467.739 724.246 467.172C724.246 466.764 724.121 466.424 723.872 466.152C723.645 465.88 723.203 465.631 722.546 465.404C721.888 465.177 720.914 464.928 719.622 464.656C718.398 464.384 717.355 464.021 716.494 463.568C715.632 463.115 714.986 462.548 714.556 461.868C714.125 461.165 713.91 460.327 713.91 459.352C713.91 458.468 714.182 457.618 714.726 456.802C715.292 455.986 716.12 455.317 717.208 454.796C718.296 454.252 719.656 453.98 721.288 453.98C722.534 453.98 723.622 454.139 724.552 454.456C725.504 454.751 726.297 455.136 726.932 455.612C727.566 456.065 728.042 456.541 728.36 457.04C728.7 457.516 728.881 457.935 728.904 458.298C728.926 458.525 728.858 458.717 728.7 458.876C728.541 459.035 728.36 459.114 728.156 459.114H725.13C725.016 459.114 724.914 459.103 724.824 459.08C724.733 459.035 724.654 458.978 724.586 458.91C724.314 458.729 724.03 458.525 723.736 458.298C723.464 458.049 723.135 457.833 722.75 457.652C722.364 457.471 721.866 457.38 721.254 457.38C720.506 457.38 719.928 457.55 719.52 457.89C719.134 458.207 718.942 458.615 718.942 459.114C718.942 459.431 719.044 459.726 719.248 459.998C719.452 460.27 719.871 460.519 720.506 460.746C721.14 460.973 722.104 461.211 723.396 461.46C724.937 461.732 726.161 462.14 727.068 462.684C727.974 463.228 728.62 463.863 729.006 464.588C729.414 465.291 729.618 466.05 729.618 466.866C729.618 467.931 729.3 468.883 728.666 469.722C728.031 470.538 727.102 471.184 725.878 471.66C724.676 472.113 723.192 472.34 721.424 472.34ZM740.769 472.34C738.163 472.34 736.089 471.615 734.547 470.164C733.029 468.713 732.224 466.605 732.133 463.84C732.133 463.659 732.133 463.421 732.133 463.126C732.133 462.809 732.133 462.559 732.133 462.378C732.224 460.633 732.621 459.137 733.323 457.89C734.026 456.621 735.012 455.657 736.281 455C737.551 454.32 739.035 453.98 740.735 453.98C742.639 453.98 744.226 454.377 745.495 455.17C746.787 455.941 747.751 457.006 748.385 458.366C749.043 459.703 749.371 461.245 749.371 462.99V463.772C749.371 463.999 749.281 464.191 749.099 464.35C748.941 464.509 748.748 464.588 748.521 464.588H737.403C737.403 464.611 737.403 464.656 737.403 464.724C737.403 464.769 737.403 464.815 737.403 464.86C737.426 465.585 737.562 466.254 737.811 466.866C738.083 467.455 738.457 467.931 738.933 468.294C739.432 468.657 740.021 468.838 740.701 468.838C741.268 468.838 741.733 468.759 742.095 468.6C742.458 468.441 742.753 468.249 742.979 468.022C743.229 467.795 743.41 467.603 743.523 467.444C743.727 467.217 743.886 467.081 743.999 467.036C744.135 466.968 744.339 466.934 744.611 466.934H748.147C748.374 466.934 748.555 467.002 748.691 467.138C748.85 467.251 748.918 467.421 748.895 467.648C748.873 468.011 748.68 468.464 748.317 469.008C747.977 469.529 747.467 470.051 746.787 470.572C746.107 471.071 745.257 471.49 744.237 471.83C743.24 472.17 742.084 472.34 740.769 472.34ZM737.403 461.494H744.067V461.426C744.067 460.61 743.931 459.907 743.659 459.318C743.41 458.706 743.036 458.23 742.537 457.89C742.039 457.55 741.438 457.38 740.735 457.38C740.033 457.38 739.432 457.55 738.933 457.89C738.435 458.23 738.049 458.706 737.777 459.318C737.528 459.907 737.403 460.61 737.403 461.426V461.494ZM759.74 472.34C758.335 472.34 757.122 472.181 756.102 471.864C755.105 471.524 754.289 471.116 753.654 470.64C753.042 470.164 752.577 469.688 752.26 469.212C751.965 468.713 751.807 468.294 751.784 467.954C751.761 467.705 751.841 467.501 752.022 467.342C752.203 467.183 752.385 467.104 752.566 467.104H755.864C755.932 467.104 756 467.115 756.068 467.138C756.136 467.161 756.204 467.217 756.272 467.308C756.567 467.512 756.873 467.75 757.19 468.022C757.507 468.271 757.87 468.487 758.278 468.668C758.709 468.849 759.241 468.94 759.876 468.94C760.624 468.94 761.259 468.793 761.78 468.498C762.301 468.181 762.562 467.739 762.562 467.172C762.562 466.764 762.437 466.424 762.188 466.152C761.961 465.88 761.519 465.631 760.862 465.404C760.205 465.177 759.23 464.928 757.938 464.656C756.714 464.384 755.671 464.021 754.81 463.568C753.949 463.115 753.303 462.548 752.872 461.868C752.441 461.165 752.226 460.327 752.226 459.352C752.226 458.468 752.498 457.618 753.042 456.802C753.609 455.986 754.436 455.317 755.524 454.796C756.612 454.252 757.972 453.98 759.604 453.98C760.851 453.98 761.939 454.139 762.868 454.456C763.82 454.751 764.613 455.136 765.248 455.612C765.883 456.065 766.359 456.541 766.676 457.04C767.016 457.516 767.197 457.935 767.22 458.298C767.243 458.525 767.175 458.717 767.016 458.876C766.857 459.035 766.676 459.114 766.472 459.114H763.446C763.333 459.114 763.231 459.103 763.14 459.08C763.049 459.035 762.97 458.978 762.902 458.91C762.63 458.729 762.347 458.525 762.052 458.298C761.78 458.049 761.451 457.833 761.066 457.652C760.681 457.471 760.182 457.38 759.57 457.38C758.822 457.38 758.244 457.55 757.836 457.89C757.451 458.207 757.258 458.615 757.258 459.114C757.258 459.431 757.36 459.726 757.564 459.998C757.768 460.27 758.187 460.519 758.822 460.746C759.457 460.973 760.42 461.211 761.712 461.46C763.253 461.732 764.477 462.14 765.384 462.684C766.291 463.228 766.937 463.863 767.322 464.588C767.73 465.291 767.934 466.05 767.934 466.866C767.934 467.931 767.617 468.883 766.982 469.722C766.347 470.538 765.418 471.184 764.194 471.66C762.993 472.113 761.508 472.34 759.74 472.34Z" fill="black"/>
<rect x="1.5" y="258.5" width="975" height="287" stroke="black" stroke-width="3" shape-rendering="crispEdges"/>
</g>
<defs>
<filter id="filter0_d_111_703" x="57" y="0" width="362" height="127.258" filterUnits="userSpaceOnUse" color-interpolation-filters="sRGB">
<feFlood flood-opacity="0" result="BackgroundImageFix"/>
<feColorMatrix in="SourceAlpha" type="matrix" values="0 0 0 0 0 0 0 0 0 0 0 0 0 0 0 0 0 0 127 0" result="hardAlpha"/>
<feOffset dx="4" dy="4"/>
<feComposite in2="hardAlpha" operator="out"/>
<feColorMatrix type="matrix" values="0 0 0 0 0 0 0 0 0 0 0 0 0 0 0 0 0 0 1 0"/>
<feBlend mode="normal" in2="BackgroundImageFix" result="effect1_dropShadow_111_703"/>
<feBlend mode="normal" in="SourceGraphic" in2="effect1_dropShadow_111_703" result="shape"/>
</filter>
<filter id="filter1_d_111_703" x="563" y="0" width="362" height="127.258" filterUnits="userSpaceOnUse" color-interpolation-filters="sRGB">
<feFlood flood-opacity="0" result="BackgroundImageFix"/>
<feColorMatrix in="SourceAlpha" type="matrix" values="0 0 0 0 0 0 0 0 0 0 0 0 0 0 0 0 0 0 127 0" result="hardAlpha"/>
<feOffset dx="4" dy="4"/>
<feComposite in2="hardAlpha" operator="out"/>
<feColorMatrix type="matrix" values="0 0 0 0 0 0 0 0 0 0 0 0 0 0 0 0 0 0 1 0"/>
<feBlend mode="normal" in2="BackgroundImageFix" result="effect1_dropShadow_111_703"/>
<feBlend mode="normal" in="SourceGraphic" in2="effect1_dropShadow_111_703" result="shape"/>
</filter>
<filter id="filter2_d_111_703" x="0" y="257" width="982" height="294" filterUnits="userSpaceOnUse" color-interpolation-filters="sRGB">
<feFlood flood-opacity="0" result="BackgroundImageFix"/>
<feColorMatrix in="SourceAlpha" type="matrix" values="0 0 0 0 0 0 0 0 0 0 0 0 0 0 0 0 0 0 127 0" result="hardAlpha"/>
<feOffset dx="4" dy="4"/>
<feComposite in2="hardAlpha" operator="out"/>
<feColorMatrix type="matrix" values="0 0 0 0 0 0 0 0 0 0 0 0 0 0 0 0 0 0 1 0"/>
<feBlend mode="normal" in2="BackgroundImageFix" result="effect1_dropShadow_111_703"/>
<feBlend mode="normal" in="SourceGraphic" in2="effect1_dropShadow_111_703" result="shape"/>
</filter>
</defs>
</svg>
